<?xml version="1.0" encoding="UTF-8"?>
<!--Generator: Apple Native CoreSVG 123-->
<!DOCTYPE svg
PUBLIC "-//W3C//DTD SVG 1.1//EN"
       "http://www.w3.org/Graphics/SVG/1.1/DTD/svg11.dtd">
<svg version="1.1" xmlns="http://www.w3.org/2000/svg" xmlns:xlink="http://www.w3.org/1999/xlink" width="3300" height="2200">
 <!--glyph: "uni10022B.medium", point size: 100.000000, font version: "Version 15.0d7e11", template writer version: "5"-->
 <g id="Notes">
  <rect height="2200" id="artboard" style="fill:white;opacity:1" width="3300" x="0" y="0"/>
  <line id="" style="fill:none;stroke:black;opacity:1;stroke-width:0.5;" x1="263" x2="3036" y1="292" y2="292"/>
  <text style="stroke:none;fill:black;font-family:-apple-system,&quot;SF Pro Display&quot;,&quot;SF Pro Text&quot;,Helvetica,sans-serif;font-weight:bold;" transform="matrix(1 0 0 1 263 322)">Weight/Scale Variations</text>
  <text style="stroke:none;fill:black;font-family:-apple-system,&quot;SF Pro Display&quot;,&quot;SF Pro Text&quot;,Helvetica,sans-serif;text-anchor:middle;" transform="matrix(1 0 0 1 559.711 322)">Ultralight</text>
  <text style="stroke:none;fill:black;font-family:-apple-system,&quot;SF Pro Display&quot;,&quot;SF Pro Text&quot;,Helvetica,sans-serif;text-anchor:middle;" transform="matrix(1 0 0 1 856.422 322)">Thin</text>
  <text style="stroke:none;fill:black;font-family:-apple-system,&quot;SF Pro Display&quot;,&quot;SF Pro Text&quot;,Helvetica,sans-serif;text-anchor:middle;" transform="matrix(1 0 0 1 1153.13 322)">Light</text>
  <text style="stroke:none;fill:black;font-family:-apple-system,&quot;SF Pro Display&quot;,&quot;SF Pro Text&quot;,Helvetica,sans-serif;text-anchor:middle;" transform="matrix(1 0 0 1 1449.84 322)">Regular</text>
  <text style="stroke:none;fill:black;font-family:-apple-system,&quot;SF Pro Display&quot;,&quot;SF Pro Text&quot;,Helvetica,sans-serif;text-anchor:middle;" transform="matrix(1 0 0 1 1746.56 322)">Medium</text>
  <text style="stroke:none;fill:black;font-family:-apple-system,&quot;SF Pro Display&quot;,&quot;SF Pro Text&quot;,Helvetica,sans-serif;text-anchor:middle;" transform="matrix(1 0 0 1 2043.27 322)">Semibold</text>
  <text style="stroke:none;fill:black;font-family:-apple-system,&quot;SF Pro Display&quot;,&quot;SF Pro Text&quot;,Helvetica,sans-serif;text-anchor:middle;" transform="matrix(1 0 0 1 2339.98 322)">Bold</text>
  <text style="stroke:none;fill:black;font-family:-apple-system,&quot;SF Pro Display&quot;,&quot;SF Pro Text&quot;,Helvetica,sans-serif;text-anchor:middle;" transform="matrix(1 0 0 1 2636.69 322)">Heavy</text>
  <text style="stroke:none;fill:black;font-family:-apple-system,&quot;SF Pro Display&quot;,&quot;SF Pro Text&quot;,Helvetica,sans-serif;text-anchor:middle;" transform="matrix(1 0 0 1 2933.4 322)">Black</text>
  <line id="" style="fill:none;stroke:black;opacity:1;stroke-width:0.5;" x1="263" x2="3036" y1="1903" y2="1903"/>
  <g id="" transform="matrix(1 0 0 1 263 1933)">
   <path d="M 9.24805 0.830078 C 13.5547 0.830078 17.1387 -2.74414 17.1387 -7.05078 C 17.1387 -11.3574 13.5449 -14.9316 9.23828 -14.9316 C 4.94141 -14.9316 1.36719 -11.3574 1.36719 -7.05078 C 1.36719 -2.74414 4.95117 0.830078 9.24805 0.830078 Z M 9.24805 -0.654297 C 5.70312 -0.654297 2.87109 -3.49609 2.87109 -7.05078 C 2.87109 -10.6055 5.69336 -13.4473 9.23828 -13.4473 C 12.793 -13.4473 15.6348 -10.6055 15.6445 -7.05078 C 15.6543 -3.49609 12.8027 -0.654297 9.24805 -0.654297 Z M 9.22852 -3.42773 C 9.69727 -3.42773 9.9707 -3.74023 9.9707 -4.25781 L 9.9707 -6.31836 L 12.1973 -6.31836 C 12.6953 -6.31836 13.0371 -6.57227 13.0371 -7.04102 C 13.0371 -7.51953 12.7148 -7.7832 12.1973 -7.7832 L 9.9707 -7.7832 L 9.9707 -10.0098 C 9.9707 -10.5273 9.69727 -10.8496 9.22852 -10.8496 C 8.75977 -10.8496 8.50586 -10.5078 8.50586 -10.0098 L 8.50586 -7.7832 L 6.29883 -7.7832 C 5.78125 -7.7832 5.44922 -7.51953 5.44922 -7.04102 C 5.44922 -6.57227 5.80078 -6.31836 6.29883 -6.31836 L 8.50586 -6.31836 L 8.50586 -4.25781 C 8.50586 -3.75977 8.75977 -3.42773 9.22852 -3.42773 Z"/>
  </g>
  <g id="" transform="matrix(1 0 0 1 281.506 1933)">
   <path d="M 11.709 2.91016 C 17.1582 2.91016 21.6699 -1.60156 21.6699 -7.05078 C 21.6699 -12.4902 17.1484 -17.0117 11.6992 -17.0117 C 6.25977 -17.0117 1.74805 -12.4902 1.74805 -7.05078 C 1.74805 -1.60156 6.26953 2.91016 11.709 2.91016 Z M 11.709 1.25 C 7.09961 1.25 3.41797 -2.44141 3.41797 -7.05078 C 3.41797 -11.6504 7.08984 -15.3516 11.6992 -15.3516 C 16.3086 -15.3516 20 -11.6504 20.0098 -7.05078 C 20.0195 -2.44141 16.3184 1.25 11.709 1.25 Z M 11.6895 -2.41211 C 12.207 -2.41211 12.5195 -2.77344 12.5195 -3.33984 L 12.5195 -6.23047 L 15.5762 -6.23047 C 16.123 -6.23047 16.5039 -6.51367 16.5039 -7.03125 C 16.5039 -7.55859 16.1426 -7.86133 15.5762 -7.86133 L 12.5195 -7.86133 L 12.5195 -10.9277 C 12.5195 -11.5039 12.207 -11.8555 11.6895 -11.8555 C 11.1719 -11.8555 10.8789 -11.4844 10.8789 -10.9277 L 10.8789 -7.86133 L 7.83203 -7.86133 C 7.26562 -7.86133 6.89453 -7.55859 6.89453 -7.03125 C 6.89453 -6.51367 7.28516 -6.23047 7.83203 -6.23047 L 10.8789 -6.23047 L 10.8789 -3.33984 C 10.8789 -2.79297 11.1719 -2.41211 11.6895 -2.41211 Z"/>
  </g>
  <g id="" transform="matrix(1 0 0 1 304.924 1933)">
   <path d="M 14.9707 5.67383 C 21.9336 5.67383 27.6953 -0.078125 27.6953 -7.04102 C 27.6953 -14.0039 21.9238 -19.7559 14.9609 -19.7559 C 8.00781 -19.7559 2.25586 -14.0039 2.25586 -7.04102 C 2.25586 -0.078125 8.01758 5.67383 14.9707 5.67383 Z M 14.9707 3.85742 C 8.93555 3.85742 4.08203 -1.00586 4.08203 -7.04102 C 4.08203 -13.0762 8.92578 -17.9395 14.9609 -17.9395 C 21.0059 -17.9395 25.8594 -13.0762 25.8691 -7.04102 C 25.8789 -1.00586 21.0156 3.85742 14.9707 3.85742 Z M 14.9512 -1.06445 C 15.5176 -1.06445 15.8691 -1.45508 15.8691 -2.06055 L 15.8691 -6.13281 L 20.1074 -6.13281 C 20.6934 -6.13281 21.1133 -6.46484 21.1133 -7.02148 C 21.1133 -7.59766 20.7227 -7.93945 20.1074 -7.93945 L 15.8691 -7.93945 L 15.8691 -12.1875 C 15.8691 -12.8027 15.5176 -13.1934 14.9512 -13.1934 C 14.3848 -13.1934 14.0625 -12.7832 14.0625 -12.1875 L 14.0625 -7.93945 L 9.83398 -7.93945 C 9.21875 -7.93945 8.80859 -7.59766 8.80859 -7.02148 C 8.80859 -6.46484 9.23828 -6.13281 9.83398 -6.13281 L 14.0625 -6.13281 L 14.0625 -2.06055 C 14.0625 -1.47461 14.3848 -1.06445 14.9512 -1.06445 Z"/>
  </g>
  <text style="stroke:none;fill:black;font-family:-apple-system,&quot;SF Pro Display&quot;,&quot;SF Pro Text&quot;,Helvetica,sans-serif;font-weight:bold;" transform="matrix(1 0 0 1 263 1953)">Design Variations</text>
  <text style="stroke:none;fill:black;font-family:-apple-system,&quot;SF Pro Display&quot;,&quot;SF Pro Text&quot;,Helvetica,sans-serif;" transform="matrix(1 0 0 1 263 1971)">Symbols are supported in up to nine weights and three scales.</text>
  <text style="stroke:none;fill:black;font-family:-apple-system,&quot;SF Pro Display&quot;,&quot;SF Pro Text&quot;,Helvetica,sans-serif;" transform="matrix(1 0 0 1 263 1989)">For optimal layout with text and other symbols, vertically align</text>
  <text style="stroke:none;fill:black;font-family:-apple-system,&quot;SF Pro Display&quot;,&quot;SF Pro Text&quot;,Helvetica,sans-serif;" transform="matrix(1 0 0 1 263 2007)">symbols with the adjacent text.</text>
  <rect height="14" id="" style="fill:#00AEEF;stroke:none;opacity:0.4;" width="3" x="776" y="1919"/>
  <g id="" transform="matrix(1 0 0 1 779 1933)">
   <path d="M 10.5273 0 L 12.373 0 L 7.17773 -14.0918 L 5.43945 -14.0918 L 0.244141 0 L 2.08984 0 L 3.50586 -4.0332 L 9.11133 -4.0332 Z M 6.2793 -11.9531 L 6.33789 -11.9531 L 8.59375 -5.52734 L 4.02344 -5.52734 Z"/>
  </g>
  <rect height="14" id="" style="fill:#00AEEF;stroke:none;opacity:0.4;" width="3" x="791.617" y="1919"/>
  <text style="stroke:none;fill:black;font-family:-apple-system,&quot;SF Pro Display&quot;,&quot;SF Pro Text&quot;,Helvetica,sans-serif;font-weight:bold;" transform="matrix(1 0 0 1 776 1953)">Margins</text>
  <text style="stroke:none;fill:black;font-family:-apple-system,&quot;SF Pro Display&quot;,&quot;SF Pro Text&quot;,Helvetica,sans-serif;" transform="matrix(1 0 0 1 776 1971)">Leading and trailing margins on the left and right side of each symbol</text>
  <text style="stroke:none;fill:black;font-family:-apple-system,&quot;SF Pro Display&quot;,&quot;SF Pro Text&quot;,Helvetica,sans-serif;" transform="matrix(1 0 0 1 776 1989)">can be adjusted by modifying the width of the blue rectangles.</text>
  <text style="stroke:none;fill:black;font-family:-apple-system,&quot;SF Pro Display&quot;,&quot;SF Pro Text&quot;,Helvetica,sans-serif;" transform="matrix(1 0 0 1 776 2007)">Modifications are automatically applied proportionally to all</text>
  <text style="stroke:none;fill:black;font-family:-apple-system,&quot;SF Pro Display&quot;,&quot;SF Pro Text&quot;,Helvetica,sans-serif;" transform="matrix(1 0 0 1 776 2025)">scales and weights.</text>
  <g id="" transform="matrix(1 0 0 1 1289 1933)">
   <path d="M 2.83203 3.11523 L 4.375 4.6582 C 5.22461 5.48828 6.19141 5.41992 7.06055 4.46289 L 17.2754 -6.66016 C 17.7051 -6.36719 18.0957 -6.37695 18.5645 -6.47461 L 19.6094 -6.68945 L 20.3027 -5.99609 L 20.2539 -5.47852 C 20.1855 -4.95117 20.3516 -4.53125 20.8496 -4.0332 L 21.6602 -3.22266 C 22.168 -2.71484 22.8223 -2.68555 23.3008 -3.16406 L 26.5527 -6.41602 C 27.0312 -6.89453 27.0117 -7.54883 26.5039 -8.05664 L 25.6836 -8.87695 C 25.1855 -9.375 24.7754 -9.55078 24.2383 -9.47266 L 23.7109 -9.41406 L 23.0566 -10.0781 L 23.3398 -11.2207 C 23.4863 -11.7871 23.3398 -12.2559 22.7148 -12.8613 L 20.3027 -15.2539 C 16.7578 -18.7793 12.2266 -18.6719 9.11133 -15.5371 C 8.69141 -15.1074 8.64258 -14.5215 8.91602 -14.0918 C 9.15039 -13.7207 9.62891 -13.4961 10.2734 -13.6621 C 11.7871 -14.043 13.3008 -13.9258 14.7852 -12.9199 L 14.1602 -11.3379 C 13.9258 -10.752 13.9453 -10.2734 14.1797 -9.83398 L 3.01758 0.439453 C 2.08008 1.30859 1.97266 2.25586 2.83203 3.11523 Z M 10.6738 -15.1465 C 13.3398 -17.1387 16.6504 -16.8262 19.0527 -14.4141 L 21.6797 -11.8066 C 21.9141 -11.5723 21.9434 -11.3867 21.8848 -11.0938 L 21.5039 -9.53125 L 23.0762 -7.95898 L 24.043 -8.04688 C 24.3262 -8.07617 24.4141 -8.05664 24.6387 -7.83203 L 25.2637 -7.20703 L 22.5098 -4.46289 L 21.8848 -5.07812 C 21.6602 -5.30273 21.6406 -5.40039 21.6699 -5.68359 L 21.7578 -6.64062 L 20.1953 -8.20312 L 18.5742 -7.89062 C 18.291 -7.83203 18.1445 -7.83203 17.9102 -8.07617 L 15.7324 -10.2539 C 15.5078 -10.4883 15.4785 -10.625 15.6055 -10.9473 L 16.5527 -13.2227 C 14.9512 -14.7559 12.8418 -15.6055 10.8008 -14.9512 C 10.7129 -14.9219 10.6445 -14.9414 10.6152 -14.9805 C 10.5859 -15.0293 10.5859 -15.0781 10.6738 -15.1465 Z M 4.10156 2.41211 C 3.61328 1.91406 3.78906 1.61133 4.12109 1.30859 L 15.0781 -8.80859 L 16.3086 -7.57812 L 6.15234 3.34961 C 5.84961 3.68164 5.46875 3.7793 5.06836 3.37891 Z"/>
  </g>
  <text style="stroke:none;fill:black;font-family:-apple-system,&quot;SF Pro Display&quot;,&quot;SF Pro Text&quot;,Helvetica,sans-serif;font-weight:bold;" transform="matrix(1 0 0 1 1289 1953)">Exporting</text>
  <text style="stroke:none;fill:black;font-family:-apple-system,&quot;SF Pro Display&quot;,&quot;SF Pro Text&quot;,Helvetica,sans-serif;" transform="matrix(1 0 0 1 1289 1971)">Symbols should be outlined when exporting to ensure the</text>
  <text style="stroke:none;fill:black;font-family:-apple-system,&quot;SF Pro Display&quot;,&quot;SF Pro Text&quot;,Helvetica,sans-serif;" transform="matrix(1 0 0 1 1289 1989)">design is preserved when submitting to Xcode.</text>
  <text id="template-version" style="stroke:none;fill:black;font-family:-apple-system,&quot;SF Pro Display&quot;,&quot;SF Pro Text&quot;,Helvetica,sans-serif;text-anchor:end;" transform="matrix(1 0 0 1 3036 1933)">Template v.1.0</text>
  <text style="stroke:none;fill:black;font-family:-apple-system,&quot;SF Pro Display&quot;,&quot;SF Pro Text&quot;,Helvetica,sans-serif;text-anchor:end;" transform="matrix(1 0 0 1 3036 1951)">Generated from tray.full</text>
  <text style="stroke:none;fill:black;font-family:-apple-system,&quot;SF Pro Display&quot;,&quot;SF Pro Text&quot;,Helvetica,sans-serif;text-anchor:end;" transform="matrix(1 0 0 1 3036 1969)">Typeset at 100 points</text>
  <text style="stroke:none;fill:black;font-family:-apple-system,&quot;SF Pro Display&quot;,&quot;SF Pro Text&quot;,Helvetica,sans-serif;" transform="matrix(1 0 0 1 263 726)">Small</text>
  <text style="stroke:none;fill:black;font-family:-apple-system,&quot;SF Pro Display&quot;,&quot;SF Pro Text&quot;,Helvetica,sans-serif;" transform="matrix(1 0 0 1 263 1156)">Medium</text>
  <text style="stroke:none;fill:black;font-family:-apple-system,&quot;SF Pro Display&quot;,&quot;SF Pro Text&quot;,Helvetica,sans-serif;" transform="matrix(1 0 0 1 263 1586)">Large</text>
 </g>
 <g id="Guides">
  <g id="H-reference" style="fill:#27AAE1;stroke:none;" transform="matrix(1 0 0 1 339 696)">
   <path d="M 54.9316 0 L 57.666 0 L 30.5664 -70.459 L 28.0762 -70.459 L 0.976562 0 L 3.66211 0 L 12.9395 -24.4629 L 45.7031 -24.4629 Z M 29.1992 -67.0898 L 29.4434 -67.0898 L 44.8242 -26.709 L 13.8184 -26.709 Z"/>
  </g>
  <line id="Baseline-S" style="fill:none;stroke:#27AAE1;opacity:1;stroke-width:0.577;" x1="263" x2="3036" y1="696" y2="696"/>
  <line id="Capline-S" style="fill:none;stroke:#27AAE1;opacity:1;stroke-width:0.577;" x1="263" x2="3036" y1="625.541" y2="625.541"/>
  <g id="H-reference" style="fill:#27AAE1;stroke:none;" transform="matrix(1 0 0 1 339 1126)">
   <path d="M 54.9316 0 L 57.666 0 L 30.5664 -70.459 L 28.0762 -70.459 L 0.976562 0 L 3.66211 0 L 12.9395 -24.4629 L 45.7031 -24.4629 Z M 29.1992 -67.0898 L 29.4434 -67.0898 L 44.8242 -26.709 L 13.8184 -26.709 Z"/>
  </g>
  <line id="Baseline-M" style="fill:none;stroke:#27AAE1;opacity:1;stroke-width:0.577;" x1="263" x2="3036" y1="1126" y2="1126"/>
  <line id="Capline-M" style="fill:none;stroke:#27AAE1;opacity:1;stroke-width:0.577;" x1="263" x2="3036" y1="1055.54" y2="1055.54"/>
  <g id="H-reference" style="fill:#27AAE1;stroke:none;" transform="matrix(1 0 0 1 339 1556)">
   <path d="M 54.9316 0 L 57.666 0 L 30.5664 -70.459 L 28.0762 -70.459 L 0.976562 0 L 3.66211 0 L 12.9395 -24.4629 L 45.7031 -24.4629 Z M 29.1992 -67.0898 L 29.4434 -67.0898 L 44.8242 -26.709 L 13.8184 -26.709 Z"/>
  </g>
  <line id="Baseline-L" style="fill:none;stroke:#27AAE1;opacity:1;stroke-width:0.577;" x1="263" x2="3036" y1="1556" y2="1556"/>
  <line id="Capline-L" style="fill:none;stroke:#27AAE1;opacity:1;stroke-width:0.577;" x1="263" x2="3036" y1="1485.54" y2="1485.54"/>
  <rect height="119.336" id="left-margin" style="fill:#00AEEF;stroke:none;opacity:0.4;" width="12.4512" x="1379.82" y="1030.79"/>
  <rect height="119.336" id="right-margin" style="fill:#00AEEF;stroke:none;opacity:0.4;" width="12.4512" x="1507.41" y="1030.79"/>
 </g>
 <g id="Symbols">
  <g id="Black-L" transform="matrix(1 0 0 1 2841.51 1556)">
   <path d="M 39.9902 24.0723 L 143.799 24.0723 C 159.082 24.0723 167.725 15.4297 167.725 0.244141 L 167.725 -37.5 C 167.725 -48.4863 166.455 -53.0762 161.426 -59.1797 L 144.434 -79.7852 C 135.303 -90.8203 131.348 -94.4336 119.043 -94.4336 L 64.6973 -94.4336 C 52.3926 -94.4336 48.4863 -90.8203 39.3555 -79.7852 L 22.3633 -59.1797 C 17.334 -52.9785 16.0645 -48.4863 16.0645 -37.5 L 16.0645 0.244141 C 16.0645 15.4297 24.7559 24.0723 39.9902 24.0723 Z M 91.8945 -31.2988 C 84.8145 -31.2988 80.957 -37.2559 80.957 -42.334 L 80.957 -42.5293 C 80.957 -44.7266 79.5898 -46.6309 75.9766 -46.6309 L 39.1602 -46.6309 C 37.0605 -46.6309 36.6699 -48.3887 37.7441 -49.7559 L 58.252 -74.9023 C 60.2539 -77.2949 62.4512 -78.7109 65.625 -78.7109 L 118.164 -78.7109 C 121.338 -78.7109 123.535 -77.2949 125.488 -74.9023 L 146.045 -49.7559 C 147.119 -48.3887 146.68 -46.6309 144.629 -46.6309 L 107.764 -46.6309 C 104.199 -46.6309 102.832 -44.7266 102.832 -42.5293 L 102.832 -42.334 C 102.832 -37.2559 98.9746 -31.2988 91.8945 -31.2988 Z M 117.041 -71.4355 L 66.748 -71.4355 C 64.8926 -71.4355 63.4766 -69.9707 63.4766 -68.1152 C 63.4766 -66.2598 64.8926 -64.7461 66.748 -64.7461 L 117.041 -64.7461 C 118.896 -64.7461 120.264 -66.2598 120.264 -68.1152 C 120.264 -69.9707 118.896 -71.4355 117.041 -71.4355 Z M 124.512 -59.1797 L 59.2773 -59.1797 C 57.3242 -59.1797 55.7617 -57.4707 55.7617 -55.5176 C 55.7617 -53.6621 57.3242 -52.0996 59.2773 -52.0996 L 124.512 -52.0996 C 126.465 -52.0996 127.979 -53.6621 127.979 -55.5176 C 127.979 -57.4707 126.465 -59.1797 124.512 -59.1797 Z M 41.9922 3.80859 C 37.793 3.80859 35.5957 1.95312 35.5957 -2.63672 L 35.5957 -29.5898 L 66.1621 -29.5898 C 69.7266 -20.0195 79.2969 -12.8418 91.8945 -12.8418 C 104.443 -12.8418 114.014 -20.0195 117.578 -29.5898 L 148.145 -29.5898 L 148.145 -2.63672 C 148.145 1.95312 145.996 3.80859 141.748 3.80859 Z"/>
  </g>
  <g id="Heavy-L" transform="matrix(1 0 0 1 2545.23 1556)">
   <path d="M 38.8184 22.5586 L 144.092 22.5586 C 158.74 22.5586 166.846 14.4531 166.846 -0.0488281 L 166.846 -37.5488 C 166.846 -47.168 165.723 -51.2207 161.23 -56.6406 L 142.871 -79.1504 C 134.277 -89.5996 130.518 -92.9199 118.652 -92.9199 L 64.2578 -92.9199 C 52.3926 -92.9199 48.6328 -89.5996 40.0391 -79.1504 L 21.6309 -56.6406 C 17.2363 -51.1719 16.0645 -47.168 16.0645 -37.5488 L 16.0645 -0.0488281 C 16.0645 14.502 24.2188 22.5586 38.8184 22.5586 Z M 91.4551 -28.8086 C 83.8867 -28.8086 79.4434 -35.1562 79.4434 -40.9668 L 79.4434 -41.1621 C 79.4434 -43.4082 78.0762 -45.3613 74.6582 -45.3613 L 36.4258 -45.3613 C 34.4238 -45.3613 33.9844 -47.0703 35.0586 -48.3887 L 56.4941 -74.9023 C 58.7402 -77.6855 61.2305 -79.1504 64.7949 -79.1504 L 118.115 -79.1504 C 121.68 -79.1504 124.17 -77.6855 126.416 -74.9023 L 147.852 -48.3887 C 148.926 -47.0703 148.486 -45.3613 146.484 -45.3613 L 108.203 -45.3613 C 104.785 -45.3613 103.418 -43.4082 103.418 -41.1621 L 103.418 -40.9668 C 103.418 -35.1562 99.0234 -28.8086 91.4551 -28.8086 Z M 116.992 -71.2402 L 65.918 -71.2402 C 64.1113 -71.2402 62.7441 -69.8242 62.7441 -68.0664 C 62.7441 -66.2598 64.1113 -64.8926 65.918 -64.8926 L 116.992 -64.8926 C 118.799 -64.8926 120.117 -66.2598 120.117 -68.0664 C 120.117 -69.8242 118.799 -71.2402 116.992 -71.2402 Z M 124.805 -58.4473 L 58.1055 -58.4473 C 56.2012 -58.4473 54.7363 -56.7871 54.7363 -54.9805 C 54.7363 -53.1738 56.2012 -51.709 58.1055 -51.709 L 124.805 -51.709 C 126.709 -51.709 128.125 -53.1738 128.125 -54.9805 C 128.125 -56.7871 126.709 -58.4473 124.805 -58.4473 Z M 40.3809 5.07812 C 35.5469 5.07812 33.0566 2.7832 33.0566 -2.34375 L 33.0566 -30.4688 L 66.2598 -30.4688 C 69.2383 -20.3613 78.8574 -12.793 91.4551 -12.793 C 104.004 -12.793 113.623 -20.3613 116.65 -30.4688 L 149.854 -30.4688 L 149.854 -2.34375 C 149.854 2.7832 147.314 5.07812 142.48 5.07812 Z"/>
  </g>
  <g id="Bold-L" transform="matrix(1 0 0 1 2249.01 1556)">
   <path d="M 37.5 20.8984 L 144.385 20.8984 C 158.35 20.8984 165.869 13.3789 165.869 -0.390625 L 165.869 -37.5488 C 165.869 -45.6543 164.844 -49.1699 161.084 -53.8086 L 141.113 -78.4668 C 133.154 -88.1836 129.541 -91.2598 118.164 -91.2598 L 63.7207 -91.2598 C 52.3438 -91.2598 48.7793 -88.1836 40.8203 -78.4668 L 20.8496 -53.8086 C 17.0898 -49.1211 16.0645 -45.6543 16.0645 -37.5488 L 16.0645 -0.390625 C 16.0645 13.4277 23.6328 20.8984 37.5 20.8984 Z M 90.9668 -26.0254 C 82.8125 -26.0254 77.832 -32.8613 77.832 -39.4043 L 77.832 -39.5996 C 77.832 -41.8945 76.416 -43.9453 73.1934 -43.9453 L 33.3496 -43.9453 C 31.3965 -43.9453 31.0059 -45.6055 32.0312 -46.875 L 54.4922 -74.9512 C 57.0312 -78.125 59.8633 -79.5898 63.8184 -79.5898 L 118.066 -79.5898 C 122.07 -79.5898 124.902 -78.125 127.441 -74.9512 L 149.902 -46.875 C 150.928 -45.6055 150.537 -43.9453 148.584 -43.9453 L 108.691 -43.9453 C 105.469 -43.9453 104.102 -41.8945 104.102 -39.5996 L 104.102 -39.4043 C 104.102 -32.8613 99.0723 -26.0254 90.9668 -26.0254 Z M 116.992 -71.0449 L 64.9414 -71.0449 C 63.2324 -71.0449 61.9629 -69.7266 61.9629 -68.0176 C 61.9629 -66.3086 63.2324 -64.9902 64.9414 -64.9902 L 116.992 -64.9902 C 118.701 -64.9902 119.971 -66.3086 119.971 -68.0176 C 119.971 -69.7266 118.701 -71.0449 116.992 -71.0449 Z M 125.195 -57.6172 L 56.7871 -57.6172 C 54.9805 -57.6172 53.6133 -56.1035 53.6133 -54.3457 C 53.6133 -52.6367 54.9805 -51.2207 56.7871 -51.2207 L 125.195 -51.2207 C 126.953 -51.2207 128.32 -52.6367 128.32 -54.3457 C 128.32 -56.1035 126.953 -57.6172 125.195 -57.6172 Z M 38.623 6.44531 C 33.1055 6.44531 30.1758 3.71094 30.1758 -2.05078 L 30.1758 -31.4941 L 66.3086 -31.4941 C 68.7012 -20.7031 78.3691 -12.793 90.9668 -12.793 C 103.516 -12.793 113.184 -20.752 115.576 -31.4941 L 151.758 -31.4941 L 151.758 -2.05078 C 151.758 3.71094 148.73 6.44531 143.311 6.44531 Z"/>
  </g>
  <g id="Semibold-L" transform="matrix(1 0 0 1 1952.64 1556)">
   <path d="M 36.6211 19.7754 L 144.629 19.7754 C 158.057 19.7754 165.186 12.6465 165.186 -0.634766 L 165.186 -37.5977 C 165.186 -44.5801 164.307 -47.7539 160.938 -51.8555 L 139.893 -77.9785 C 132.373 -87.2559 128.906 -90.0879 117.822 -90.0879 L 63.3789 -90.0879 C 52.3438 -90.0879 48.877 -87.2559 41.3574 -77.9785 L 20.2637 -51.8555 C 16.9922 -47.7051 16.0645 -44.5801 16.0645 -37.5977 L 16.0645 -0.634766 C 16.0645 12.6953 23.1934 19.7754 36.6211 19.7754 Z M 90.625 -24.0723 C 82.1289 -24.0723 76.6602 -31.25 76.6602 -38.3301 L 76.6602 -38.5742 C 76.6602 -40.8691 75.293 -42.9688 72.168 -42.9688 L 31.25 -42.9688 C 29.3457 -42.9688 28.9551 -44.5801 29.9316 -45.8496 L 53.125 -74.9512 C 55.8594 -78.418 58.9355 -79.9316 63.1836 -79.9316 L 118.066 -79.9316 C 122.314 -79.9316 125.391 -78.418 128.125 -74.9512 L 151.318 -45.8496 C 152.295 -44.5801 151.904 -42.9688 150.049 -42.9688 L 109.033 -42.9688 C 105.957 -42.9688 104.541 -40.8691 104.541 -38.5742 L 104.541 -38.3301 C 104.541 -31.25 99.1211 -24.0723 90.625 -24.0723 Z M 116.992 -70.8984 L 64.3066 -70.8984 C 62.6465 -70.8984 61.377 -69.6289 61.377 -68.0176 C 61.377 -66.3574 62.6465 -65.0391 64.3066 -65.0391 L 116.992 -65.0391 C 118.652 -65.0391 119.873 -66.3574 119.873 -68.0176 C 119.873 -69.6289 118.652 -70.8984 116.992 -70.8984 Z M 125.439 -57.0312 L 55.8594 -57.0312 C 54.1504 -57.0312 52.832 -55.5664 52.832 -53.9062 C 52.832 -52.2461 54.1504 -50.9277 55.8594 -50.9277 L 125.439 -50.9277 C 127.1 -50.9277 128.418 -52.2461 128.418 -53.9062 C 128.418 -55.5664 127.1 -57.0312 125.439 -57.0312 Z M 37.4023 7.42188 C 31.3965 7.42188 28.1738 4.3457 28.1738 -1.85547 L 28.1738 -32.1777 L 66.3574 -32.1777 C 68.3594 -20.9473 78.0762 -12.7441 90.625 -12.7441 C 103.174 -12.7441 112.891 -20.9961 114.844 -32.1777 L 153.076 -32.1777 L 153.076 -1.85547 C 153.076 4.3457 149.756 7.42188 143.848 7.42188 Z"/>
  </g>
  <g id="Medium-L" transform="matrix(1 0 0 1 1656.2 1556)">
   <path d="M 35.9375 18.8965 L 144.775 18.8965 C 157.861 18.8965 164.648 12.1094 164.648 -0.830078 L 164.648 -37.5977 C 164.648 -43.7988 163.867 -46.6797 160.889 -50.3418 L 138.965 -77.6367 C 131.787 -86.5234 128.418 -89.209 117.578 -89.209 L 63.1348 -89.209 C 52.2949 -89.209 48.9746 -86.5234 41.748 -77.6367 L 19.873 -50.3418 C 16.8945 -46.6797 16.0645 -43.7988 16.0645 -37.5977 L 16.0645 -0.830078 C 16.0645 12.1582 22.9004 18.8965 35.9375 18.8965 Z M 90.3809 -22.6074 C 81.5918 -22.6074 75.8301 -30.0293 75.8301 -37.5 L 75.8301 -37.7441 C 75.8301 -40.0879 74.4141 -42.2363 71.4355 -42.2363 L 29.6387 -42.2363 C 27.7832 -42.2363 27.3926 -43.8477 28.3691 -45.0195 L 52.0508 -75 C 54.9805 -78.6133 58.2031 -80.1758 62.6953 -80.1758 L 118.018 -80.1758 C 122.51 -80.1758 125.781 -78.6133 128.662 -75 L 152.393 -45.0195 C 153.369 -43.8477 152.979 -42.2363 151.123 -42.2363 L 109.326 -42.2363 C 106.299 -42.2363 104.932 -40.0879 104.932 -37.7441 L 104.932 -37.5 C 104.932 -30.0293 99.1699 -22.6074 90.3809 -22.6074 Z M 116.992 -70.8008 L 63.7695 -70.8008 C 62.1582 -70.8008 60.9863 -69.5801 60.9863 -67.9688 C 60.9863 -66.3574 62.1582 -65.1367 63.7695 -65.1367 L 116.992 -65.1367 C 118.555 -65.1367 119.775 -66.3574 119.775 -67.9688 C 119.775 -69.5801 118.555 -70.8008 116.992 -70.8008 Z M 125.586 -56.5918 L 55.1758 -56.5918 C 53.5156 -56.5918 52.2461 -55.1758 52.2461 -53.5645 C 52.2461 -51.9531 53.5156 -50.6836 55.1758 -50.6836 L 125.586 -50.6836 C 127.246 -50.6836 128.516 -51.9531 128.516 -53.5645 C 128.516 -55.1758 127.246 -56.5918 125.586 -56.5918 Z M 36.4746 8.1543 C 30.127 8.1543 26.6602 4.83398 26.6602 -1.70898 L 26.6602 -32.666 L 66.4062 -32.666 C 68.0664 -21.1426 77.832 -12.7441 90.3809 -12.7441 C 102.93 -12.7441 112.646 -21.1914 114.307 -32.666 L 154.053 -32.666 L 154.053 -1.70898 C 154.053 4.83398 150.537 8.1543 144.287 8.1543 Z"/>
  </g>
  <g id="Regular-L" transform="matrix(1 0 0 1 1359.81 1556)">
   <path d="M 35.0586 17.7734 L 144.971 17.7734 C 157.617 17.7734 164.014 11.377 164.014 -1.07422 L 164.014 -37.5977 C 164.014 -42.7734 163.281 -45.2637 160.742 -48.4375 L 137.793 -77.1484 C 131.006 -85.5469 127.783 -88.0859 117.285 -88.0859 L 62.793 -88.0859 C 52.2949 -88.0859 49.0723 -85.5469 42.2852 -77.1484 L 19.2871 -48.4375 C 16.7969 -45.2637 16.0645 -42.7734 16.0645 -37.5977 L 16.0645 -1.07422 C 16.0645 11.4258 22.4609 17.7734 35.0586 17.7734 Z M 90.0391 -20.7031 C 80.8594 -20.7031 74.707 -28.418 74.707 -36.4258 L 74.707 -36.7188 C 74.707 -39.1113 73.291 -41.2598 70.4102 -41.2598 L 27.5391 -41.2598 C 25.7324 -41.2598 25.3418 -42.8223 26.2695 -43.9941 L 50.7324 -75 C 53.8086 -78.9062 57.2754 -80.4688 62.0605 -80.4688 L 118.018 -80.4688 C 122.803 -80.4688 126.27 -78.9062 129.346 -75 L 153.809 -43.9941 C 154.736 -42.8223 154.346 -41.2598 152.539 -41.2598 L 109.668 -41.2598 C 106.738 -41.2598 105.371 -39.1113 105.371 -36.7188 L 105.371 -36.4258 C 105.371 -28.418 99.1699 -20.7031 90.0391 -20.7031 Z M 116.992 -70.6543 L 63.1348 -70.6543 C 61.5723 -70.6543 60.4004 -69.4824 60.4004 -67.9688 C 60.4004 -66.4062 61.5723 -65.1855 63.1348 -65.1855 L 116.992 -65.1855 C 118.506 -65.1855 119.678 -66.4062 119.678 -67.9688 C 119.678 -69.4824 118.506 -70.6543 116.992 -70.6543 Z M 125.83 -56.0547 L 54.2969 -56.0547 C 52.6855 -56.0547 51.4648 -54.6875 51.4648 -53.125 C 51.4648 -51.5625 52.6855 -50.3418 54.2969 -50.3418 L 125.83 -50.3418 C 127.441 -50.3418 128.662 -51.5625 128.662 -53.125 C 128.662 -54.6875 127.441 -56.0547 125.83 -56.0547 Z M 35.2539 9.08203 C 28.418 9.08203 24.707 5.46875 24.707 -1.51367 L 24.707 -33.3496 L 66.4551 -33.3496 C 67.6758 -21.3867 77.4902 -12.6953 90.0391 -12.6953 C 102.588 -12.6953 112.354 -21.4355 113.574 -33.3496 L 155.322 -33.3496 L 155.322 -1.51367 C 155.322 5.46875 151.514 9.08203 144.824 9.08203 Z"/>
  </g>
  <g id="Light-L" transform="matrix(1 0 0 1 1063.56 1556)">
   <path d="M 34.0332 16.5527 L 145.117 16.5527 C 157.031 16.5527 163.086 10.4004 163.086 -1.26953 L 163.086 -36.7676 C 163.086 -41.2109 162.451 -43.2617 160.303 -45.9961 L 135.742 -77.1973 C 129.736 -84.7168 126.562 -86.8652 117.041 -86.8652 L 62.1582 -86.8652 C 52.6367 -86.8652 49.4141 -84.7168 43.4082 -77.1973 L 18.8477 -45.9961 C 16.6992 -43.2617 16.0645 -41.2109 16.0645 -36.7676 L 16.0645 -1.26953 C 16.0645 10.498 22.168 16.5527 34.0332 16.5527 Z M 89.5996 -19.4336 C 80.0781 -19.4336 73.291 -27.1484 73.291 -36.0352 L 73.291 -36.4258 C 73.291 -38.5254 72.1191 -40.2344 69.7266 -40.2344 L 25.0977 -40.2344 C 23.6816 -40.2344 23.3398 -41.4551 24.0723 -42.4316 L 49.9512 -75.4883 C 53.0273 -79.3945 56.3965 -80.957 61.4258 -80.957 L 117.725 -80.957 C 122.803 -80.957 126.172 -79.3945 129.248 -75.4883 L 155.127 -42.4316 C 155.908 -41.4551 155.566 -40.2344 154.15 -40.2344 L 109.473 -40.2344 C 107.031 -40.2344 105.859 -38.5254 105.859 -36.4258 L 105.859 -36.0352 C 105.859 -27.1484 99.0723 -19.4336 89.5996 -19.4336 Z M 117.188 -70.4102 L 62.1094 -70.4102 C 60.791 -70.4102 59.7656 -69.4336 59.7656 -68.0664 C 59.7656 -66.6992 60.791 -65.7227 62.1094 -65.7227 L 117.188 -65.7227 C 118.457 -65.7227 119.434 -66.6992 119.434 -68.0664 C 119.434 -69.4336 118.457 -70.4102 117.188 -70.4102 Z M 126.709 -55.2734 L 52.5391 -55.2734 C 51.1719 -55.2734 50.1465 -54.1992 50.1465 -52.8809 C 50.1465 -51.5137 51.1719 -50.4883 52.5391 -50.4883 L 126.709 -50.4883 C 128.027 -50.4883 129.053 -51.5137 129.053 -52.8809 C 129.053 -54.1992 128.027 -55.2734 126.709 -55.2734 Z M 34.1797 9.96094 C 26.709 9.96094 22.7051 6.00586 22.7051 -1.61133 L 22.7051 -34.1309 L 66.8945 -34.1309 C 67.6758 -21.875 77.3926 -13.2812 89.5996 -13.2812 C 101.807 -13.2812 111.475 -21.9727 112.256 -34.1309 L 156.494 -34.1309 L 156.494 -1.61133 C 156.494 6.00586 152.295 9.96094 144.971 9.96094 Z"/>
  </g>
  <g id="Thin-L" transform="matrix(1 0 0 1 767.433 1556)">
   <path d="M 32.666 14.9902 L 145.312 14.9902 C 156.201 14.9902 161.914 9.13086 161.914 -1.5625 L 161.914 -35.6934 C 161.914 -39.1113 161.426 -40.625 159.766 -42.7734 L 133.057 -77.2461 C 128.125 -83.5938 124.951 -85.2539 116.699 -85.2539 L 61.3281 -85.2539 C 53.0273 -85.2539 49.9023 -83.5938 44.9219 -77.2461 L 18.2129 -42.7734 C 16.6016 -40.625 16.0645 -39.1113 16.0645 -35.6934 L 16.0645 -1.5625 C 16.0645 9.27734 21.7773 14.9902 32.666 14.9902 Z M 89.0137 -17.7246 C 79.0527 -17.7246 71.4844 -25.4395 71.4844 -35.5469 L 71.4844 -36.0352 C 71.4844 -37.7441 70.6055 -38.8672 68.7988 -38.8672 L 21.8262 -38.8672 C 20.8984 -38.8672 20.6543 -39.6973 21.1914 -40.3809 L 48.9258 -76.123 C 51.9531 -79.9805 55.2246 -81.5918 60.5957 -81.5918 L 117.383 -81.5918 C 122.803 -81.5918 126.025 -79.9805 129.102 -76.123 L 156.885 -40.3809 C 157.422 -39.6973 157.178 -38.8672 156.25 -38.8672 L 109.18 -38.8672 C 107.422 -38.8672 106.543 -37.7441 106.543 -36.0352 L 106.543 -35.5469 C 106.543 -25.4395 98.9258 -17.7246 89.0137 -17.7246 Z M 117.432 -70.0195 L 60.7422 -70.0195 C 59.7168 -70.0195 58.9355 -69.3359 58.9355 -68.2129 C 58.9355 -67.1387 59.7168 -66.4551 60.7422 -66.4551 L 117.432 -66.4551 C 118.359 -66.4551 119.141 -67.1387 119.141 -68.2129 C 119.141 -69.3359 118.359 -70.0195 117.432 -70.0195 Z M 127.881 -54.2969 L 50.293 -54.2969 C 49.2188 -54.2969 48.4375 -53.5156 48.4375 -52.4902 C 48.4375 -51.4648 49.2188 -50.7324 50.293 -50.7324 L 127.881 -50.7324 C 128.857 -50.7324 129.639 -51.4648 129.639 -52.4902 C 129.639 -53.5156 128.857 -54.2969 127.881 -54.2969 Z M 32.8125 11.084 C 24.4141 11.084 19.9707 6.68945 19.9707 -1.75781 L 19.9707 -35.1562 L 67.4805 -35.1562 C 67.6758 -22.5586 77.2461 -14.0137 89.0137 -14.0137 C 100.781 -14.0137 110.303 -22.7051 110.547 -35.1562 L 158.008 -35.1562 L 158.008 -1.75781 C 158.008 6.68945 153.32 11.084 145.166 11.084 Z"/>
  </g>
  <g id="Ultralight-L" transform="matrix(1 0 0 1 471.015 1556)">
   <path d="M 31.9824 14.209 L 145.41 14.209 C 155.811 14.209 161.328 8.49609 161.328 -1.70898 L 161.328 -35.1562 C 161.328 -38.0371 160.889 -39.2578 159.473 -41.1621 L 131.689 -77.2461 C 127.295 -83.0078 124.17 -84.4238 116.504 -84.4238 L 60.8887 -84.4238 C 53.2227 -84.4238 50.0977 -83.0078 45.7031 -77.2461 L 17.9199 -41.1621 C 16.5039 -39.2578 16.0645 -38.0371 16.0645 -35.1562 L 16.0645 -1.70898 C 16.0645 8.64258 21.582 14.209 31.9824 14.209 Z M 88.7207 -16.8457 C 78.5156 -16.8457 70.5566 -24.5605 70.5566 -35.3027 L 70.5566 -35.8398 C 70.5566 -37.3047 69.8242 -38.1348 68.3594 -38.1348 L 20.166 -38.1348 C 19.4824 -38.1348 19.2383 -38.7695 19.6777 -39.3555 L 48.3887 -76.4648 C 51.416 -80.2734 54.6387 -81.9336 60.1562 -81.9336 L 117.236 -81.9336 C 122.803 -81.9336 125.977 -80.2734 129.004 -76.4648 L 157.812 -39.3555 C 158.203 -38.7695 158.008 -38.1348 157.324 -38.1348 L 109.033 -38.1348 C 107.568 -38.1348 106.885 -37.3047 106.885 -35.8398 L 106.885 -35.3027 C 106.885 -24.5605 98.877 -16.8457 88.7207 -16.8457 Z M 117.529 -69.8242 L 60.0586 -69.8242 C 59.1309 -69.8242 58.4961 -69.2871 58.4961 -68.2617 C 58.4961 -67.3828 59.1309 -66.7969 60.0586 -66.7969 L 117.529 -66.7969 C 118.359 -66.7969 118.994 -67.3828 118.994 -68.2617 C 118.994 -69.2871 118.359 -69.8242 117.529 -69.8242 Z M 128.467 -53.7598 L 49.1211 -53.7598 C 48.2422 -53.7598 47.5586 -53.2227 47.5586 -52.2949 C 47.5586 -51.416 48.2422 -50.8301 49.1211 -50.8301 L 128.467 -50.8301 C 129.248 -50.8301 129.932 -51.416 129.932 -52.2949 C 129.932 -53.2227 129.248 -53.7598 128.467 -53.7598 Z M 32.1289 11.6699 C 23.1934 11.6699 18.6035 7.03125 18.6035 -1.85547 L 18.6035 -35.6934 L 67.7734 -35.6934 C 67.6758 -22.9004 77.1484 -14.4043 88.7207 -14.4043 C 100.244 -14.4043 109.717 -23.0469 109.668 -35.6934 L 158.789 -35.6934 L 158.789 -1.85547 C 158.789 7.03125 153.857 11.6699 145.264 11.6699 Z"/>
  </g>
  <g id="Black-M" transform="matrix(1 0 0 1 2861.84 1126)">
   <path d="M 31.9824 12.1094 L 111.133 12.1094 C 123.389 12.1094 130.664 4.83398 130.664 -7.42188 L 130.664 -36.5234 C 130.664 -46.4844 129.59 -50.4395 125.049 -55.957 L 112.939 -70.6055 C 105.566 -79.541 102.295 -82.4707 92.6758 -82.4707 L 50.4395 -82.4707 C 40.8203 -82.4707 37.5488 -79.541 30.1758 -70.6055 L 18.0664 -55.957 C 13.5742 -50.3906 12.4512 -46.4844 12.4512 -36.5234 L 12.4512 -7.42188 C 12.4512 4.83398 19.7266 12.1094 31.9824 12.1094 Z M 71.582 -34.8633 C 66.5527 -34.8633 63.9648 -38.916 63.9648 -42.4316 L 63.9648 -42.5781 C 63.9648 -44.043 63.0371 -45.2148 60.3027 -45.2148 L 32.7148 -45.2148 C 31.25 -45.2148 30.9082 -46.4844 31.7383 -47.5098 L 47.1191 -66.2109 C 48.291 -67.5781 49.5605 -68.6523 51.6602 -68.6523 L 91.4551 -68.6523 C 93.5547 -68.6523 94.8242 -67.5781 95.9961 -66.2109 L 111.426 -47.5098 C 112.207 -46.4844 111.914 -45.2148 110.4 -45.2148 L 82.8125 -45.2148 C 80.0781 -45.2148 79.1504 -44.043 79.1504 -42.5781 L 79.1504 -42.4316 C 79.1504 -38.916 76.5625 -34.8633 71.582 -34.8633 Z M 90.8203 -63.3789 L 52.3438 -63.3789 C 50.8789 -63.3789 49.8535 -62.2559 49.8535 -60.8398 C 49.8535 -59.375 50.8789 -58.252 52.3438 -58.252 L 90.8203 -58.252 C 92.2363 -58.252 93.3105 -59.375 93.3105 -60.8398 C 93.3105 -62.2559 92.2363 -63.3789 90.8203 -63.3789 Z M 96.5332 -54.3945 L 46.582 -54.3945 C 45.1172 -54.3945 43.8965 -53.0762 43.8965 -51.5625 C 43.8965 -50.1465 45.1172 -48.9746 46.582 -48.9746 L 96.5332 -48.9746 C 98.0469 -48.9746 99.2188 -50.1465 99.2188 -51.5625 C 99.2188 -53.0762 98.0469 -54.3945 96.5332 -54.3945 Z M 34.1309 -6.20117 C 31.2988 -6.20117 29.9805 -7.27539 29.9805 -10.3516 L 29.9805 -30.0781 L 51.416 -30.0781 C 54.6875 -23.291 61.9629 -18.2129 71.582 -18.2129 C 81.1523 -18.2129 88.4277 -23.291 91.6992 -30.0781 L 113.135 -30.0781 L 113.135 -10.3516 C 113.135 -7.27539 111.816 -6.20117 108.984 -6.20117 Z"/>
  </g>
  <g id="Heavy-M" transform="matrix(1 0 0 1 2565.5 1126)">
   <path d="M 31.0059 10.791 L 111.426 10.791 C 123.193 10.791 129.932 4.00391 129.932 -7.71484 L 129.932 -36.7676 C 129.932 -45.4102 129.004 -48.9746 125 -53.8086 L 111.768 -69.9219 C 104.785 -78.418 101.709 -81.1523 92.2852 -81.1523 L 50.0977 -81.1523 C 40.7227 -81.1523 37.6465 -78.418 30.6641 -69.9219 L 17.3828 -53.8086 C 13.4766 -48.9258 12.4512 -45.4102 12.4512 -36.7676 L 12.4512 -7.71484 C 12.4512 4.00391 19.2383 10.791 31.0059 10.791 Z M 71.1914 -32.4707 C 65.7227 -32.4707 62.7441 -36.9629 62.7441 -41.0156 L 62.7441 -41.1621 C 62.7441 -42.7734 61.7188 -44.0918 59.0332 -44.0918 L 30.3711 -44.0918 C 28.8574 -44.0918 28.5156 -45.4102 29.3457 -46.4355 L 45.4102 -66.1133 C 46.8262 -67.8711 48.4863 -68.9453 50.8789 -68.9453 L 91.5039 -68.9453 C 93.9453 -68.9453 95.5566 -67.8711 97.0215 -66.1133 L 113.086 -46.4355 C 113.867 -45.4102 113.574 -44.0918 112.061 -44.0918 L 83.3496 -44.0918 C 80.6641 -44.0918 79.6875 -42.7734 79.6875 -41.1621 L 79.6875 -41.0156 C 79.6875 -36.9629 76.6602 -32.4707 71.1914 -32.4707 Z M 90.7227 -63.2324 L 51.6602 -63.2324 C 50.2441 -63.2324 49.2188 -62.1582 49.2188 -60.7422 C 49.2188 -59.3262 50.2441 -58.252 51.6602 -58.252 L 90.7227 -58.252 C 92.1387 -58.252 93.2129 -59.3262 93.2129 -60.7422 C 93.2129 -62.1582 92.1387 -63.2324 90.7227 -63.2324 Z M 96.6309 -53.7598 L 45.752 -53.7598 C 44.2871 -53.7598 43.1152 -52.4902 43.1152 -51.0254 C 43.1152 -49.6094 44.2871 -48.4863 45.752 -48.4863 L 96.6309 -48.4863 C 98.0957 -48.4863 99.2676 -49.6094 99.2676 -51.0254 C 99.2676 -52.4902 98.0957 -53.7598 96.6309 -53.7598 Z M 32.666 -5.0293 C 29.3457 -5.0293 27.6855 -6.49414 27.6855 -10.0586 L 27.6855 -30.8594 L 51.3672 -30.8594 C 54.1504 -23.4863 61.5234 -18.0176 71.1914 -18.0176 C 80.8594 -18.0176 88.2324 -23.4863 91.0156 -30.8594 L 114.697 -30.8594 L 114.697 -10.0586 C 114.697 -6.49414 113.037 -5.0293 109.717 -5.0293 Z"/>
  </g>
  <g id="Bold-M" transform="matrix(1 0 0 1 2269.18 1126)">
   <path d="M 29.8828 9.27734 L 111.719 9.27734 C 122.949 9.27734 129.15 3.125 129.15 -8.00781 L 129.15 -37.0117 C 129.15 -44.2383 128.271 -47.3145 124.951 -51.3672 L 110.449 -69.1406 C 103.906 -77.1484 100.977 -79.6875 91.8457 -79.6875 L 49.707 -79.6875 C 40.5762 -79.6875 37.6953 -77.1484 31.1523 -69.1406 L 16.6504 -51.3672 C 13.3301 -47.2656 12.4512 -44.2383 12.4512 -37.0117 L 12.4512 -8.00781 C 12.4512 3.125 18.6523 9.27734 29.8828 9.27734 Z M 70.8008 -29.7852 C 64.8438 -29.7852 61.3281 -34.8145 61.3281 -39.4043 L 61.3281 -39.5508 C 61.3281 -41.3086 60.2539 -42.8223 57.6172 -42.8223 L 27.7344 -42.8223 C 26.1719 -42.8223 25.8789 -44.1895 26.6602 -45.2148 L 43.457 -65.9668 C 45.2148 -68.2129 47.2168 -69.3359 50.0488 -69.3359 L 91.5527 -69.3359 C 94.3359 -69.3359 96.3379 -68.2129 98.1445 -65.9668 L 114.941 -45.2148 C 115.723 -44.1895 115.43 -42.8223 113.867 -42.8223 L 83.9355 -42.8223 C 81.3477 -42.8223 80.2734 -41.3086 80.2734 -39.5508 L 80.2734 -39.4043 C 80.2734 -34.8145 76.7578 -29.7852 70.8008 -29.7852 Z M 90.6738 -63.1348 L 50.9277 -63.1348 C 49.5605 -63.1348 48.5352 -62.0605 48.5352 -60.6934 C 48.5352 -59.2773 49.5605 -58.2031 50.9277 -58.2031 L 90.6738 -58.2031 C 92.041 -58.2031 93.0664 -59.2773 93.0664 -60.6934 C 93.0664 -62.0605 92.041 -63.1348 90.6738 -63.1348 Z M 96.7773 -53.0762 L 44.8242 -53.0762 C 43.3594 -53.0762 42.2852 -51.8555 42.2852 -50.4395 C 42.2852 -49.0234 43.3594 -47.9004 44.8242 -47.9004 L 96.7773 -47.9004 C 98.1934 -47.9004 99.3164 -49.0234 99.3164 -50.4395 C 99.3164 -51.8555 98.1934 -53.0762 96.7773 -53.0762 Z M 31.0059 -3.75977 C 27.1484 -3.75977 25.1465 -5.61523 25.1465 -9.7168 L 25.1465 -31.6895 L 51.3672 -31.6895 C 53.5645 -23.7305 61.0352 -17.8223 70.8008 -17.8223 C 80.5664 -17.8223 87.9883 -23.7793 90.2344 -31.6895 L 116.455 -31.6895 L 116.455 -9.7168 C 116.455 -5.61523 114.404 -3.75977 110.547 -3.75977 Z"/>
  </g>
  <g id="Semibold-M" transform="matrix(1 0 0 1 1972.76 1126)">
   <path d="M 29.1016 8.30078 L 111.914 8.30078 C 122.803 8.30078 128.564 2.49023 128.564 -8.25195 L 128.564 -37.207 C 128.564 -43.4082 127.832 -46.1426 124.902 -49.707 L 109.521 -68.6035 C 103.271 -76.2695 100.537 -78.6621 91.5527 -78.6621 L 49.4629 -78.6621 C 40.5273 -78.6621 37.7441 -76.2695 31.4941 -68.6035 L 16.1133 -49.707 C 13.2324 -46.1426 12.4512 -43.4082 12.4512 -37.207 L 12.4512 -8.25195 C 12.4512 2.53906 18.2617 8.30078 29.1016 8.30078 Z M 70.5078 -27.9297 C 64.209 -27.9297 60.3516 -33.3008 60.3516 -38.2812 L 60.3516 -38.4766 C 60.3516 -40.332 59.2285 -41.9922 56.6406 -41.9922 L 25.9277 -41.9922 C 24.3652 -41.9922 24.0234 -43.3594 24.8535 -44.3848 L 42.0898 -65.918 C 44.0918 -68.4082 46.3867 -69.5801 49.4629 -69.5801 L 91.5527 -69.5801 C 94.6289 -69.5801 96.9238 -68.4082 98.9258 -65.918 L 116.211 -44.3848 C 116.992 -43.3594 116.699 -41.9922 115.137 -41.9922 L 84.375 -41.9922 C 81.7871 -41.9922 80.6641 -40.332 80.6641 -38.4766 L 80.6641 -38.2812 C 80.6641 -33.3008 76.8066 -27.9297 70.5078 -27.9297 Z M 90.625 -63.0371 L 50.4395 -63.0371 C 49.0723 -63.0371 48.0469 -61.9629 48.0469 -60.5957 C 48.0469 -59.2285 49.0723 -58.2031 50.4395 -58.2031 L 90.625 -58.2031 C 91.9922 -58.2031 93.0176 -59.2285 93.0176 -60.5957 C 93.0176 -61.9629 91.9922 -63.0371 90.625 -63.0371 Z M 96.875 -52.5879 L 44.1895 -52.5879 C 42.7734 -52.5879 41.6504 -51.3672 41.6504 -50 C 41.6504 -48.6328 42.7734 -47.5098 44.1895 -47.5098 L 96.875 -47.5098 C 98.291 -47.5098 99.3652 -48.6328 99.3652 -50 C 99.3652 -51.3672 98.291 -52.5879 96.875 -52.5879 Z M 29.8828 -2.88086 C 25.6348 -2.88086 23.3887 -5.0293 23.3887 -9.47266 L 23.3887 -32.3242 L 51.3184 -32.3242 C 53.1738 -23.9258 60.6934 -17.7246 70.5078 -17.7246 C 80.3223 -17.7246 87.8418 -23.9258 89.6973 -32.3242 L 117.627 -32.3242 L 117.627 -9.47266 C 117.627 -5.0293 115.332 -2.88086 111.133 -2.88086 Z"/>
  </g>
  <g id="Medium-M" transform="matrix(1 0 0 1 1676.24 1126)">
   <path d="M 28.5156 7.51953 L 112.061 7.51953 C 122.656 7.51953 128.174 2.05078 128.174 -8.39844 L 128.174 -37.3535 C 128.174 -42.7734 127.441 -45.2637 124.854 -48.4863 L 108.838 -68.2129 C 102.832 -75.5859 100.146 -77.8809 91.3574 -77.8809 L 49.2676 -77.8809 C 40.4297 -77.8809 37.793 -75.5859 31.7871 -68.2129 L 15.7227 -48.4863 C 13.1836 -45.2637 12.4512 -42.7734 12.4512 -37.3535 L 12.4512 -8.39844 C 12.4512 2.05078 17.9688 7.51953 28.5156 7.51953 Z M 70.3125 -26.5625 C 63.7207 -26.5625 59.6191 -32.1777 59.6191 -37.4512 L 59.6191 -37.6465 C 59.6191 -39.5508 58.4961 -41.3574 55.9082 -41.3574 L 24.5605 -41.3574 C 22.9492 -41.3574 22.6074 -42.7246 23.4375 -43.75 L 41.0645 -65.8691 C 43.2617 -68.6035 45.752 -69.7754 49.0234 -69.7754 L 91.6016 -69.7754 C 94.873 -69.7754 97.3633 -68.6035 99.5117 -65.8691 L 117.188 -43.75 C 117.969 -42.7246 117.676 -41.3574 116.064 -41.3574 L 84.668 -41.3574 C 82.1289 -41.3574 80.957 -39.5508 80.957 -37.6465 L 80.957 -37.4512 C 80.957 -32.1777 76.8555 -26.5625 70.3125 -26.5625 Z M 90.5762 -62.9395 L 50.0488 -62.9395 C 48.6816 -62.9395 47.6562 -61.9141 47.6562 -60.5957 C 47.6562 -59.2285 48.6816 -58.1543 50.0488 -58.1543 L 90.5762 -58.1543 C 91.9434 -58.1543 92.9688 -59.2285 92.9688 -60.5957 C 92.9688 -61.9141 91.9434 -62.9395 90.5762 -62.9395 Z M 96.9238 -52.2461 L 43.7012 -52.2461 C 42.2852 -52.2461 41.2109 -51.0254 41.2109 -49.707 C 41.2109 -48.3398 42.2852 -47.2168 43.7012 -47.2168 L 96.9238 -47.2168 C 98.3398 -47.2168 99.4141 -48.3398 99.4141 -49.707 C 99.4141 -51.0254 98.3398 -52.2461 96.9238 -52.2461 Z M 29.0039 -2.24609 C 24.5117 -2.24609 22.0703 -4.58984 22.0703 -9.27734 L 22.0703 -32.7637 L 51.3184 -32.7637 C 52.8809 -24.0723 60.4492 -17.5781 70.3125 -17.5781 C 80.1758 -17.5781 87.7441 -24.0723 89.3066 -32.7637 L 118.555 -32.7637 L 118.555 -9.27734 C 118.555 -4.58984 116.064 -2.24609 111.572 -2.24609 Z"/>
  </g>
  <g id="Regular-M" transform="matrix(1 0 0 1 1379.82 1126)">
   <path d="M 27.7832 6.49414 L 112.256 6.49414 C 122.51 6.49414 127.588 1.41602 127.588 -8.64258 L 127.588 -37.5488 C 127.588 -41.9434 127.002 -44.1406 124.805 -46.8262 L 107.959 -67.6758 C 102.246 -74.707 99.707 -76.8555 91.0156 -76.8555 L 49.0234 -76.8555 C 40.332 -76.8555 37.8418 -74.707 32.1289 -67.6758 L 15.2344 -46.8262 C 13.0859 -44.1406 12.4512 -41.9434 12.4512 -37.5488 L 12.4512 -8.64258 C 12.4512 1.46484 17.5781 6.49414 27.7832 6.49414 Z M 70.0195 -24.707 C 63.1348 -24.707 58.6914 -30.7129 58.6914 -36.377 L 58.6914 -36.5234 C 58.6914 -38.5742 57.4707 -40.4785 54.9316 -40.4785 L 22.7539 -40.4785 C 21.1426 -40.4785 20.8008 -41.8945 21.6309 -42.9199 L 39.7461 -65.7715 C 42.1387 -68.7988 44.873 -70.0195 48.4375 -70.0195 L 91.6016 -70.0195 C 95.166 -70.0195 97.9004 -68.7988 100.293 -65.7715 L 118.457 -42.9199 C 119.238 -41.8945 118.945 -40.4785 117.334 -40.4785 L 85.1074 -40.4785 C 82.5684 -40.4785 81.3965 -38.5742 81.3965 -36.5234 L 81.3965 -36.377 C 81.3965 -30.7129 76.9531 -24.707 70.0195 -24.707 Z M 90.5762 -62.8418 L 49.5117 -62.8418 C 48.1934 -62.8418 47.168 -61.8164 47.168 -60.498 C 47.168 -59.1797 48.1934 -58.1543 49.5117 -58.1543 L 90.5762 -58.1543 C 91.8945 -58.1543 92.8711 -59.1797 92.8711 -60.498 C 92.8711 -61.8164 91.8945 -62.8418 90.5762 -62.8418 Z M 97.0215 -51.8066 L 43.0176 -51.8066 C 41.6504 -51.8066 40.625 -50.5859 40.625 -49.2676 C 40.625 -47.9492 41.6504 -46.8262 43.0176 -46.8262 L 97.0215 -46.8262 C 98.3887 -46.8262 99.4629 -47.9492 99.4629 -49.2676 C 99.4629 -50.5859 98.3887 -51.8066 97.0215 -51.8066 Z M 27.8809 -1.36719 C 22.998 -1.36719 20.3125 -3.95508 20.3125 -9.0332 L 20.3125 -33.3496 L 51.2695 -33.3496 C 52.4414 -24.2188 60.1074 -17.4805 70.0195 -17.4805 C 79.9316 -17.4805 87.5977 -24.2676 88.7695 -33.3496 L 119.727 -33.3496 L 119.727 -9.0332 C 119.727 -3.95508 116.992 -1.36719 112.158 -1.36719 Z"/>
  </g>
  <g id="Light-M" transform="matrix(1 0 0 1 1083.5 1126)">
   <path d="M 26.8555 5.41992 L 112.402 5.41992 C 121.973 5.41992 126.807 0.585938 126.807 -8.83789 L 126.807 -36.8164 C 126.807 -40.5762 126.27 -42.334 124.463 -44.6777 L 106.104 -67.7246 C 101.123 -73.9746 98.6328 -75.7812 90.8203 -75.7812 L 48.4375 -75.7812 C 40.625 -75.7812 38.1348 -73.9746 33.1543 -67.7246 L 14.7949 -44.6777 C 12.9883 -42.334 12.4512 -40.5762 12.4512 -36.8164 L 12.4512 -8.83789 C 12.4512 0.634766 17.334 5.41992 26.8555 5.41992 Z M 69.6289 -23.5352 C 62.4023 -23.5352 57.4219 -29.541 57.4219 -36.0352 L 57.4219 -36.2793 C 57.4219 -38.0371 56.4453 -39.5508 54.3457 -39.5508 L 20.5566 -39.5508 C 19.2871 -39.5508 18.9941 -40.6738 19.6289 -41.5039 L 39.0625 -66.2109 C 41.4551 -69.2383 44.0918 -70.459 47.9004 -70.459 L 91.3574 -70.459 C 95.166 -70.459 97.8027 -69.2383 100.195 -66.2109 L 119.629 -41.5039 C 120.312 -40.6738 120.02 -39.5508 118.75 -39.5508 L 84.9121 -39.5508 C 82.8125 -39.5508 81.8359 -38.0371 81.8359 -36.2793 L 81.8359 -36.0352 C 81.8359 -29.541 76.8555 -23.5352 69.6289 -23.5352 Z M 90.7227 -62.5977 L 48.584 -62.5977 C 47.4609 -62.5977 46.6309 -61.7676 46.6309 -60.6445 C 46.6309 -59.4727 47.4609 -58.6426 48.584 -58.6426 L 90.7227 -58.6426 C 91.8457 -58.6426 92.6758 -59.4727 92.6758 -60.6445 C 92.6758 -61.7676 91.8457 -62.5977 90.7227 -62.5977 Z M 97.8027 -51.123 L 41.5039 -51.123 C 40.332 -51.123 39.4531 -50.1465 39.4531 -49.0234 C 39.4531 -47.9004 40.332 -47.0215 41.5039 -47.0215 L 97.8027 -47.0215 C 98.9746 -47.0215 99.8535 -47.9004 99.8535 -49.0234 C 99.8535 -50.1465 98.9746 -51.123 97.8027 -51.123 Z M 26.9531 -0.585938 C 21.4844 -0.585938 18.5059 -3.51562 18.5059 -9.13086 L 18.5059 -34.0332 L 51.6602 -34.0332 C 52.4414 -24.6582 60.0098 -17.9688 69.6289 -17.9688 C 79.248 -17.9688 86.8164 -24.707 87.5977 -34.0332 L 120.752 -34.0332 L 120.752 -9.13086 C 120.752 -3.51562 117.676 -0.585938 112.305 -0.585938 Z"/>
  </g>
  <g id="Thin-M" transform="matrix(1 0 0 1 787.33 1126)">
   <path d="M 25.6348 4.05273 L 112.598 4.05273 C 121.24 4.05273 125.732 -0.585938 125.732 -9.08203 L 125.732 -35.8398 C 125.732 -38.6719 125.342 -39.9902 123.926 -41.7969 L 103.711 -67.7734 C 99.6582 -72.9492 97.2168 -74.3164 90.4785 -74.3164 L 47.7051 -74.3164 C 41.0156 -74.3164 38.5742 -72.9492 34.5215 -67.7734 L 14.2578 -41.7969 C 12.8906 -39.9902 12.4512 -38.6719 12.4512 -35.8398 L 12.4512 -9.08203 C 12.4512 -0.488281 16.9922 4.05273 25.6348 4.05273 Z M 69.0918 -22.0215 C 61.4746 -22.0215 55.8105 -28.0273 55.8105 -35.5957 L 55.8105 -35.9375 C 55.8105 -37.3535 55.0293 -38.3301 53.5156 -38.3301 L 17.627 -38.3301 C 16.7969 -38.3301 16.5527 -39.0625 17.041 -39.6973 L 38.1348 -66.7969 C 40.5273 -69.7754 43.0664 -70.9961 47.1191 -70.9961 L 91.0645 -70.9961 C 95.166 -70.9961 97.7051 -69.7754 100.098 -66.7969 L 121.191 -39.6973 C 121.68 -39.0625 121.484 -38.3301 120.654 -38.3301 L 84.668 -38.3301 C 83.1543 -38.3301 82.4219 -37.3535 82.4219 -35.9375 L 82.4219 -35.5957 C 82.4219 -28.0273 76.709 -22.0215 69.0918 -22.0215 Z M 90.918 -62.2559 L 47.3633 -62.2559 C 46.4844 -62.2559 45.8496 -61.6699 45.8496 -60.7422 C 45.8496 -59.8633 46.4844 -59.2773 47.3633 -59.2773 L 90.918 -59.2773 C 91.748 -59.2773 92.4316 -59.8633 92.4316 -60.7422 C 92.4316 -61.6699 91.748 -62.2559 90.918 -62.2559 Z M 98.8281 -50.1953 L 39.4531 -50.1953 C 38.5742 -50.1953 37.9395 -49.5605 37.9395 -48.6816 C 37.9395 -47.8027 38.5742 -47.2168 39.4531 -47.2168 L 98.8281 -47.2168 C 99.6582 -47.2168 100.342 -47.8027 100.342 -48.6816 C 100.342 -49.5605 99.6582 -50.1953 98.8281 -50.1953 Z M 25.7324 0.390625 C 19.3848 0.390625 16.0645 -2.88086 16.0645 -9.27734 L 16.0645 -34.9609 L 52.1484 -34.9609 C 52.4414 -25.2441 59.8633 -18.6035 69.0918 -18.6035 C 78.3203 -18.6035 85.7422 -25.3418 86.0352 -34.9609 L 122.119 -34.9609 L 122.119 -9.27734 C 122.119 -2.88086 118.604 0.390625 112.451 0.390625 Z"/>
  </g>
  <g id="Ultralight-M" transform="matrix(1 0 0 1 490.888 1126)">
   <path d="M 25 3.32031 L 112.695 3.32031 C 120.85 3.32031 125.195 -1.17188 125.195 -9.22852 L 125.195 -35.3516 C 125.195 -37.7441 124.854 -38.7695 123.682 -40.332 L 102.49 -67.7734 C 98.877 -72.4121 96.4844 -73.584 90.332 -73.584 L 47.3145 -73.584 C 41.2109 -73.584 38.7695 -72.4121 35.2051 -67.7734 L 13.9648 -40.332 C 12.8418 -38.7695 12.4512 -37.7441 12.4512 -35.3516 L 12.4512 -9.22852 C 12.4512 -1.02539 16.7969 3.32031 25 3.32031 Z M 68.8477 -21.2402 C 61.0352 -21.2402 54.9316 -27.1973 54.9316 -35.3516 L 54.9316 -35.7422 C 54.9316 -36.9629 54.3457 -37.6953 53.125 -37.6953 L 16.1133 -37.6953 C 15.5273 -37.6953 15.332 -38.2324 15.7227 -38.7207 L 37.6465 -67.0898 C 40.0391 -70.0684 42.5293 -71.2891 46.7773 -71.2891 L 90.918 -71.2891 C 95.166 -71.2891 97.6562 -70.0684 100 -67.0898 L 122.021 -38.7207 C 122.363 -38.2324 122.217 -37.6953 121.582 -37.6953 L 84.5703 -37.6953 C 83.3496 -37.6953 82.7148 -36.9629 82.7148 -35.7422 L 82.7148 -35.3516 C 82.7148 -27.1973 76.6602 -21.2402 68.8477 -21.2402 Z M 91.0645 -62.1094 L 46.7285 -62.1094 C 45.9961 -62.1094 45.459 -61.6211 45.459 -60.8398 C 45.459 -60.0586 45.9961 -59.5703 46.7285 -59.5703 L 91.0645 -59.5703 C 91.748 -59.5703 92.2852 -60.0586 92.2852 -60.8398 C 92.2852 -61.6211 91.748 -62.1094 91.0645 -62.1094 Z M 99.3652 -49.7559 L 38.4277 -49.7559 C 37.6953 -49.7559 37.1094 -49.2676 37.1094 -48.5352 C 37.1094 -47.8027 37.6953 -47.3145 38.4277 -47.3145 L 99.3652 -47.3145 C 100.049 -47.3145 100.586 -47.8027 100.586 -48.5352 C 100.586 -49.2676 100.049 -49.7559 99.3652 -49.7559 Z M 25.0977 0.927734 C 18.3594 0.927734 14.8438 -2.58789 14.8438 -9.32617 L 14.8438 -35.4004 L 52.4414 -35.4004 C 52.4414 -25.5859 59.8145 -18.9453 68.8477 -18.9453 C 77.832 -18.9453 85.2051 -25.6836 85.2539 -35.4004 L 122.803 -35.4004 L 122.803 -9.32617 C 122.803 -2.58789 119.043 0.927734 112.549 0.927734 Z"/>
  </g>
  <g id="Black-S" transform="matrix(1 0 0 1 2877.35 696)">
   <path d="M 25 1.75781 L 87.1094 1.75781 C 96.6797 1.75781 102.344 -3.90625 102.344 -13.4766 L 102.344 -36.2793 C 102.344 -43.9941 101.514 -47.0703 97.998 -51.3184 L 88.4277 -62.8906 C 82.666 -69.873 80.127 -72.168 72.6074 -72.168 L 39.502 -72.168 C 31.9824 -72.168 29.4434 -69.873 23.6816 -62.8906 L 14.1113 -51.3184 C 10.6445 -47.0215 9.76562 -43.9941 9.76562 -36.2793 L 9.76562 -13.4766 C 9.76562 -3.90625 15.4297 1.75781 25 1.75781 Z M 56.0547 -34.7656 C 52.0996 -34.7656 50.0488 -37.9883 50.0488 -40.7715 L 50.0488 -40.8691 C 50.0488 -42.041 49.3164 -42.9688 47.168 -42.9688 L 25.4883 -42.9688 C 24.3164 -42.9688 24.0723 -43.9941 24.707 -44.7754 L 36.8164 -59.4727 C 37.7441 -60.5957 38.7695 -61.4258 40.4297 -61.4258 L 71.6797 -61.4258 C 73.3398 -61.4258 74.3652 -60.5957 75.293 -59.4727 L 87.4023 -44.7754 C 88.0371 -43.9941 87.793 -42.9688 86.6211 -42.9688 L 64.9414 -42.9688 C 62.793 -42.9688 62.0605 -42.041 62.0605 -40.8691 L 62.0605 -40.7715 C 62.0605 -37.9883 60.0098 -34.7656 56.0547 -34.7656 Z M 71.1426 -57.2754 L 40.9668 -57.2754 C 39.8438 -57.2754 39.0137 -56.3965 39.0137 -55.2734 C 39.0137 -54.1504 39.8438 -53.2715 40.9668 -53.2715 L 71.1426 -53.2715 C 72.2656 -53.2715 73.0957 -54.1504 73.0957 -55.2734 C 73.0957 -56.3965 72.2656 -57.2754 71.1426 -57.2754 Z M 75.6348 -50.1953 L 36.4746 -50.1953 C 35.3027 -50.1953 34.375 -49.1699 34.375 -47.998 C 34.375 -46.875 35.3027 -45.9473 36.4746 -45.9473 L 75.6348 -45.9473 C 76.8066 -45.9473 77.7344 -46.875 77.7344 -47.998 C 77.7344 -49.1699 76.8066 -50.1953 75.6348 -50.1953 Z M 26.6602 -12.4023 C 24.4141 -12.4023 23.3398 -13.2812 23.3398 -15.7227 L 23.3398 -31.25 L 40.2832 -31.25 C 42.8223 -25.8789 48.5352 -21.875 56.0547 -21.875 C 63.5742 -21.875 69.2871 -25.8789 71.8262 -31.25 L 88.7695 -31.25 L 88.7695 -15.7227 C 88.7695 -13.2812 87.6953 -12.4023 85.4492 -12.4023 Z"/>
  </g>
  <g id="Heavy-S" transform="matrix(1 0 0 1 2580.88 696)">
   <path d="M 24.3652 0.878906 L 87.3047 0.878906 C 96.582 0.878906 101.855 -4.44336 101.855 -13.6719 L 101.855 -36.5234 C 101.855 -43.3105 101.123 -46.1426 97.998 -49.9023 L 87.7441 -62.3535 C 82.1777 -69.0918 79.7852 -71.2891 72.3145 -71.2891 L 39.3066 -71.2891 C 31.8848 -71.2891 29.4434 -69.0918 23.9258 -62.3535 L 13.623 -49.9023 C 10.5469 -46.0938 9.76562 -43.3105 9.76562 -36.5234 L 9.76562 -13.6719 C 9.76562 -4.44336 15.0879 0.878906 24.3652 0.878906 Z M 55.8105 -33.0566 C 51.5625 -33.0566 49.2188 -36.6211 49.2188 -39.6973 L 49.2188 -39.7949 C 49.2188 -41.1133 48.4375 -42.2363 46.2891 -42.2363 L 23.9258 -42.2363 C 22.7051 -42.2363 22.4609 -43.3105 23.0957 -44.0918 L 35.5469 -59.3262 C 36.7188 -60.791 38.0371 -61.6211 39.8926 -61.6211 L 71.7285 -61.6211 C 73.6328 -61.6211 74.9512 -60.791 76.0742 -59.3262 L 88.5254 -44.0918 C 89.209 -43.3105 88.916 -42.2363 87.6953 -42.2363 L 65.3809 -42.2363 C 63.2324 -42.2363 62.4023 -41.1133 62.4023 -39.7949 L 62.4023 -39.6973 C 62.4023 -36.6211 60.1074 -33.0566 55.8105 -33.0566 Z M 71.0938 -57.2266 L 40.5762 -57.2266 C 39.4531 -57.2266 38.623 -56.3477 38.623 -55.2246 C 38.623 -54.1016 39.4531 -53.1738 40.5762 -53.1738 L 71.0938 -53.1738 C 72.2168 -53.1738 73.0469 -54.1016 73.0469 -55.2246 C 73.0469 -56.3477 72.2168 -57.2266 71.0938 -57.2266 Z M 75.6348 -49.8047 L 35.9863 -49.8047 C 34.8145 -49.8047 33.8867 -48.7793 33.8867 -47.6074 C 33.8867 -46.4844 34.8145 -45.5566 35.9863 -45.5566 L 75.6348 -45.5566 C 76.8066 -45.5566 77.7344 -46.4844 77.7344 -47.6074 C 77.7344 -48.7793 76.8066 -49.8047 75.6348 -49.8047 Z M 25.6348 -11.6211 C 23.0957 -11.6211 21.7773 -12.7441 21.7773 -15.4785 L 21.7773 -31.7383 L 40.2344 -31.7383 C 42.4316 -25.9766 48.1934 -21.6797 55.8105 -21.6797 C 63.4277 -21.6797 69.2383 -25.9766 71.4355 -31.7383 L 89.8438 -31.7383 L 89.8438 -15.4785 C 89.8438 -12.7441 88.5742 -11.6211 85.9863 -11.6211 Z"/>
  </g>
  <g id="Bold-S" transform="matrix(1 0 0 1 2284.41 696)">
   <path d="M 23.6328 -0.146484 L 87.5 -0.146484 C 96.4844 -0.146484 101.367 -4.98047 101.367 -13.8672 L 101.367 -36.8164 C 101.367 -42.5781 100.684 -45.0684 97.998 -48.3398 L 86.9629 -61.7676 C 81.6406 -68.2129 79.3945 -70.2637 72.0215 -70.2637 L 39.1113 -70.2637 C 31.7383 -70.2637 29.4922 -68.2129 24.1699 -61.7676 L 13.1348 -48.3398 C 10.4492 -45.0684 9.76562 -42.5781 9.76562 -36.8164 L 9.76562 -13.8672 C 9.76562 -4.98047 14.6973 -0.146484 23.6328 -0.146484 Z M 55.5664 -31.1523 C 50.9277 -31.1523 48.3398 -35.1074 48.3398 -38.5254 L 48.3398 -38.623 C 48.3398 -40.0879 47.4121 -41.4062 45.2637 -41.4062 L 22.2168 -41.4062 C 20.8984 -41.4062 20.6543 -42.5293 21.2891 -43.3594 L 34.1309 -59.2285 C 35.5469 -60.9863 37.1582 -61.8652 39.3555 -61.8652 L 71.7773 -61.8652 C 73.9746 -61.8652 75.5371 -60.9863 76.9531 -59.2285 L 89.7949 -43.3594 C 90.4785 -42.5293 90.2344 -41.4062 88.916 -41.4062 L 65.8691 -41.4062 C 63.6719 -41.4062 62.793 -40.0879 62.793 -38.623 L 62.793 -38.5254 C 62.793 -35.1074 60.1562 -31.1523 55.5664 -31.1523 Z M 70.9961 -57.1289 L 40.1367 -57.1289 C 38.9648 -57.1289 38.1348 -56.25 38.1348 -55.127 C 38.1348 -54.0039 38.9648 -53.125 40.1367 -53.125 L 70.9961 -53.125 C 72.1191 -53.125 72.998 -54.0039 72.998 -55.127 C 72.998 -56.25 72.1191 -57.1289 70.9961 -57.1289 Z M 75.6348 -49.3652 L 35.498 -49.3652 C 34.2773 -49.3652 33.3984 -48.3398 33.3984 -47.168 C 33.3984 -46.0449 34.2773 -45.1172 35.498 -45.1172 L 75.6348 -45.1172 C 76.8066 -45.1172 77.7344 -46.0449 77.7344 -47.168 C 77.7344 -48.3398 76.8066 -49.3652 75.6348 -49.3652 Z M 24.5117 -10.7422 C 21.6309 -10.7422 20.0684 -12.1094 20.0684 -15.1855 L 20.0684 -32.3242 L 40.1367 -32.3242 C 41.9922 -26.123 47.8516 -21.4844 55.5664 -21.4844 C 63.2812 -21.4844 69.1406 -26.123 70.9961 -32.3242 L 91.0645 -32.3242 L 91.0645 -15.1855 C 91.0645 -12.1094 89.502 -10.7422 86.6211 -10.7422 Z"/>
  </g>
  <g id="Semibold-S" transform="matrix(1 0 0 1 1987.9 696)">
   <path d="M 23.0957 -0.830078 L 87.6465 -0.830078 C 96.3867 -0.830078 100.977 -5.41992 100.977 -14.0137 L 100.977 -37.0117 C 100.977 -42.0898 100.391 -44.3359 97.998 -47.2656 L 86.4258 -61.377 C 81.2988 -67.5781 79.1016 -69.5801 71.8262 -69.5801 L 38.9648 -69.5801 C 31.6406 -69.5801 29.4922 -67.5781 24.3652 -61.377 L 12.793 -47.2656 C 10.4004 -44.3359 9.76562 -42.0898 9.76562 -37.0117 L 9.76562 -14.0137 C 9.76562 -5.37109 14.4043 -0.830078 23.0957 -0.830078 Z M 55.3711 -29.834 C 50.5371 -29.834 47.7051 -34.082 47.7051 -37.6953 L 47.7051 -37.793 C 47.7051 -39.3555 46.7285 -40.8203 44.5801 -40.8203 L 20.9961 -40.8203 C 19.6777 -40.8203 19.3848 -41.9922 20.0684 -42.8223 L 33.2031 -59.1309 C 34.7656 -61.084 36.5723 -62.0117 38.916 -62.0117 L 71.8262 -62.0117 C 74.1699 -62.0117 75.9766 -61.084 77.5879 -59.1309 L 90.6738 -42.8223 C 91.3574 -41.9922 91.1133 -40.8203 89.7461 -40.8203 L 66.2109 -40.8203 C 64.0137 -40.8203 63.0859 -39.3555 63.0859 -37.793 L 63.0859 -37.6953 C 63.0859 -34.082 60.2539 -29.834 55.3711 -29.834 Z M 70.9473 -57.0801 L 39.7949 -57.0801 C 38.6719 -57.0801 37.8418 -56.2012 37.8418 -55.0781 C 37.8418 -53.9551 38.6719 -53.0762 39.7949 -53.0762 L 70.9473 -53.0762 C 72.0703 -53.0762 72.9492 -53.9551 72.9492 -55.0781 C 72.9492 -56.2012 72.0703 -57.0801 70.9473 -57.0801 Z M 75.6348 -49.0723 L 35.1074 -49.0723 C 33.9355 -49.0723 33.0078 -48.0469 33.0078 -46.875 C 33.0078 -45.752 33.9355 -44.7754 35.1074 -44.7754 L 75.6348 -44.7754 C 76.8555 -44.7754 77.7344 -45.752 77.7344 -46.875 C 77.7344 -48.0469 76.8555 -49.0723 75.6348 -49.0723 Z M 23.6816 -10.1074 C 20.6055 -10.1074 18.8965 -11.7188 18.8965 -14.9902 L 18.8965 -32.7148 L 40.0879 -32.7148 C 41.6504 -26.2207 47.6074 -21.3379 55.3711 -21.3379 C 63.1836 -21.3379 69.0918 -26.2207 70.6543 -32.7148 L 91.8945 -32.7148 L 91.8945 -14.9902 C 91.8945 -11.7188 90.1855 -10.1074 87.0605 -10.1074 Z"/>
  </g>
  <g id="Medium-S" transform="matrix(1 0 0 1 1691.31 696)">
   <path d="M 22.7051 -1.31836 L 87.7441 -1.31836 C 96.3379 -1.31836 100.732 -5.71289 100.732 -14.1602 L 100.732 -37.207 C 100.732 -41.6992 100.146 -43.7988 97.998 -46.4355 L 85.9863 -61.0352 C 81.0059 -67.1387 78.9062 -69.043 71.6797 -69.043 L 38.8184 -69.043 C 31.5918 -69.043 29.4922 -67.1387 24.5117 -61.0352 L 12.5 -46.4355 C 10.3516 -43.7988 9.76562 -41.6992 9.76562 -37.207 L 9.76562 -14.1602 C 9.76562 -5.71289 14.209 -1.31836 22.7051 -1.31836 Z M 55.2246 -28.8574 C 50.1953 -28.8574 47.2168 -33.252 47.2168 -37.1094 L 47.2168 -37.207 C 47.2168 -38.8184 46.2402 -40.3809 44.043 -40.3809 L 20.0684 -40.3809 C 18.7012 -40.3809 18.457 -41.5527 19.1406 -42.4316 L 32.4219 -59.0332 C 34.1797 -61.2305 36.1328 -62.1094 38.623 -62.1094 L 71.8262 -62.1094 C 74.3652 -62.1094 76.3184 -61.2305 78.0273 -59.0332 L 91.3574 -42.4316 C 92.041 -41.5527 91.7969 -40.3809 90.4297 -40.3809 L 66.4551 -40.3809 C 64.2578 -40.3809 63.2812 -38.8184 63.2812 -37.207 L 63.2812 -37.1094 C 63.2812 -33.252 60.2539 -28.8574 55.2246 -28.8574 Z M 70.9473 -57.0312 L 39.5508 -57.0312 C 38.4277 -57.0312 37.5977 -56.1523 37.5977 -55.0293 C 37.5977 -53.9062 38.4277 -53.0273 39.5508 -53.0273 L 70.9473 -53.0273 C 72.0703 -53.0273 72.9004 -53.9062 72.9004 -55.0293 C 72.9004 -56.1523 72.0703 -57.0312 70.9473 -57.0312 Z M 75.6348 -48.8281 L 34.8145 -48.8281 C 33.6426 -48.8281 32.7637 -47.8027 32.7637 -46.6309 C 32.7637 -45.5078 33.6426 -44.5801 34.8145 -44.5801 L 75.6348 -44.5801 C 76.8555 -44.5801 77.7344 -45.5078 77.7344 -46.6309 C 77.7344 -47.8027 76.8555 -48.8281 75.6348 -48.8281 Z M 23.0957 -9.66797 C 19.8242 -9.66797 17.9688 -11.377 17.9688 -14.8438 L 17.9688 -33.0078 L 40.0391 -33.0078 C 41.4062 -26.3184 47.4121 -21.2402 55.2246 -21.2402 C 63.0859 -21.2402 69.043 -26.3184 70.459 -33.0078 L 92.4805 -33.0078 L 92.4805 -14.8438 C 92.4805 -11.377 90.6738 -9.66797 87.4023 -9.66797 Z"/>
  </g>
  <g id="Regular-S" transform="matrix(1 0 0 1 1394.79 696)">
   <path d="M 22.2168 -2.00195 L 87.8906 -2.00195 C 96.2402 -2.00195 100.342 -6.10352 100.342 -14.3066 L 100.342 -37.4023 C 100.342 -41.2109 99.8535 -43.0664 97.998 -45.3613 L 85.4492 -60.6445 C 80.6152 -66.5527 78.6621 -68.4082 71.4355 -68.4082 L 38.6719 -68.4082 C 31.4941 -68.4082 29.4922 -66.5527 24.6582 -60.6445 L 12.1582 -45.3613 C 10.3027 -43.0664 9.76562 -41.2109 9.76562 -37.4023 L 9.76562 -14.3066 C 9.76562 -6.10352 13.916 -2.00195 22.2168 -2.00195 Z M 55.0781 -27.5391 C 49.8047 -27.5391 46.582 -32.2266 46.582 -36.2793 L 46.582 -36.377 C 46.582 -38.0859 45.5566 -39.7949 43.3594 -39.7949 L 18.8965 -39.7949 C 17.4805 -39.7949 17.1875 -41.0156 17.9199 -41.9434 L 31.4941 -58.9355 C 33.3984 -61.3281 35.5469 -62.2559 38.2324 -62.2559 L 71.875 -62.2559 C 74.5605 -62.2559 76.7578 -61.3281 78.6621 -58.9355 L 92.2363 -41.9434 C 92.9199 -41.0156 92.627 -39.7949 91.2598 -39.7949 L 66.748 -39.7949 C 64.5996 -39.7949 63.5254 -38.0859 63.5254 -36.377 L 63.5254 -36.2793 C 63.5254 -32.2266 60.3516 -27.5391 55.0781 -27.5391 Z M 70.8984 -56.9824 L 39.2578 -56.9824 C 38.1348 -56.9824 37.2559 -56.1035 37.2559 -54.9805 C 37.2559 -53.8574 38.1348 -52.9785 39.2578 -52.9785 L 70.8984 -52.9785 C 72.0215 -52.9785 72.8516 -53.8574 72.8516 -54.9805 C 72.8516 -56.1035 72.0215 -56.9824 70.8984 -56.9824 Z M 75.6348 -48.5352 L 34.4727 -48.5352 C 33.3008 -48.5352 32.373 -47.5098 32.373 -46.3379 C 32.373 -45.2148 33.3008 -44.2383 34.4727 -44.2383 L 75.6348 -44.2383 C 76.8555 -44.2383 77.7344 -45.2148 77.7344 -46.3379 C 77.7344 -47.5098 76.8555 -48.5352 75.6348 -48.5352 Z M 22.3145 -9.08203 C 18.7988 -9.08203 16.7969 -10.9863 16.7969 -14.6484 L 16.7969 -33.3984 L 39.9902 -33.3984 C 41.1133 -26.3672 47.168 -21.0938 55.0781 -21.0938 C 62.9883 -21.0938 68.9941 -26.416 70.1172 -33.3984 L 93.3105 -33.3984 L 93.3105 -14.6484 C 93.3105 -10.9863 91.3086 -9.08203 87.793 -9.08203 Z"/>
  </g>
  <g id="Light-S" transform="matrix(1 0 0 1 1098.42 696)">
   <path d="M 21.3867 -2.97852 L 88.0371 -2.97852 C 95.752 -2.97852 99.6582 -6.83594 99.6582 -14.4531 L 99.6582 -36.7188 C 99.6582 -39.9414 99.2188 -41.5039 97.6562 -43.457 L 83.8379 -60.6934 C 79.6387 -65.8691 77.6855 -67.4316 71.2402 -67.4316 L 38.1836 -67.4316 C 31.7383 -67.4316 29.7852 -65.8691 25.5859 -60.6934 L 11.7676 -43.457 C 10.2051 -41.5039 9.76562 -39.9414 9.76562 -36.7188 L 9.76562 -14.4531 C 9.76562 -6.83594 13.6719 -2.97852 21.3867 -2.97852 Z M 54.7363 -26.5137 C 49.1699 -26.5137 45.5078 -31.2012 45.5078 -35.9863 L 45.5078 -36.1328 C 45.5078 -37.6465 44.6289 -38.9648 42.8223 -38.9648 L 16.9434 -38.9648 C 15.8203 -38.9648 15.5762 -39.9414 16.1621 -40.6738 L 30.8594 -59.3262 C 32.7637 -61.7188 34.8633 -62.6465 37.7441 -62.6465 L 71.6797 -62.6465 C 74.5605 -62.6465 76.6602 -61.7188 78.5645 -59.3262 L 93.2617 -40.6738 C 93.8477 -39.9414 93.6035 -38.9648 92.4805 -38.9648 L 66.6016 -38.9648 C 64.7949 -38.9648 63.9648 -37.6465 63.9648 -36.1328 L 63.9648 -35.9863 C 63.9648 -31.2012 60.2539 -26.5137 54.7363 -26.5137 Z M 71.0449 -56.7871 L 38.4277 -56.7871 C 37.4512 -56.7871 36.7676 -56.0547 36.7676 -55.0781 C 36.7676 -54.1016 37.4512 -53.3691 38.4277 -53.3691 L 71.0449 -53.3691 C 71.9727 -53.3691 72.7051 -54.1016 72.7051 -55.0781 C 72.7051 -56.0547 71.9727 -56.7871 71.0449 -56.7871 Z M 76.3672 -47.9492 L 33.1055 -47.9492 C 32.1289 -47.9492 31.3477 -47.0703 31.3477 -46.1426 C 31.3477 -45.166 32.1289 -44.3848 33.1055 -44.3848 L 76.3672 -44.3848 C 77.3438 -44.3848 78.0762 -45.166 78.0762 -46.1426 C 78.0762 -47.0703 77.3438 -47.9492 76.3672 -47.9492 Z M 21.4844 -8.39844 C 17.4316 -8.39844 15.1855 -10.5469 15.1855 -14.7461 L 15.1855 -34.0332 L 40.332 -34.0332 C 41.1133 -26.8066 47.0703 -21.5332 54.7363 -21.5332 C 62.3535 -21.5332 68.3105 -26.8066 69.0918 -34.0332 L 94.2383 -34.0332 L 94.2383 -14.7461 C 94.2383 -10.5469 91.9434 -8.39844 87.9395 -8.39844 Z"/>
  </g>
  <g id="Thin-S" transform="matrix(1 0 0 1 802.174 696)">
   <path d="M 20.3125 -4.19922 L 88.1836 -4.19922 C 95.1172 -4.19922 98.7305 -7.86133 98.7305 -14.6973 L 98.7305 -35.8887 C 98.7305 -38.2812 98.3887 -39.4043 97.2168 -40.918 L 81.7383 -60.6934 C 78.3691 -64.9902 76.416 -66.1621 70.9961 -66.1621 L 37.5488 -66.1621 C 32.0801 -66.1621 30.127 -64.9902 26.7578 -60.6934 L 11.2793 -40.918 C 10.1074 -39.4043 9.76562 -38.2812 9.76562 -35.8887 L 9.76562 -14.6973 C 9.76562 -7.76367 13.3789 -4.19922 20.3125 -4.19922 Z M 54.248 -25.1953 C 48.3887 -25.1953 44.043 -29.8828 44.043 -35.5957 L 44.043 -35.8398 C 44.043 -37.0117 43.4082 -37.8906 42.0898 -37.8906 L 14.3555 -37.8906 C 13.623 -37.8906 13.4766 -38.5254 13.8672 -39.0625 L 30.0781 -59.8145 C 31.9336 -62.207 33.9355 -63.1348 37.1094 -63.1348 L 71.4355 -63.1348 C 74.5605 -63.1348 76.5625 -62.207 78.4668 -59.8145 L 94.6777 -39.0625 C 95.0684 -38.5254 94.873 -37.8906 94.1406 -37.8906 L 66.4062 -37.8906 C 65.0879 -37.8906 64.4531 -37.0117 64.4531 -35.8398 L 64.4531 -35.5957 C 64.4531 -29.8828 60.1562 -25.1953 54.248 -25.1953 Z M 71.1914 -56.4941 L 37.3535 -56.4941 C 36.6211 -56.4941 36.084 -55.957 36.084 -55.1758 C 36.084 -54.4434 36.6211 -53.9551 37.3535 -53.9551 L 71.1914 -53.9551 C 71.9238 -53.9551 72.4609 -54.4434 72.4609 -55.1758 C 72.4609 -55.957 71.9238 -56.4941 71.1914 -56.4941 Z M 77.2461 -47.1191 L 31.2988 -47.1191 C 30.5664 -47.1191 30.0293 -46.582 30.0293 -45.8496 C 30.0293 -45.1172 30.5664 -44.5801 31.2988 -44.5801 L 77.2461 -44.5801 C 77.9785 -44.5801 78.5156 -45.1172 78.5156 -45.8496 C 78.5156 -46.582 77.9785 -47.1191 77.2461 -47.1191 Z M 20.4102 -7.51953 C 15.625 -7.51953 13.0859 -10.0098 13.0859 -14.8438 L 13.0859 -34.8145 L 40.7715 -34.8145 C 41.1133 -27.2949 46.9727 -22.0703 54.248 -22.0703 C 61.5723 -22.0703 67.3828 -27.3926 67.7246 -34.8145 L 95.4102 -34.8145 L 95.4102 -14.8438 C 95.4102 -10.0098 92.7246 -7.51953 88.0859 -7.51953 Z"/>
  </g>
  <g id="Ultralight-S" transform="matrix(1 0 0 1 505.707 696)">
   <path d="M 19.7754 -4.83398 L 88.2812 -4.83398 C 94.8242 -4.83398 98.2422 -8.39844 98.2422 -14.7949 L 98.2422 -35.4492 C 98.2422 -37.4512 97.9492 -38.3301 96.9727 -39.5996 L 80.6152 -60.7422 C 77.6855 -64.502 75.7812 -65.4785 70.8496 -65.4785 L 37.207 -65.4785 C 32.2266 -65.4785 30.3223 -64.502 27.3926 -60.7422 L 11.0352 -39.5996 C 10.0586 -38.3301 9.76562 -37.4512 9.76562 -35.4492 L 9.76562 -14.7949 C 9.76562 -8.30078 13.2324 -4.83398 19.7754 -4.83398 Z M 54.0039 -24.4629 C 47.9492 -24.4629 43.3105 -29.1504 43.3105 -35.4004 L 43.3105 -35.6934 C 43.3105 -36.6699 42.7734 -37.3535 41.748 -37.3535 L 13.0371 -37.3535 C 12.5 -37.3535 12.3535 -37.793 12.6953 -38.2324 L 29.6387 -60.1074 C 31.4941 -62.4512 33.4473 -63.4277 36.7676 -63.4277 L 71.2891 -63.4277 C 74.5605 -63.4277 76.5137 -62.4512 78.3691 -60.1074 L 95.4102 -38.2324 C 95.7031 -37.793 95.5566 -37.3535 95.0195 -37.3535 L 66.3086 -37.3535 C 65.2344 -37.3535 64.7461 -36.6699 64.7461 -35.6934 L 64.7461 -35.4004 C 64.7461 -29.1504 60.0586 -24.4629 54.0039 -24.4629 Z M 71.3379 -56.3477 L 36.8164 -56.3477 C 36.1816 -56.3477 35.7422 -55.9082 35.7422 -55.2734 C 35.7422 -54.6387 36.1816 -54.248 36.8164 -54.248 L 71.3379 -54.248 C 71.875 -54.248 72.3633 -54.6387 72.3633 -55.2734 C 72.3633 -55.9082 71.875 -56.3477 71.3379 -56.3477 Z M 77.7344 -46.7285 L 30.3711 -46.7285 C 29.7852 -46.7285 29.2969 -46.2891 29.2969 -45.7031 C 29.2969 -45.0684 29.7852 -44.6777 30.3711 -44.6777 L 77.7344 -44.6777 C 78.2715 -44.6777 78.7598 -45.0684 78.7598 -45.7031 C 78.7598 -46.2891 78.2715 -46.7285 77.7344 -46.7285 Z M 19.873 -7.03125 C 14.6484 -7.03125 11.9629 -9.7168 11.9629 -14.9414 L 11.9629 -35.2539 L 41.0156 -35.2539 C 41.1133 -27.5879 46.875 -22.4121 54.0039 -22.4121 C 61.1328 -22.4121 66.8945 -27.6855 66.9922 -35.2539 L 96.0449 -35.2539 L 96.0449 -14.9414 C 96.0449 -9.7168 93.1641 -7.03125 88.1836 -7.03125 Z"/>
  </g>
 </g>
</svg>
