<?xml version="1.0" encoding="UTF-8"?>
<!--Generator: Apple Native CoreSVG 123-->
<!DOCTYPE svg
PUBLIC "-//W3C//DTD SVG 1.1//EN"
       "http://www.w3.org/Graphics/SVG/1.1/DTD/svg11.dtd">
<svg version="1.1" xmlns="http://www.w3.org/2000/svg" xmlns:xlink="http://www.w3.org/1999/xlink" width="3300" height="2200">
 <!--glyph: "uni100229.medium", point size: 100.000000, font version: "Version 15.0d7e11", template writer version: "5"-->
 <g id="Notes">
  <rect height="2200" id="artboard" style="fill:white;opacity:1" width="3300" x="0" y="0"/>
  <line id="" style="fill:none;stroke:black;opacity:1;stroke-width:0.5;" x1="263" x2="3036" y1="292" y2="292"/>
  <text style="stroke:none;fill:black;font-family:-apple-system,&quot;SF Pro Display&quot;,&quot;SF Pro Text&quot;,Helvetica,sans-serif;font-weight:bold;" transform="matrix(1 0 0 1 263 322)">Weight/Scale Variations</text>
  <text style="stroke:none;fill:black;font-family:-apple-system,&quot;SF Pro Display&quot;,&quot;SF Pro Text&quot;,Helvetica,sans-serif;text-anchor:middle;" transform="matrix(1 0 0 1 559.711 322)">Ultralight</text>
  <text style="stroke:none;fill:black;font-family:-apple-system,&quot;SF Pro Display&quot;,&quot;SF Pro Text&quot;,Helvetica,sans-serif;text-anchor:middle;" transform="matrix(1 0 0 1 856.422 322)">Thin</text>
  <text style="stroke:none;fill:black;font-family:-apple-system,&quot;SF Pro Display&quot;,&quot;SF Pro Text&quot;,Helvetica,sans-serif;text-anchor:middle;" transform="matrix(1 0 0 1 1153.13 322)">Light</text>
  <text style="stroke:none;fill:black;font-family:-apple-system,&quot;SF Pro Display&quot;,&quot;SF Pro Text&quot;,Helvetica,sans-serif;text-anchor:middle;" transform="matrix(1 0 0 1 1449.84 322)">Regular</text>
  <text style="stroke:none;fill:black;font-family:-apple-system,&quot;SF Pro Display&quot;,&quot;SF Pro Text&quot;,Helvetica,sans-serif;text-anchor:middle;" transform="matrix(1 0 0 1 1746.56 322)">Medium</text>
  <text style="stroke:none;fill:black;font-family:-apple-system,&quot;SF Pro Display&quot;,&quot;SF Pro Text&quot;,Helvetica,sans-serif;text-anchor:middle;" transform="matrix(1 0 0 1 2043.27 322)">Semibold</text>
  <text style="stroke:none;fill:black;font-family:-apple-system,&quot;SF Pro Display&quot;,&quot;SF Pro Text&quot;,Helvetica,sans-serif;text-anchor:middle;" transform="matrix(1 0 0 1 2339.98 322)">Bold</text>
  <text style="stroke:none;fill:black;font-family:-apple-system,&quot;SF Pro Display&quot;,&quot;SF Pro Text&quot;,Helvetica,sans-serif;text-anchor:middle;" transform="matrix(1 0 0 1 2636.69 322)">Heavy</text>
  <text style="stroke:none;fill:black;font-family:-apple-system,&quot;SF Pro Display&quot;,&quot;SF Pro Text&quot;,Helvetica,sans-serif;text-anchor:middle;" transform="matrix(1 0 0 1 2933.4 322)">Black</text>
  <line id="" style="fill:none;stroke:black;opacity:1;stroke-width:0.5;" x1="263" x2="3036" y1="1903" y2="1903"/>
  <g id="" transform="matrix(1 0 0 1 263 1933)">
   <path d="M 9.24805 0.830078 C 13.5547 0.830078 17.1387 -2.74414 17.1387 -7.05078 C 17.1387 -11.3574 13.5449 -14.9316 9.23828 -14.9316 C 4.94141 -14.9316 1.36719 -11.3574 1.36719 -7.05078 C 1.36719 -2.74414 4.95117 0.830078 9.24805 0.830078 Z M 9.24805 -0.654297 C 5.70312 -0.654297 2.87109 -3.49609 2.87109 -7.05078 C 2.87109 -10.6055 5.69336 -13.4473 9.23828 -13.4473 C 12.793 -13.4473 15.6348 -10.6055 15.6445 -7.05078 C 15.6543 -3.49609 12.8027 -0.654297 9.24805 -0.654297 Z M 9.22852 -3.42773 C 9.69727 -3.42773 9.9707 -3.74023 9.9707 -4.25781 L 9.9707 -6.31836 L 12.1973 -6.31836 C 12.6953 -6.31836 13.0371 -6.57227 13.0371 -7.04102 C 13.0371 -7.51953 12.7148 -7.7832 12.1973 -7.7832 L 9.9707 -7.7832 L 9.9707 -10.0098 C 9.9707 -10.5273 9.69727 -10.8496 9.22852 -10.8496 C 8.75977 -10.8496 8.50586 -10.5078 8.50586 -10.0098 L 8.50586 -7.7832 L 6.29883 -7.7832 C 5.78125 -7.7832 5.44922 -7.51953 5.44922 -7.04102 C 5.44922 -6.57227 5.80078 -6.31836 6.29883 -6.31836 L 8.50586 -6.31836 L 8.50586 -4.25781 C 8.50586 -3.75977 8.75977 -3.42773 9.22852 -3.42773 Z"/>
  </g>
  <g id="" transform="matrix(1 0 0 1 281.506 1933)">
   <path d="M 11.709 2.91016 C 17.1582 2.91016 21.6699 -1.60156 21.6699 -7.05078 C 21.6699 -12.4902 17.1484 -17.0117 11.6992 -17.0117 C 6.25977 -17.0117 1.74805 -12.4902 1.74805 -7.05078 C 1.74805 -1.60156 6.26953 2.91016 11.709 2.91016 Z M 11.709 1.25 C 7.09961 1.25 3.41797 -2.44141 3.41797 -7.05078 C 3.41797 -11.6504 7.08984 -15.3516 11.6992 -15.3516 C 16.3086 -15.3516 20 -11.6504 20.0098 -7.05078 C 20.0195 -2.44141 16.3184 1.25 11.709 1.25 Z M 11.6895 -2.41211 C 12.207 -2.41211 12.5195 -2.77344 12.5195 -3.33984 L 12.5195 -6.23047 L 15.5762 -6.23047 C 16.123 -6.23047 16.5039 -6.51367 16.5039 -7.03125 C 16.5039 -7.55859 16.1426 -7.86133 15.5762 -7.86133 L 12.5195 -7.86133 L 12.5195 -10.9277 C 12.5195 -11.5039 12.207 -11.8555 11.6895 -11.8555 C 11.1719 -11.8555 10.8789 -11.4844 10.8789 -10.9277 L 10.8789 -7.86133 L 7.83203 -7.86133 C 7.26562 -7.86133 6.89453 -7.55859 6.89453 -7.03125 C 6.89453 -6.51367 7.28516 -6.23047 7.83203 -6.23047 L 10.8789 -6.23047 L 10.8789 -3.33984 C 10.8789 -2.79297 11.1719 -2.41211 11.6895 -2.41211 Z"/>
  </g>
  <g id="" transform="matrix(1 0 0 1 304.924 1933)">
   <path d="M 14.9707 5.67383 C 21.9336 5.67383 27.6953 -0.078125 27.6953 -7.04102 C 27.6953 -14.0039 21.9238 -19.7559 14.9609 -19.7559 C 8.00781 -19.7559 2.25586 -14.0039 2.25586 -7.04102 C 2.25586 -0.078125 8.01758 5.67383 14.9707 5.67383 Z M 14.9707 3.85742 C 8.93555 3.85742 4.08203 -1.00586 4.08203 -7.04102 C 4.08203 -13.0762 8.92578 -17.9395 14.9609 -17.9395 C 21.0059 -17.9395 25.8594 -13.0762 25.8691 -7.04102 C 25.8789 -1.00586 21.0156 3.85742 14.9707 3.85742 Z M 14.9512 -1.06445 C 15.5176 -1.06445 15.8691 -1.45508 15.8691 -2.06055 L 15.8691 -6.13281 L 20.1074 -6.13281 C 20.6934 -6.13281 21.1133 -6.46484 21.1133 -7.02148 C 21.1133 -7.59766 20.7227 -7.93945 20.1074 -7.93945 L 15.8691 -7.93945 L 15.8691 -12.1875 C 15.8691 -12.8027 15.5176 -13.1934 14.9512 -13.1934 C 14.3848 -13.1934 14.0625 -12.7832 14.0625 -12.1875 L 14.0625 -7.93945 L 9.83398 -7.93945 C 9.21875 -7.93945 8.80859 -7.59766 8.80859 -7.02148 C 8.80859 -6.46484 9.23828 -6.13281 9.83398 -6.13281 L 14.0625 -6.13281 L 14.0625 -2.06055 C 14.0625 -1.47461 14.3848 -1.06445 14.9512 -1.06445 Z"/>
  </g>
  <text style="stroke:none;fill:black;font-family:-apple-system,&quot;SF Pro Display&quot;,&quot;SF Pro Text&quot;,Helvetica,sans-serif;font-weight:bold;" transform="matrix(1 0 0 1 263 1953)">Design Variations</text>
  <text style="stroke:none;fill:black;font-family:-apple-system,&quot;SF Pro Display&quot;,&quot;SF Pro Text&quot;,Helvetica,sans-serif;" transform="matrix(1 0 0 1 263 1971)">Symbols are supported in up to nine weights and three scales.</text>
  <text style="stroke:none;fill:black;font-family:-apple-system,&quot;SF Pro Display&quot;,&quot;SF Pro Text&quot;,Helvetica,sans-serif;" transform="matrix(1 0 0 1 263 1989)">For optimal layout with text and other symbols, vertically align</text>
  <text style="stroke:none;fill:black;font-family:-apple-system,&quot;SF Pro Display&quot;,&quot;SF Pro Text&quot;,Helvetica,sans-serif;" transform="matrix(1 0 0 1 263 2007)">symbols with the adjacent text.</text>
  <rect height="14" id="" style="fill:#00AEEF;stroke:none;opacity:0.4;" width="3" x="776" y="1919"/>
  <g id="" transform="matrix(1 0 0 1 779 1933)">
   <path d="M 10.5273 0 L 12.373 0 L 7.17773 -14.0918 L 5.43945 -14.0918 L 0.244141 0 L 2.08984 0 L 3.50586 -4.0332 L 9.11133 -4.0332 Z M 6.2793 -11.9531 L 6.33789 -11.9531 L 8.59375 -5.52734 L 4.02344 -5.52734 Z"/>
  </g>
  <rect height="14" id="" style="fill:#00AEEF;stroke:none;opacity:0.4;" width="3" x="791.617" y="1919"/>
  <text style="stroke:none;fill:black;font-family:-apple-system,&quot;SF Pro Display&quot;,&quot;SF Pro Text&quot;,Helvetica,sans-serif;font-weight:bold;" transform="matrix(1 0 0 1 776 1953)">Margins</text>
  <text style="stroke:none;fill:black;font-family:-apple-system,&quot;SF Pro Display&quot;,&quot;SF Pro Text&quot;,Helvetica,sans-serif;" transform="matrix(1 0 0 1 776 1971)">Leading and trailing margins on the left and right side of each symbol</text>
  <text style="stroke:none;fill:black;font-family:-apple-system,&quot;SF Pro Display&quot;,&quot;SF Pro Text&quot;,Helvetica,sans-serif;" transform="matrix(1 0 0 1 776 1989)">can be adjusted by modifying the width of the blue rectangles.</text>
  <text style="stroke:none;fill:black;font-family:-apple-system,&quot;SF Pro Display&quot;,&quot;SF Pro Text&quot;,Helvetica,sans-serif;" transform="matrix(1 0 0 1 776 2007)">Modifications are automatically applied proportionally to all</text>
  <text style="stroke:none;fill:black;font-family:-apple-system,&quot;SF Pro Display&quot;,&quot;SF Pro Text&quot;,Helvetica,sans-serif;" transform="matrix(1 0 0 1 776 2025)">scales and weights.</text>
  <g id="" transform="matrix(1 0 0 1 1289 1933)">
   <path d="M 2.83203 3.11523 L 4.375 4.6582 C 5.22461 5.48828 6.19141 5.41992 7.06055 4.46289 L 17.2754 -6.66016 C 17.7051 -6.36719 18.0957 -6.37695 18.5645 -6.47461 L 19.6094 -6.68945 L 20.3027 -5.99609 L 20.2539 -5.47852 C 20.1855 -4.95117 20.3516 -4.53125 20.8496 -4.0332 L 21.6602 -3.22266 C 22.168 -2.71484 22.8223 -2.68555 23.3008 -3.16406 L 26.5527 -6.41602 C 27.0312 -6.89453 27.0117 -7.54883 26.5039 -8.05664 L 25.6836 -8.87695 C 25.1855 -9.375 24.7754 -9.55078 24.2383 -9.47266 L 23.7109 -9.41406 L 23.0566 -10.0781 L 23.3398 -11.2207 C 23.4863 -11.7871 23.3398 -12.2559 22.7148 -12.8613 L 20.3027 -15.2539 C 16.7578 -18.7793 12.2266 -18.6719 9.11133 -15.5371 C 8.69141 -15.1074 8.64258 -14.5215 8.91602 -14.0918 C 9.15039 -13.7207 9.62891 -13.4961 10.2734 -13.6621 C 11.7871 -14.043 13.3008 -13.9258 14.7852 -12.9199 L 14.1602 -11.3379 C 13.9258 -10.752 13.9453 -10.2734 14.1797 -9.83398 L 3.01758 0.439453 C 2.08008 1.30859 1.97266 2.25586 2.83203 3.11523 Z M 10.6738 -15.1465 C 13.3398 -17.1387 16.6504 -16.8262 19.0527 -14.4141 L 21.6797 -11.8066 C 21.9141 -11.5723 21.9434 -11.3867 21.8848 -11.0938 L 21.5039 -9.53125 L 23.0762 -7.95898 L 24.043 -8.04688 C 24.3262 -8.07617 24.4141 -8.05664 24.6387 -7.83203 L 25.2637 -7.20703 L 22.5098 -4.46289 L 21.8848 -5.07812 C 21.6602 -5.30273 21.6406 -5.40039 21.6699 -5.68359 L 21.7578 -6.64062 L 20.1953 -8.20312 L 18.5742 -7.89062 C 18.291 -7.83203 18.1445 -7.83203 17.9102 -8.07617 L 15.7324 -10.2539 C 15.5078 -10.4883 15.4785 -10.625 15.6055 -10.9473 L 16.5527 -13.2227 C 14.9512 -14.7559 12.8418 -15.6055 10.8008 -14.9512 C 10.7129 -14.9219 10.6445 -14.9414 10.6152 -14.9805 C 10.5859 -15.0293 10.5859 -15.0781 10.6738 -15.1465 Z M 4.10156 2.41211 C 3.61328 1.91406 3.78906 1.61133 4.12109 1.30859 L 15.0781 -8.80859 L 16.3086 -7.57812 L 6.15234 3.34961 C 5.84961 3.68164 5.46875 3.7793 5.06836 3.37891 Z"/>
  </g>
  <text style="stroke:none;fill:black;font-family:-apple-system,&quot;SF Pro Display&quot;,&quot;SF Pro Text&quot;,Helvetica,sans-serif;font-weight:bold;" transform="matrix(1 0 0 1 1289 1953)">Exporting</text>
  <text style="stroke:none;fill:black;font-family:-apple-system,&quot;SF Pro Display&quot;,&quot;SF Pro Text&quot;,Helvetica,sans-serif;" transform="matrix(1 0 0 1 1289 1971)">Symbols should be outlined when exporting to ensure the</text>
  <text style="stroke:none;fill:black;font-family:-apple-system,&quot;SF Pro Display&quot;,&quot;SF Pro Text&quot;,Helvetica,sans-serif;" transform="matrix(1 0 0 1 1289 1989)">design is preserved when submitting to Xcode.</text>
  <text id="template-version" style="stroke:none;fill:black;font-family:-apple-system,&quot;SF Pro Display&quot;,&quot;SF Pro Text&quot;,Helvetica,sans-serif;text-anchor:end;" transform="matrix(1 0 0 1 3036 1933)">Template v.1.0</text>
  <text style="stroke:none;fill:black;font-family:-apple-system,&quot;SF Pro Display&quot;,&quot;SF Pro Text&quot;,Helvetica,sans-serif;text-anchor:end;" transform="matrix(1 0 0 1 3036 1951)">Generated from tray.2</text>
  <text style="stroke:none;fill:black;font-family:-apple-system,&quot;SF Pro Display&quot;,&quot;SF Pro Text&quot;,Helvetica,sans-serif;text-anchor:end;" transform="matrix(1 0 0 1 3036 1969)">Typeset at 100 points</text>
  <text style="stroke:none;fill:black;font-family:-apple-system,&quot;SF Pro Display&quot;,&quot;SF Pro Text&quot;,Helvetica,sans-serif;" transform="matrix(1 0 0 1 263 726)">Small</text>
  <text style="stroke:none;fill:black;font-family:-apple-system,&quot;SF Pro Display&quot;,&quot;SF Pro Text&quot;,Helvetica,sans-serif;" transform="matrix(1 0 0 1 263 1156)">Medium</text>
  <text style="stroke:none;fill:black;font-family:-apple-system,&quot;SF Pro Display&quot;,&quot;SF Pro Text&quot;,Helvetica,sans-serif;" transform="matrix(1 0 0 1 263 1586)">Large</text>
 </g>
 <g id="Guides">
  <g id="H-reference" style="fill:#27AAE1;stroke:none;" transform="matrix(1 0 0 1 339 696)">
   <path d="M 54.9316 0 L 57.666 0 L 30.5664 -70.459 L 28.0762 -70.459 L 0.976562 0 L 3.66211 0 L 12.9395 -24.4629 L 45.7031 -24.4629 Z M 29.1992 -67.0898 L 29.4434 -67.0898 L 44.8242 -26.709 L 13.8184 -26.709 Z"/>
  </g>
  <line id="Baseline-S" style="fill:none;stroke:#27AAE1;opacity:1;stroke-width:0.577;" x1="263" x2="3036" y1="696" y2="696"/>
  <line id="Capline-S" style="fill:none;stroke:#27AAE1;opacity:1;stroke-width:0.577;" x1="263" x2="3036" y1="625.541" y2="625.541"/>
  <g id="H-reference" style="fill:#27AAE1;stroke:none;" transform="matrix(1 0 0 1 339 1126)">
   <path d="M 54.9316 0 L 57.666 0 L 30.5664 -70.459 L 28.0762 -70.459 L 0.976562 0 L 3.66211 0 L 12.9395 -24.4629 L 45.7031 -24.4629 Z M 29.1992 -67.0898 L 29.4434 -67.0898 L 44.8242 -26.709 L 13.8184 -26.709 Z"/>
  </g>
  <line id="Baseline-M" style="fill:none;stroke:#27AAE1;opacity:1;stroke-width:0.577;" x1="263" x2="3036" y1="1126" y2="1126"/>
  <line id="Capline-M" style="fill:none;stroke:#27AAE1;opacity:1;stroke-width:0.577;" x1="263" x2="3036" y1="1055.54" y2="1055.54"/>
  <g id="H-reference" style="fill:#27AAE1;stroke:none;" transform="matrix(1 0 0 1 339 1556)">
   <path d="M 54.9316 0 L 57.666 0 L 30.5664 -70.459 L 28.0762 -70.459 L 0.976562 0 L 3.66211 0 L 12.9395 -24.4629 L 45.7031 -24.4629 Z M 29.1992 -67.0898 L 29.4434 -67.0898 L 44.8242 -26.709 L 13.8184 -26.709 Z"/>
  </g>
  <line id="Baseline-L" style="fill:none;stroke:#27AAE1;opacity:1;stroke-width:0.577;" x1="263" x2="3036" y1="1556" y2="1556"/>
  <line id="Capline-L" style="fill:none;stroke:#27AAE1;opacity:1;stroke-width:0.577;" x1="263" x2="3036" y1="1485.54" y2="1485.54"/>
  <rect height="119.336" id="left-margin" style="fill:#00AEEF;stroke:none;opacity:0.4;" width="12.4512" x="1379.82" y="1030.79"/>
  <rect height="119.336" id="right-margin" style="fill:#00AEEF;stroke:none;opacity:0.4;" width="12.4512" x="1507.41" y="1030.79"/>
 </g>
 <g id="Symbols">
  <g id="Black-L" transform="matrix(1 0 0 1 2841.43 1556)">
   <path d="M 40.0391 39.4043 L 143.896 39.4043 C 159.082 39.4043 167.773 30.7617 167.773 15.5762 L 167.773 -9.0332 C 167.773 -11.9141 165.918 -15.918 163.135 -18.3594 C 166.162 -21.582 167.773 -25.9277 167.773 -31.25 L 167.773 -60.8398 C 167.773 -70.5566 168.555 -78.0762 163.232 -82.0312 L 140.088 -99.6094 C 132.129 -105.615 126.709 -107.959 115.039 -107.959 L 68.8965 -107.959 C 57.2266 -107.959 51.8555 -105.615 43.8477 -99.6094 L 20.7031 -82.0312 C 15.3809 -78.0762 16.1621 -70.5566 16.1621 -60.8398 L 16.1621 -31.25 C 16.1621 -25.9277 17.7734 -21.582 20.8008 -18.4082 C 18.0176 -15.918 16.1621 -11.9141 16.1621 -9.0332 L 16.1621 15.5762 C 16.1621 30.7617 24.8047 39.4043 40.0391 39.4043 Z M 91.9922 -56.2988 C 84.8633 -56.2988 81.0059 -62.2559 81.0059 -67.3828 L 81.0059 -67.5293 C 81.0059 -69.7266 79.6387 -71.6309 76.0742 -71.6309 L 39.5508 -71.6309 C 36.9629 -71.6309 36.084 -72.9492 38.2324 -74.6094 L 57.8125 -89.502 C 60.2051 -91.3574 61.9629 -92.2363 65.5762 -92.2363 L 118.359 -92.2363 C 121.973 -92.2363 123.779 -91.3086 126.123 -89.502 L 145.801 -74.8535 C 148.096 -73.0957 146.973 -71.6309 144.434 -71.6309 L 107.861 -71.6309 C 104.297 -71.6309 102.93 -69.7266 102.93 -67.5293 L 102.93 -67.3828 C 102.93 -62.2559 99.0723 -56.2988 91.9922 -56.2988 Z M 42.0898 -26.5137 C 37.8418 -26.5137 35.6934 -28.418 35.6934 -32.959 L 35.6934 -54.5898 L 66.2598 -54.5898 C 69.8242 -45.0195 79.3945 -37.8418 91.9922 -37.8418 C 104.541 -37.8418 114.111 -45.0195 117.676 -54.5898 L 148.242 -54.5898 L 148.242 -32.959 C 148.242 -28.418 146.094 -26.5137 141.846 -26.5137 Z M 91.9922 -5.37109 C 86.9629 -5.37109 83.5938 -8.30078 82.0312 -11.8652 L 101.904 -11.8652 C 100.342 -8.30078 96.9727 -5.37109 91.9922 -5.37109 Z M 42.0898 20.3125 C 37.8418 20.3125 35.6934 18.457 35.6934 13.916 L 35.6934 -7.76367 L 66.2598 -7.76367 C 69.8242 1.80664 79.3945 8.98438 91.9922 8.98438 C 104.541 8.98438 114.111 1.80664 117.676 -7.76367 L 148.242 -7.76367 L 148.242 13.916 C 148.242 18.457 146.094 20.3125 141.846 20.3125 Z"/>
  </g>
  <g id="Heavy-L" transform="matrix(1 0 0 1 2545.19 1556)">
   <path d="M 38.8672 38.2324 L 144.141 38.2324 C 158.691 38.2324 166.895 30.127 166.895 15.5762 L 166.895 -10.791 C 166.895 -13.5254 165.234 -17.041 162.744 -19.2383 C 165.479 -22.3633 166.895 -26.5625 166.895 -31.6895 L 166.895 -62.4023 C 166.895 -71.0449 167.383 -77.6367 162.646 -81.2988 L 139.6 -99.8535 C 131.982 -105.908 126.66 -108.203 115.674 -108.203 L 67.3828 -108.203 C 56.3477 -108.203 51.0742 -105.908 43.4082 -99.8535 L 20.3613 -81.2988 C 15.625 -77.6367 16.1133 -71.0449 16.1133 -62.4023 L 16.1133 -31.6895 C 16.1133 -26.5625 17.5781 -22.3633 20.3125 -19.2383 C 17.7734 -17.041 16.1133 -13.5254 16.1133 -10.791 L 16.1133 15.5762 C 16.1133 30.1758 24.2676 38.2324 38.8672 38.2324 Z M 91.5039 -55.0781 C 83.9355 -55.0781 79.541 -61.4746 79.541 -67.2363 L 79.541 -67.4316 C 79.541 -69.6777 78.1738 -71.6309 74.7559 -71.6309 L 37.0117 -71.6309 C 34.3262 -71.6309 33.3984 -72.998 35.6445 -74.8535 L 55.6641 -91.0645 C 58.4473 -93.4082 60.498 -94.4336 64.6973 -94.4336 L 118.359 -94.4336 C 122.559 -94.4336 124.561 -93.4082 127.344 -91.0645 L 147.412 -75 C 149.805 -73.0957 148.682 -71.6309 146.045 -71.6309 L 108.301 -71.6309 C 104.883 -71.6309 103.516 -69.6777 103.516 -67.4316 L 103.516 -67.2363 C 103.516 -61.4746 99.0723 -55.0781 91.5039 -55.0781 Z M 40.4785 -25.6348 C 35.6445 -25.6348 33.1055 -27.9297 33.1055 -33.0566 L 33.1055 -56.7871 L 66.3086 -56.7871 C 69.3359 -46.6309 78.9551 -39.1113 91.5039 -39.1113 C 104.102 -39.1113 113.721 -46.6309 116.699 -56.7871 L 149.902 -56.7871 L 149.902 -33.0566 C 149.902 -27.9297 147.363 -25.6348 142.578 -25.6348 Z M 91.5039 -4.63867 C 85.791 -4.63867 81.8848 -8.30078 80.2734 -12.5488 L 102.734 -12.5488 C 101.172 -8.30078 97.2656 -4.63867 91.5039 -4.63867 Z M 40.4785 21.6309 C 35.6445 21.6309 33.1055 19.3359 33.1055 14.209 L 33.1055 -9.42383 L 66.3086 -9.42383 C 69.3359 0.683594 78.9551 8.25195 91.5039 8.25195 C 104.102 8.25195 113.721 0.683594 116.699 -9.42383 L 149.902 -9.42383 L 149.902 14.209 C 149.902 19.3359 147.363 21.6309 142.578 21.6309 Z"/>
  </g>
  <g id="Bold-L" transform="matrix(1 0 0 1 2248.99 1556)">
   <path d="M 37.5488 36.9141 L 144.434 36.9141 C 158.301 36.9141 165.918 29.4434 165.918 15.625 L 165.918 -12.793 C 165.918 -15.332 164.453 -18.3594 162.256 -20.166 C 164.648 -23.1934 165.918 -27.2461 165.918 -32.1289 L 165.918 -64.209 C 165.918 -71.6309 166.113 -77.0996 162.012 -80.4688 L 139.062 -100.146 C 131.787 -106.299 126.66 -108.496 116.309 -108.496 L 65.6738 -108.496 C 55.3711 -108.496 50.1953 -106.299 42.9199 -100.146 L 20.0195 -80.4688 C 15.918 -77.0996 16.1133 -71.6309 16.1133 -64.209 L 16.1133 -32.1289 C 16.1133 -27.1973 17.334 -23.1934 19.7754 -20.166 C 17.5293 -18.3594 16.1133 -15.332 16.1133 -12.793 L 16.1133 15.625 C 16.1133 29.4434 23.6328 36.9141 37.5488 36.9141 Z M 91.0156 -53.7109 C 82.8613 -53.7109 77.8809 -60.5957 77.8809 -67.0898 L 77.8809 -67.334 C 77.8809 -69.6289 76.4648 -71.6797 73.2422 -71.6797 L 34.2285 -71.6797 C 31.3965 -71.6797 30.4199 -73.0469 32.7637 -75.0977 L 53.2715 -92.8223 C 56.4941 -95.752 58.8379 -96.875 63.6719 -96.875 L 118.311 -96.875 C 123.193 -96.875 125.488 -95.7031 128.76 -92.8223 L 149.268 -75.1953 C 151.758 -73.0957 150.586 -71.6797 147.803 -71.6797 L 108.74 -71.6797 C 105.518 -71.6797 104.15 -69.6289 104.15 -67.334 L 104.15 -67.0898 C 104.15 -60.5957 99.1211 -53.7109 91.0156 -53.7109 Z M 38.6719 -24.6582 C 33.1543 -24.6582 30.2246 -27.4414 30.2246 -33.2031 L 30.2246 -59.1797 L 66.3574 -59.1797 C 68.75 -48.4375 78.418 -40.5273 91.0156 -40.5273 C 103.564 -40.5273 113.232 -48.4863 115.625 -59.1797 L 151.807 -59.1797 L 151.807 -33.2031 C 151.807 -27.4414 148.779 -24.6582 143.359 -24.6582 Z M 91.0156 -3.80859 C 84.4727 -3.80859 79.9316 -8.20312 78.418 -13.3789 L 103.564 -13.3789 C 102.051 -8.20312 97.5586 -3.80859 91.0156 -3.80859 Z M 38.6719 23.0469 C 33.1543 23.0469 30.2246 20.3125 30.2246 14.5508 L 30.2246 -11.3281 L 66.3574 -11.3281 C 68.75 -0.537109 78.418 7.37305 91.0156 7.37305 C 103.564 7.37305 113.232 -0.585938 115.625 -11.3281 L 151.807 -11.3281 L 151.807 14.5508 C 151.807 20.3125 148.779 23.0469 143.359 23.0469 Z"/>
  </g>
  <g id="Semibold-L" transform="matrix(1 0 0 1 1952.62 1556)">
   <path d="M 36.6699 36.0352 L 144.629 36.0352 C 158.057 36.0352 165.186 28.9062 165.186 15.625 L 165.186 -14.1602 C 165.186 -16.5527 163.916 -19.2871 161.914 -20.8008 C 164.062 -23.7793 165.186 -27.6855 165.186 -32.4219 L 165.186 -65.4297 C 165.186 -72.0215 165.234 -76.709 161.523 -79.8828 L 138.672 -100.342 C 131.689 -106.543 126.611 -108.691 116.797 -108.691 L 64.502 -108.691 C 54.6875 -108.691 49.6094 -106.543 42.627 -100.342 L 19.7754 -79.8828 C 16.0645 -76.709 16.1133 -72.0215 16.1133 -65.4297 L 16.1133 -32.4219 C 16.1133 -27.6855 17.1875 -23.7793 19.3848 -20.8008 C 17.3828 -19.2871 16.1133 -16.5527 16.1133 -14.1602 L 16.1133 15.625 C 16.1133 28.9551 23.2422 36.0352 36.6699 36.0352 Z M 90.625 -52.7832 C 82.1289 -52.7832 76.709 -59.9609 76.709 -67.041 L 76.709 -67.2852 C 76.709 -69.5801 75.3418 -71.6797 72.2168 -71.6797 L 32.2754 -71.6797 C 29.3457 -71.6797 28.3691 -73.0957 30.7617 -75.2441 L 51.5625 -94.043 C 55.1758 -97.3633 57.666 -98.5352 62.9883 -98.5352 L 118.311 -98.5352 C 123.633 -98.5352 126.123 -97.3145 129.736 -94.043 L 150.537 -75.3418 C 153.076 -73.0957 151.904 -71.6797 149.072 -71.6797 L 109.082 -71.6797 C 105.957 -71.6797 104.59 -69.5801 104.59 -67.2852 L 104.59 -67.041 C 104.59 -59.9609 99.1699 -52.7832 90.625 -52.7832 Z M 37.4023 -24.0234 C 31.4453 -24.0234 28.2227 -27.0508 28.2227 -33.3008 L 28.2227 -60.8887 L 66.4062 -60.8887 C 68.3594 -49.6582 78.0762 -41.4551 90.625 -41.4551 C 103.223 -41.4551 112.939 -49.707 114.893 -60.8887 L 153.076 -60.8887 L 153.076 -33.3008 C 153.076 -27.0508 149.805 -24.0234 143.896 -24.0234 Z M 90.625 -3.22266 C 83.5938 -3.22266 78.6133 -8.1543 77.1484 -13.916 L 104.15 -13.916 C 102.686 -8.1543 97.7051 -3.22266 90.625 -3.22266 Z M 37.4023 24.0723 C 31.4453 24.0723 28.2227 20.9961 28.2227 14.7461 L 28.2227 -12.5977 L 66.4062 -12.5977 C 68.3594 -1.41602 78.0762 6.78711 90.625 6.78711 C 103.223 6.78711 112.939 -1.46484 114.893 -12.5977 L 153.076 -12.5977 L 153.076 14.7461 C 153.076 20.9961 149.805 24.0723 143.896 24.0723 Z"/>
  </g>
  <g id="Medium-L" transform="matrix(1 0 0 1 1656.17 1556)">
   <path d="M 35.9863 35.3516 L 144.775 35.3516 C 157.861 35.3516 164.697 28.5645 164.697 15.625 L 164.697 -15.2344 C 164.697 -17.5293 163.525 -19.9707 161.621 -21.3379 C 163.672 -24.2676 164.697 -28.0762 164.697 -32.666 L 164.697 -66.3574 C 164.697 -72.3145 164.551 -76.4648 161.182 -79.4434 L 138.428 -100.537 C 131.592 -106.738 126.611 -108.838 117.139 -108.838 L 63.623 -108.838 C 54.1504 -108.838 49.1699 -106.738 42.334 -100.537 L 19.5801 -79.4434 C 16.2109 -76.4648 16.0645 -72.3145 16.0645 -66.3574 L 16.0645 -32.666 C 16.0645 -28.0273 17.0898 -24.2188 19.1406 -21.3379 C 17.2363 -19.9707 16.0645 -17.5293 16.0645 -15.2344 L 16.0645 15.625 C 16.0645 28.6133 22.9004 35.3516 35.9863 35.3516 Z M 90.3809 -52.0996 C 81.5918 -52.0996 75.8301 -59.4727 75.8301 -66.9434 L 75.8301 -67.2363 C 75.8301 -69.5801 74.4629 -71.6797 71.4355 -71.6797 L 30.8105 -71.6797 C 27.7832 -71.6797 26.8066 -73.1445 29.248 -75.3906 L 50.293 -94.9219 C 54.1504 -98.584 56.8359 -99.8047 62.4512 -99.8047 L 118.311 -99.8047 C 123.926 -99.8047 126.611 -98.5352 130.42 -94.9219 L 151.514 -75.4395 C 154.102 -73.0957 152.93 -71.6797 150 -71.6797 L 109.326 -71.6797 C 106.299 -71.6797 104.932 -69.5801 104.932 -67.2363 L 104.932 -66.9434 C 104.932 -59.4727 99.1699 -52.0996 90.3809 -52.0996 Z M 36.4746 -23.4863 C 30.127 -23.4863 26.709 -26.8066 26.709 -33.3496 L 26.709 -62.1582 L 66.4551 -62.1582 C 68.0664 -50.6348 77.832 -42.1875 90.3809 -42.1875 C 102.93 -42.1875 112.695 -50.6836 114.307 -62.1582 L 154.053 -62.1582 L 154.053 -33.3496 C 154.053 -26.8066 150.537 -23.4863 144.287 -23.4863 Z M 90.3809 -2.7832 C 82.9102 -2.7832 77.6367 -8.1543 76.2207 -14.3066 L 104.541 -14.3066 C 103.125 -8.1543 97.8516 -2.7832 90.3809 -2.7832 Z M 36.4746 24.8047 C 30.127 24.8047 26.709 21.5332 26.709 14.9414 L 26.709 -13.5742 L 66.4551 -13.5742 C 68.0664 -2.05078 77.832 6.34766 90.3809 6.34766 C 102.93 6.34766 112.695 -2.09961 114.307 -13.5742 L 154.053 -13.5742 L 154.053 14.9414 C 154.053 21.5332 150.537 24.8047 144.287 24.8047 Z"/>
  </g>
  <g id="Regular-L" transform="matrix(1 0 0 1 1359.81 1556)">
   <path d="M 35.0586 34.4727 L 144.971 34.4727 C 157.568 34.4727 164.014 28.0762 164.014 15.625 L 164.014 -16.6016 C 164.014 -18.7988 162.988 -20.8984 161.279 -21.9727 C 163.086 -24.8535 164.014 -28.5156 164.014 -33.0078 L 164.014 -67.5781 C 164.014 -72.7051 163.672 -76.123 160.742 -78.8574 L 138.037 -100.732 C 131.494 -106.982 126.611 -109.033 117.578 -109.033 L 62.4512 -109.033 C 53.4668 -109.033 48.584 -106.982 42.041 -100.732 L 19.2871 -78.8574 C 16.4062 -76.123 16.0645 -72.7051 16.0645 -67.5781 L 16.0645 -33.0078 C 16.0645 -28.5156 16.9922 -24.8535 18.7988 -21.9727 C 17.0898 -20.8984 16.0645 -18.7988 16.0645 -16.6016 L 16.0645 15.625 C 16.0645 28.125 22.4609 34.4727 35.0586 34.4727 Z M 90.0391 -51.1719 C 80.8594 -51.1719 74.707 -58.8867 74.707 -66.8457 L 74.707 -67.1387 C 74.707 -69.5312 73.291 -71.6797 70.4102 -71.6797 L 28.9062 -71.6797 C 25.7812 -71.6797 24.7559 -73.1934 27.2949 -75.5859 L 48.6816 -96.1426 C 52.832 -100.146 55.6641 -101.465 61.7676 -101.465 L 118.311 -101.465 C 124.365 -101.465 127.246 -100.146 131.396 -96.1426 L 152.783 -75.5859 C 155.371 -73.0957 154.199 -71.6797 151.221 -71.6797 L 109.668 -71.6797 C 106.738 -71.6797 105.371 -69.5312 105.371 -67.1387 L 105.371 -66.8457 C 105.371 -58.8867 99.1699 -51.1719 90.0391 -51.1719 Z M 35.2539 -22.8027 C 28.418 -22.8027 24.707 -26.416 24.707 -33.4473 L 24.707 -63.8184 L 66.4551 -63.8184 C 67.6758 -51.8555 77.4902 -43.1641 90.0391 -43.1641 C 102.588 -43.1641 112.354 -51.9043 113.574 -63.8184 L 155.322 -63.8184 L 155.322 -33.4473 C 155.322 -26.416 151.514 -22.8027 144.824 -22.8027 Z M 90.0391 -2.24609 C 82.0312 -2.24609 76.3184 -8.05664 75 -14.8438 L 105.078 -14.8438 C 103.711 -8.05664 97.998 -2.24609 90.0391 -2.24609 Z M 35.2539 25.7812 C 28.418 25.7812 24.707 22.168 24.707 15.1855 L 24.707 -14.8438 L 66.4551 -14.8438 C 67.6758 -2.88086 77.4902 5.76172 90.0391 5.76172 C 102.588 5.76172 112.354 -2.97852 113.574 -14.8438 L 155.322 -14.8438 L 155.322 15.1855 C 155.322 22.168 151.514 25.7812 144.824 25.7812 Z"/>
  </g>
  <g id="Light-L" transform="matrix(1 0 0 1 1063.56 1556)">
   <path d="M 34.0332 32.1777 L 145.117 32.1777 C 156.982 32.1777 163.086 26.0254 163.086 14.3555 L 163.086 -18.1152 C 163.086 -20.3613 161.865 -22.3633 159.814 -22.9492 C 162.012 -25.8301 163.086 -29.6875 163.086 -34.5215 L 163.086 -68.7988 C 163.086 -73.1934 162.793 -75.8789 160.303 -78.2715 L 137.109 -101.123 C 130.908 -107.178 126.123 -109.326 117.529 -109.326 L 61.6699 -109.326 C 53.0273 -109.326 48.291 -107.178 42.041 -101.123 L 18.8477 -78.2715 C 16.3574 -75.8789 16.0645 -73.1934 16.0645 -68.7988 L 16.0645 -34.5215 C 16.0645 -29.6875 17.1387 -25.8301 19.3359 -22.9492 C 17.2852 -22.3633 16.0645 -20.3613 16.0645 -18.1152 L 16.0645 14.3555 C 16.0645 26.123 22.168 32.1777 34.0332 32.1777 Z M 89.5996 -51.709 C 80.0781 -51.709 73.291 -59.4238 73.291 -68.3594 L 73.291 -68.7012 C 73.291 -70.8008 72.1191 -72.5098 69.7266 -72.5098 L 26.2207 -72.5098 C 23.7793 -72.5098 22.9492 -73.7793 24.9512 -75.7324 L 47.168 -97.6074 C 51.7578 -102.148 55.0781 -103.418 61.2305 -103.418 L 117.92 -103.418 C 124.072 -103.418 127.441 -102.148 132.031 -97.6074 L 154.248 -75.7324 C 156.299 -73.6816 155.371 -72.5098 152.979 -72.5098 L 109.473 -72.5098 C 107.031 -72.5098 105.859 -70.8008 105.859 -68.7012 L 105.859 -68.3594 C 105.859 -59.4238 99.0723 -51.709 89.5996 -51.709 Z M 34.1797 -23.291 C 26.709 -23.291 22.7051 -27.1973 22.7051 -34.8633 L 22.7051 -66.4062 L 66.8945 -66.4062 C 67.6758 -54.1992 77.3926 -45.5566 89.5996 -45.5566 C 101.807 -45.5566 111.475 -54.2969 112.256 -66.4062 L 156.494 -66.4062 L 156.494 -34.8633 C 156.494 -27.1973 152.295 -23.291 144.971 -23.291 Z M 89.5996 -2.39258 C 80.7617 -2.39258 74.3164 -9.0332 73.4375 -17.0898 L 105.762 -17.0898 C 104.883 -9.0332 98.3887 -2.39258 89.5996 -2.39258 Z M 34.1797 25.5859 C 26.709 25.5859 22.7051 21.6309 22.7051 14.0137 L 22.7051 -17.0898 L 66.8945 -17.0898 C 67.6758 -4.83398 77.3926 3.75977 89.5996 3.75977 C 101.807 3.75977 111.475 -4.93164 112.256 -17.0898 L 156.494 -17.0898 L 156.494 14.0137 C 156.494 21.6309 152.295 25.5859 144.971 25.5859 Z"/>
  </g>
  <g id="Thin-L" transform="matrix(1 0 0 1 767.433 1556)">
   <path d="M 32.666 29.1992 L 145.312 29.1992 C 156.201 29.1992 161.914 23.3398 161.914 12.6465 L 161.914 -20.1172 C 161.914 -22.2168 160.547 -23.7305 158.398 -23.7305 L 157.08 -23.7305 C 160.303 -26.5137 161.914 -30.8105 161.914 -36.5234 L 161.914 -70.4102 C 161.914 -73.7793 161.67 -75.6348 159.766 -77.5391 L 135.889 -101.709 C 130.127 -107.471 125.537 -109.668 117.432 -109.668 L 60.5957 -109.668 C 52.4902 -109.668 47.8516 -107.471 42.0898 -101.709 L 18.2129 -77.5391 C 16.3086 -75.6348 16.0645 -73.7793 16.0645 -70.4102 L 16.0645 -36.5234 C 16.0645 -30.7617 17.6758 -26.4648 20.8496 -23.7305 L 19.5801 -23.7305 C 17.4805 -23.7305 16.0645 -22.2168 16.0645 -20.1172 L 16.0645 12.6465 C 16.0645 23.4863 21.7773 29.1992 32.666 29.1992 Z M 89.0137 -52.4414 C 79.0527 -52.4414 71.4844 -60.1562 71.4844 -70.3125 L 71.4844 -70.752 C 71.4844 -72.4609 70.6055 -73.584 68.7988 -73.584 L 22.6562 -73.584 C 21.0938 -73.584 20.5566 -74.5605 21.875 -75.9277 L 45.166 -99.5605 C 50.293 -104.785 54.2969 -106.006 60.5469 -106.006 L 117.432 -106.006 C 123.682 -106.006 127.686 -104.785 132.861 -99.5605 L 156.152 -75.9277 C 157.471 -74.5117 156.885 -73.584 155.371 -73.584 L 109.18 -73.584 C 107.422 -73.584 106.543 -72.4609 106.543 -70.752 L 106.543 -70.3125 C 106.543 -60.1562 98.9258 -52.4414 89.0137 -52.4414 Z M 32.8125 -23.877 C 24.4141 -23.877 19.9707 -28.2227 19.9707 -36.7188 L 19.9707 -69.873 L 67.4805 -69.873 C 67.6758 -57.2754 77.2461 -48.7305 89.0137 -48.7305 C 100.781 -48.7305 110.303 -57.4219 110.547 -69.873 L 158.008 -69.873 L 158.008 -36.7188 C 158.008 -28.2227 153.32 -23.877 145.166 -23.877 Z M 89.0137 -2.58789 C 79.1992 -2.58789 71.6797 -10.0586 71.4844 -20.0195 L 106.494 -20.0195 C 106.299 -10.0586 98.7793 -2.58789 89.0137 -2.58789 Z M 32.8125 25.293 C 24.4141 25.293 19.9707 20.8984 19.9707 12.4512 L 19.9707 -20.0195 L 67.4805 -20.0195 C 67.6758 -7.42188 77.2461 1.12305 89.0137 1.12305 C 100.781 1.12305 110.303 -7.56836 110.547 -20.0195 L 158.008 -20.0195 L 158.008 12.4512 C 158.008 20.8984 153.32 25.293 145.166 25.293 Z"/>
  </g>
  <g id="Ultralight-L" transform="matrix(1 0 0 1 471.015 1556)">
   <path d="M 31.9824 27.6855 L 145.41 27.6855 C 155.811 27.6855 161.328 21.9727 161.328 11.7676 L 161.328 -21.1426 C 161.328 -22.9004 160.156 -23.9746 158.398 -23.9746 L 155.176 -23.9746 C 159.229 -26.5625 161.328 -31.2012 161.328 -37.5488 L 161.328 -71.1914 C 161.328 -74.1211 161.084 -75.4883 159.473 -77.1484 L 135.254 -102.002 C 129.736 -107.617 125.195 -109.814 117.383 -109.814 L 60.0098 -109.814 C 52.1973 -109.814 47.6562 -107.617 42.1387 -102.002 L 17.9199 -77.1484 C 16.3086 -75.4883 16.0645 -74.1211 16.0645 -71.1914 L 16.0645 -37.5488 C 16.0645 -31.1035 18.1641 -26.5625 22.1191 -23.9746 L 18.9941 -23.9746 C 17.2363 -23.9746 16.0645 -22.9004 16.0645 -21.1426 L 16.0645 11.7676 C 16.0645 22.1191 21.582 27.6855 31.9824 27.6855 Z M 88.7207 -52.832 C 78.5156 -52.832 70.5566 -60.5469 70.5566 -71.2891 L 70.5566 -71.8262 C 70.5566 -73.3398 69.8242 -74.1211 68.3594 -74.1211 L 20.8008 -74.1211 C 19.7266 -74.1211 19.3359 -74.9512 20.3125 -76.0254 L 44.1406 -100.586 C 49.5605 -106.152 53.9062 -107.324 60.2051 -107.324 L 117.188 -107.324 C 123.486 -107.324 127.832 -106.152 133.301 -100.586 L 157.129 -76.0254 C 158.057 -74.9512 157.666 -74.1211 156.592 -74.1211 L 109.033 -74.1211 C 107.568 -74.1211 106.885 -73.3398 106.885 -71.8262 L 106.885 -71.2891 C 106.885 -60.5469 98.877 -52.832 88.7207 -52.832 Z M 32.1289 -24.1699 C 23.1934 -24.1699 18.6035 -28.7598 18.6035 -37.6465 L 18.6035 -71.6797 L 67.7734 -71.6797 C 67.6758 -58.8867 77.1484 -50.3906 88.7207 -50.3906 C 100.244 -50.3906 109.717 -59.0332 109.668 -71.6797 L 158.789 -71.6797 L 158.789 -37.6465 C 158.789 -28.7598 153.857 -24.1699 145.264 -24.1699 Z M 70.5566 -21.1426 L 70.5566 -21.5332 L 106.885 -21.5332 L 106.885 -21.1426 C 106.885 -10.4004 98.877 -2.68555 88.7207 -2.68555 C 78.5156 -2.68555 70.5566 -10.4004 70.5566 -21.1426 Z M 32.1289 25.1465 C 23.1934 25.1465 18.6035 20.5078 18.6035 11.6211 L 18.6035 -21.5332 L 67.7734 -21.5332 C 67.6758 -8.74023 77.1484 -0.195312 88.7207 -0.195312 C 100.244 -0.195312 109.717 -8.88672 109.668 -21.5332 L 158.789 -21.5332 L 158.789 11.6211 C 158.789 20.5078 153.857 25.1465 145.264 25.1465 Z"/>
  </g>
  <g id="Black-M" transform="matrix(1 0 0 1 2861.74 1126)">
   <path d="M 32.0801 22.998 L 111.23 22.998 C 123.438 22.998 130.762 15.7227 130.762 3.4668 L 130.762 -13.3301 C 130.762 -15.7715 128.857 -19.6289 126.172 -21.8262 C 129.15 -24.3652 130.762 -27.9785 130.762 -32.4219 L 130.762 -53.5645 C 130.762 -62.1582 131.738 -68.9453 127.051 -72.2168 L 108.691 -84.9609 C 102.246 -89.4531 97.9492 -91.4062 88.3301 -91.4062 L 54.9805 -91.4062 C 45.3125 -91.4062 41.0156 -89.4531 34.5703 -84.9609 L 16.2109 -72.2168 C 11.5723 -68.9453 12.5488 -62.1582 12.5488 -53.5645 L 12.5488 -32.4219 C 12.5488 -27.9785 14.1602 -24.3652 17.0898 -21.8262 C 14.4531 -19.6289 12.5488 -15.7715 12.5488 -13.3301 L 12.5488 3.4668 C 12.5488 15.7227 19.8242 22.998 32.0801 22.998 Z M 71.6309 -53.5156 C 66.6504 -53.5156 64.0625 -57.5684 64.0625 -61.084 L 64.0625 -61.1816 C 64.0625 -62.6953 63.1348 -63.8184 60.4004 -63.8184 L 32.5684 -63.8184 C 31.1035 -63.8184 30.5664 -64.6973 31.8359 -65.5273 L 46.9238 -75.9766 C 48.3887 -77.002 49.707 -77.5391 51.7578 -77.5391 L 91.5527 -77.5391 C 93.6035 -77.5391 94.9219 -76.9531 96.3867 -75.9766 L 111.523 -65.7715 C 112.891 -64.8926 112.158 -63.8184 110.742 -63.8184 L 82.9102 -63.8184 C 80.1758 -63.8184 79.248 -62.6953 79.248 -61.1816 L 79.248 -61.084 C 79.248 -57.5684 76.6602 -53.5156 71.6309 -53.5156 Z M 34.2285 -29.8828 C 31.3965 -29.8828 30.0781 -31.0059 30.0781 -34.082 L 30.0781 -48.7305 L 51.5137 -48.7305 C 54.7852 -41.8945 62.0605 -36.8652 71.6309 -36.8652 C 81.25 -36.8652 88.5254 -41.8945 91.7969 -48.7305 L 113.232 -48.7305 L 113.232 -34.082 C 113.232 -31.0059 111.914 -29.8828 109.082 -29.8828 Z M 71.6309 -13.1836 C 68.2617 -13.1836 65.9668 -15.0391 64.8438 -17.334 L 78.418 -17.334 C 77.3438 -15.0391 75.0488 -13.1836 71.6309 -13.1836 Z M 34.2285 5.95703 C 31.3965 5.95703 30.0781 4.88281 30.0781 1.80664 L 30.0781 -12.8418 L 51.5137 -12.8418 C 54.7852 -6.05469 62.0605 -0.976562 71.6309 -0.976562 C 81.25 -0.976562 88.5254 -6.05469 91.7969 -12.8418 L 113.232 -12.8418 L 113.232 1.80664 C 113.232 4.88281 111.914 5.95703 109.082 5.95703 Z"/>
  </g>
  <g id="Heavy-M" transform="matrix(1 0 0 1 2565.42 1126)">
   <path d="M 31.0547 22.2656 L 111.475 22.2656 C 123.193 22.2656 130.029 15.5273 130.029 3.80859 L 130.029 -14.8926 C 130.029 -17.1387 128.418 -20.4102 126.123 -22.3145 C 128.662 -24.8535 130.029 -28.2715 130.029 -32.4707 L 130.029 -54.9805 C 130.029 -62.5977 130.664 -68.5059 126.514 -71.5332 L 108.447 -85.1562 C 102.246 -89.7461 98.0469 -91.6016 88.9648 -91.6016 L 53.5645 -91.6016 C 44.4824 -91.6016 40.2832 -89.7461 34.082 -85.1562 L 15.9668 -71.5332 C 11.8652 -68.5059 12.5 -62.5977 12.5 -54.9805 L 12.5 -32.4707 C 12.5 -28.2715 13.8672 -24.8535 16.4062 -22.3145 C 14.1113 -20.4102 12.5 -17.1387 12.5 -14.8926 L 12.5 3.80859 C 12.5 15.5273 19.2871 22.2656 31.0547 22.2656 Z M 71.2402 -52.002 C 65.8203 -52.002 62.793 -56.543 62.793 -60.5469 L 62.793 -60.6934 C 62.793 -62.3047 61.8164 -63.6719 59.1309 -63.6719 L 30.5176 -63.6719 C 28.7598 -63.6719 28.125 -64.5996 29.6387 -65.7227 L 44.9707 -77.2949 C 46.7773 -78.7598 48.2422 -79.3945 50.8789 -79.3945 L 91.6504 -79.3945 C 94.2871 -79.3945 95.752 -78.7109 97.5586 -77.2949 L 112.939 -65.918 C 114.551 -64.7461 113.77 -63.6719 112.012 -63.6719 L 83.3984 -63.6719 C 80.7129 -63.6719 79.7363 -62.3047 79.7363 -60.6934 L 79.7363 -60.5469 C 79.7363 -56.543 76.709 -52.002 71.2402 -52.002 Z M 32.7148 -28.8086 C 29.4434 -28.8086 27.7344 -30.2734 27.7344 -33.8379 L 27.7344 -50.3906 L 51.4648 -50.3906 C 54.248 -43.0664 61.6211 -37.5977 71.2402 -37.5977 C 80.9082 -37.5977 88.2812 -43.0664 91.0645 -50.3906 L 114.795 -50.3906 L 114.795 -33.8379 C 114.795 -30.2734 113.086 -28.8086 109.814 -28.8086 Z M 71.2402 -12.3047 C 67.2852 -12.3047 64.6484 -14.6973 63.4766 -17.5293 L 79.0527 -17.5293 C 77.8809 -14.6973 75.2441 -12.3047 71.2402 -12.3047 Z M 32.7148 7.42188 C 29.4434 7.42188 27.7344 6.00586 27.7344 2.44141 L 27.7344 -14.1113 L 51.4648 -14.1113 C 54.248 -6.78711 61.6211 -1.31836 71.2402 -1.31836 C 80.9082 -1.31836 88.2812 -6.78711 91.0645 -14.1113 L 114.795 -14.1113 L 114.795 2.44141 C 114.795 6.00586 113.086 7.42188 109.814 7.42188 Z"/>
  </g>
  <g id="Bold-M" transform="matrix(1 0 0 1 2269.15 1126)">
   <path d="M 29.9316 21.5332 L 111.768 21.5332 C 122.949 21.5332 129.199 15.332 129.199 4.19922 L 129.199 -16.6016 C 129.199 -18.7012 127.93 -21.3379 126.025 -22.9492 C 128.125 -25.3906 129.199 -28.6133 129.199 -32.5195 L 129.199 -56.5918 C 129.199 -63.0859 129.541 -67.9688 125.928 -70.8008 L 108.105 -85.3516 C 102.246 -90.0879 98.1445 -91.8457 89.7461 -91.8457 L 51.9531 -91.8457 C 43.5059 -91.8457 39.4531 -90.0879 33.5449 -85.3516 L 15.7227 -70.8008 C 12.1582 -67.9688 12.5 -63.0859 12.5 -56.5918 L 12.5 -32.5195 C 12.5 -28.6133 13.5742 -25.3906 15.625 -22.9492 C 13.7207 -21.3379 12.5 -18.7012 12.5 -16.6016 L 12.5 4.19922 C 12.5 15.332 18.7012 21.5332 29.9316 21.5332 Z M 70.8496 -50.3906 C 64.8926 -50.3906 61.377 -55.4199 61.377 -60.0098 L 61.377 -60.1562 C 61.377 -61.9141 60.3027 -63.4277 57.666 -63.4277 L 28.2715 -63.4277 C 26.123 -63.4277 25.3906 -64.502 27.1484 -65.9668 L 42.7734 -78.7598 C 44.9707 -80.7129 46.582 -81.4941 49.9512 -81.4941 L 91.6992 -81.4941 C 95.0684 -81.4941 96.6797 -80.6641 98.9258 -78.7598 L 114.551 -66.1133 C 116.406 -64.5508 115.527 -63.4277 113.428 -63.4277 L 83.9844 -63.4277 C 81.3965 -63.4277 80.3223 -61.9141 80.3223 -60.1562 L 80.3223 -60.0098 C 80.3223 -55.4199 76.8066 -50.3906 70.8496 -50.3906 Z M 31.0547 -27.6367 C 27.1973 -27.6367 25.1953 -29.4922 25.1953 -33.5449 L 25.1953 -52.2949 L 51.3672 -52.2949 C 53.6133 -44.3359 61.084 -38.4277 70.8496 -38.4277 C 80.5664 -38.4277 88.0371 -44.3359 90.2832 -52.2949 L 116.504 -52.2949 L 116.504 -33.5449 C 116.504 -29.4922 114.453 -27.6367 110.596 -27.6367 Z M 70.8496 -11.377 C 66.2598 -11.377 63.1348 -14.3066 61.9141 -17.7734 L 79.7363 -17.7734 C 78.5156 -14.3066 75.3906 -11.377 70.8496 -11.377 Z M 31.0547 9.08203 C 27.1973 9.08203 25.1953 7.22656 25.1953 3.17383 L 25.1953 -15.5273 L 51.3672 -15.5273 C 53.6133 -7.56836 61.084 -1.66016 70.8496 -1.66016 C 80.5664 -1.66016 88.0371 -7.56836 90.2832 -15.5273 L 116.504 -15.5273 L 116.504 3.17383 C 116.504 7.22656 114.453 9.08203 110.596 9.08203 Z"/>
  </g>
  <g id="Semibold-M" transform="matrix(1 0 0 1 1972.73 1126)">
   <path d="M 29.1504 20.9961 L 111.963 20.9961 C 122.754 20.9961 128.613 15.2344 128.613 4.44336 L 128.613 -17.8223 C 128.613 -19.7266 127.588 -22.0215 125.928 -23.4375 C 127.686 -25.7812 128.613 -28.8574 128.613 -32.5684 L 128.613 -57.666 C 128.613 -63.4277 128.711 -67.627 125.537 -70.2637 L 107.91 -85.498 C 102.246 -90.332 98.2422 -91.9922 90.2832 -91.9922 L 50.8301 -91.9922 C 42.8223 -91.9922 38.8672 -90.332 33.2031 -85.498 L 15.5273 -70.2637 C 12.3535 -67.627 12.5 -63.4277 12.5 -57.666 L 12.5 -32.5684 C 12.5 -28.8574 13.3789 -25.7812 15.1367 -23.4375 C 13.5254 -22.0215 12.5 -19.7266 12.5 -17.8223 L 12.5 4.44336 C 12.5 15.2344 18.3105 20.9961 29.1504 20.9961 Z M 70.5566 -49.2188 C 64.2578 -49.2188 60.4004 -54.6387 60.4004 -59.6191 L 60.4004 -59.7656 C 60.4004 -61.6211 59.2773 -63.2812 56.6895 -63.2812 L 26.6602 -63.2812 C 24.3164 -63.2812 23.5352 -64.4043 25.4395 -66.1133 L 41.2109 -79.7852 C 43.75 -82.0312 45.459 -82.9102 49.3164 -82.9102 L 91.7969 -82.9102 C 95.6055 -82.9102 97.3633 -82.0312 99.8535 -79.7852 L 115.674 -66.2109 C 117.676 -64.4043 116.748 -63.2812 114.453 -63.2812 L 84.375 -63.2812 C 81.8359 -63.2812 80.7129 -61.6211 80.7129 -59.7656 L 80.7129 -59.6191 C 80.7129 -54.6387 76.8555 -49.2188 70.5566 -49.2188 Z M 29.9316 -26.8066 C 25.6836 -26.8066 23.3887 -28.9551 23.3887 -33.3496 L 23.3887 -53.6133 L 51.3672 -53.6133 C 53.2227 -45.2148 60.7422 -39.0137 70.5566 -39.0137 C 80.3711 -39.0137 87.8906 -45.2637 89.7461 -53.6133 L 117.676 -53.6133 L 117.676 -33.3496 C 117.676 -28.9551 115.381 -26.8066 111.182 -26.8066 Z M 70.5566 -10.6934 C 65.5762 -10.6934 62.1094 -14.0625 60.8887 -17.9199 L 80.1758 -17.9199 C 78.9551 -14.0625 75.5371 -10.6934 70.5566 -10.6934 Z M 29.9316 10.2051 C 25.6836 10.2051 23.3887 8.10547 23.3887 3.66211 L 23.3887 -16.5039 L 51.3672 -16.5039 C 53.2227 -8.10547 60.7422 -1.9043 70.5566 -1.9043 C 80.3711 -1.9043 87.8906 -8.1543 89.7461 -16.5039 L 117.676 -16.5039 L 117.676 3.66211 C 117.676 8.10547 115.381 10.2051 111.182 10.2051 Z"/>
  </g>
  <g id="Medium-M" transform="matrix(1 0 0 1 1676.24 1126)">
   <path d="M 28.5645 20.5566 L 112.109 20.5566 C 122.607 20.5566 128.174 15.0879 128.174 4.63867 L 128.174 -18.75 C 128.174 -20.5566 127.295 -22.5586 125.83 -23.7793 C 127.393 -26.0742 128.174 -29.0527 128.174 -32.5684 L 128.174 -58.4961 C 128.174 -63.6719 128.125 -67.3828 125.244 -69.873 L 107.715 -85.5957 C 102.246 -90.4785 98.291 -92.1387 90.6738 -92.1387 L 50 -92.1387 C 42.334 -92.1387 38.4277 -90.4785 32.9102 -85.5957 L 15.4297 -69.873 C 12.5488 -67.3828 12.4512 -63.6719 12.4512 -58.4961 L 12.4512 -32.5684 C 12.4512 -29.0527 13.2324 -26.0742 14.7949 -23.7793 C 13.3301 -22.5586 12.4512 -20.5566 12.4512 -18.75 L 12.4512 4.63867 C 12.4512 15.1367 18.0176 20.5566 28.5645 20.5566 Z M 70.3125 -48.3887 C 63.7695 -48.3887 59.668 -54.0039 59.668 -59.2773 L 59.668 -59.4727 C 59.668 -61.377 58.4961 -63.1836 55.957 -63.1836 L 25.4883 -63.1836 C 22.9492 -63.1836 22.0703 -64.3555 24.1699 -66.2598 L 40.0879 -80.5664 C 42.7734 -83.0566 44.6289 -84.0332 48.8281 -84.0332 L 91.8457 -84.0332 C 96.0449 -84.0332 97.8516 -83.0566 100.537 -80.5664 L 116.504 -66.3086 C 118.652 -64.3066 117.676 -63.1836 115.186 -63.1836 L 84.7168 -63.1836 C 82.1289 -63.1836 81.0059 -61.377 81.0059 -59.4727 L 81.0059 -59.2773 C 81.0059 -54.0039 76.9043 -48.3887 70.3125 -48.3887 Z M 29.0527 -26.1719 C 24.5117 -26.1719 22.0703 -28.5156 22.0703 -33.252 L 22.0703 -54.5898 L 51.3184 -54.5898 C 52.8809 -45.8984 60.4492 -39.4531 70.3125 -39.4531 C 80.1758 -39.4531 87.7441 -45.8984 89.3066 -54.5898 L 118.555 -54.5898 L 118.555 -33.252 C 118.555 -28.5156 116.064 -26.1719 111.621 -26.1719 Z M 70.3125 -10.2051 C 65.0391 -10.2051 61.3281 -13.8672 60.1074 -18.0176 L 80.5176 -18.0176 C 79.2969 -13.8672 75.5859 -10.2051 70.3125 -10.2051 Z M 29.0527 11.084 C 24.5117 11.084 22.0703 8.74023 22.0703 4.00391 L 22.0703 -17.2363 L 51.3184 -17.2363 C 52.8809 -8.54492 60.4492 -2.09961 70.3125 -2.09961 C 80.1758 -2.09961 87.7441 -8.54492 89.3066 -17.2363 L 118.555 -17.2363 L 118.555 4.00391 C 118.555 8.74023 116.064 11.084 111.621 11.084 Z"/>
  </g>
  <g id="Regular-M" transform="matrix(1 0 0 1 1379.82 1126)">
   <path d="M 27.7832 20.0684 L 112.256 20.0684 C 122.461 20.0684 127.588 14.9902 127.588 4.93164 L 127.588 -19.9219 C 127.588 -21.6309 126.904 -23.291 125.684 -24.3164 C 126.953 -26.5137 127.588 -29.2969 127.588 -32.6172 L 127.588 -59.5703 C 127.588 -64.0137 127.295 -67.041 124.805 -69.3848 L 107.52 -85.7422 C 102.197 -90.7227 98.3887 -92.2852 91.1621 -92.2852 L 48.877 -92.2852 C 41.6992 -92.2852 37.8418 -90.7227 32.5684 -85.7422 L 15.2344 -69.3848 C 12.7441 -67.041 12.4512 -64.0137 12.4512 -59.5703 L 12.4512 -32.6172 C 12.4512 -29.2969 13.0859 -26.5137 14.3555 -24.3164 C 13.1348 -23.291 12.4512 -21.6309 12.4512 -19.9219 L 12.4512 4.93164 C 12.4512 14.9902 17.5781 20.0684 27.7832 20.0684 Z M 70.0195 -47.2656 C 63.1348 -47.2656 58.6914 -53.2227 58.6914 -58.8867 L 58.6914 -59.082 C 58.6914 -61.1328 57.4707 -63.0371 54.9316 -63.0371 L 23.9258 -63.0371 C 21.1426 -63.0371 20.2148 -64.3066 22.4609 -66.4062 L 38.5742 -81.5918 C 41.5527 -84.375 43.5059 -85.4492 48.1445 -85.4492 L 91.8945 -85.4492 C 96.582 -85.4492 98.4863 -84.375 101.465 -81.5918 L 117.578 -66.4062 C 119.922 -64.209 118.848 -63.0371 116.162 -63.0371 L 85.1074 -63.0371 C 82.5684 -63.0371 81.3965 -61.1328 81.3965 -59.082 L 81.3965 -58.8867 C 81.3965 -53.2227 76.9531 -47.2656 70.0195 -47.2656 Z M 27.8809 -25.3418 C 22.998 -25.3418 20.3125 -27.9785 20.3125 -33.0566 L 20.3125 -55.8594 L 51.2695 -55.8594 C 52.4414 -46.7773 60.1074 -39.9902 70.0195 -39.9902 C 79.9316 -39.9902 87.5977 -46.7773 88.7695 -55.8594 L 119.727 -55.8594 L 119.727 -33.0566 C 119.727 -27.9785 116.992 -25.3418 112.158 -25.3418 Z M 70.0195 -9.57031 C 64.3555 -9.57031 60.3516 -13.623 59.082 -18.1641 L 80.957 -18.1641 C 79.6875 -13.623 75.6836 -9.57031 70.0195 -9.57031 Z M 27.8809 12.207 C 22.998 12.207 20.3125 9.57031 20.3125 4.49219 L 20.3125 -18.1641 L 51.2695 -18.1641 C 52.4414 -9.08203 60.1074 -2.29492 70.0195 -2.29492 C 79.9316 -2.29492 87.5977 -9.08203 88.7695 -18.1641 L 119.727 -18.1641 L 119.727 4.49219 C 119.727 9.57031 116.992 12.207 112.158 12.207 Z"/>
  </g>
  <g id="Light-M" transform="matrix(1 0 0 1 1083.5 1126)">
   <path d="M 26.8555 18.0176 L 112.402 18.0176 C 121.924 18.0176 126.807 13.1348 126.807 3.75977 L 126.807 -21.2891 C 126.807 -22.998 125.977 -24.6094 124.512 -25.293 C 126.025 -27.5391 126.807 -30.4199 126.807 -33.9844 L 126.807 -60.6934 C 126.807 -64.4531 126.562 -66.8457 124.463 -68.8477 L 106.689 -86.1328 C 101.709 -90.918 97.9492 -92.5293 91.1133 -92.5293 L 48.1445 -92.5293 C 41.3086 -92.5293 37.5488 -90.918 32.5684 -86.1328 L 14.7949 -68.8477 C 12.6953 -66.8457 12.4512 -64.4531 12.4512 -60.6934 L 12.4512 -33.9844 C 12.4512 -30.4199 13.2324 -27.5391 14.6973 -25.293 C 13.2812 -24.6094 12.4512 -22.998 12.4512 -21.2891 L 12.4512 3.75977 C 12.4512 13.2324 17.334 18.0176 26.8555 18.0176 Z M 69.6289 -47.7539 C 62.4023 -47.7539 57.4219 -53.7598 57.4219 -60.2539 L 57.4219 -60.498 C 57.4219 -62.2559 56.4453 -63.7695 54.3457 -63.7695 L 21.5332 -63.7695 C 19.3359 -63.7695 18.6035 -64.8438 20.3613 -66.5527 L 37.207 -82.9102 C 40.5762 -86.1816 42.9688 -87.207 47.7051 -87.207 L 91.5527 -87.207 C 96.2891 -87.207 98.6816 -86.1816 102.051 -82.9102 L 118.896 -66.5527 C 120.703 -64.7461 119.873 -63.7695 117.773 -63.7695 L 84.9121 -63.7695 C 82.8125 -63.7695 81.8359 -62.2559 81.8359 -60.498 L 81.8359 -60.2539 C 81.8359 -53.7598 76.8555 -47.7539 69.6289 -47.7539 Z M 26.9531 -25.7812 C 21.4844 -25.7812 18.5059 -28.6621 18.5059 -34.3262 L 18.5059 -58.252 L 51.6602 -58.252 C 52.4414 -48.877 60.0098 -42.1875 69.6289 -42.1875 C 79.248 -42.1875 86.8164 -48.9258 87.5977 -58.252 L 120.752 -58.252 L 120.752 -34.3262 C 120.752 -28.6621 117.676 -25.7812 112.305 -25.7812 Z M 69.6289 -9.7168 C 63.1836 -9.7168 58.4961 -14.502 57.6172 -20.166 L 81.6406 -20.166 C 80.7617 -14.502 76.0742 -9.7168 69.6289 -9.7168 Z M 26.9531 12.0117 C 21.4844 12.0117 18.5059 9.08203 18.5059 3.4668 L 18.5059 -20.166 L 51.6602 -20.166 C 52.4414 -10.791 60.0098 -4.10156 69.6289 -4.10156 C 79.248 -4.10156 86.8164 -10.8887 87.5977 -20.166 L 120.752 -20.166 L 120.752 3.4668 C 120.752 9.08203 117.676 12.0117 112.305 12.0117 Z"/>
  </g>
  <g id="Thin-M" transform="matrix(1 0 0 1 787.33 1126)">
   <path d="M 25.6348 15.3809 L 112.598 15.3809 C 121.24 15.3809 125.732 10.7422 125.732 2.24609 L 125.732 -23.0957 C 125.732 -24.8535 124.561 -26.1719 122.803 -26.1719 L 122.461 -26.1719 C 124.658 -28.3691 125.732 -31.5918 125.732 -35.791 L 125.732 -62.1094 C 125.732 -64.9902 125.537 -66.6016 123.926 -68.1641 L 105.566 -86.6211 C 101.025 -91.1621 97.4121 -92.8223 91.0156 -92.8223 L 47.168 -92.8223 C 40.8203 -92.8223 37.1582 -91.1621 32.6172 -86.6211 L 14.2578 -68.1641 C 12.6465 -66.6016 12.4512 -64.9902 12.4512 -62.1094 L 12.4512 -35.791 C 12.4512 -31.5918 13.5742 -28.3691 15.7227 -26.1719 L 15.4297 -26.1719 C 13.623 -26.1719 12.4512 -24.8535 12.4512 -23.0957 L 12.4512 2.24609 C 12.4512 10.8398 16.9922 15.3809 25.6348 15.3809 Z M 69.0918 -48.4375 C 61.4746 -48.4375 55.8105 -54.3945 55.8105 -61.9629 L 55.8105 -62.3047 C 55.8105 -63.7207 55.0293 -64.7461 53.5156 -64.7461 L 18.3105 -64.7461 C 16.9434 -64.7461 16.4551 -65.5273 17.627 -66.6992 L 35.4004 -84.668 C 39.3066 -88.5742 42.2363 -89.502 47.0703 -89.502 L 91.1133 -89.502 C 95.9473 -89.502 98.9258 -88.5742 102.783 -84.668 L 120.605 -66.6992 C 121.777 -65.5273 121.24 -64.7461 119.873 -64.7461 L 84.668 -64.7461 C 83.1543 -64.7461 82.4219 -63.7207 82.4219 -62.3047 L 82.4219 -61.9629 C 82.4219 -54.3945 76.709 -48.4375 69.0918 -48.4375 Z M 25.7324 -26.2695 C 19.3848 -26.2695 16.0645 -29.5898 16.0645 -35.9863 L 16.0645 -61.3281 L 52.1484 -61.3281 C 52.4414 -51.6602 59.8633 -45.0195 69.0918 -45.0195 C 78.3203 -45.0195 85.7422 -51.7578 86.0352 -61.3281 L 122.119 -61.3281 L 122.119 -35.9863 C 122.119 -29.5898 118.604 -26.2695 112.451 -26.2695 Z M 69.0918 -9.86328 C 61.7188 -9.86328 56.1035 -15.5273 55.8105 -22.8027 L 82.4219 -22.8027 C 82.0801 -15.5273 76.4648 -9.86328 69.0918 -9.86328 Z M 25.7324 11.7188 C 19.3848 11.7188 16.0645 8.44727 16.0645 2.05078 L 16.0645 -22.8027 L 52.1484 -22.8027 C 52.4414 -13.1348 59.8633 -6.49414 69.0918 -6.49414 C 78.3203 -6.49414 85.7422 -13.2324 86.0352 -22.8027 L 122.119 -22.8027 L 122.119 2.05078 C 122.119 8.44727 118.604 11.7188 112.451 11.7188 Z"/>
  </g>
  <g id="Ultralight-M" transform="matrix(1 0 0 1 490.888 1126)">
   <path d="M 25 13.9648 L 112.695 13.9648 C 120.85 13.9648 125.195 9.52148 125.195 1.46484 L 125.195 -23.9746 C 125.195 -25.4883 124.219 -26.416 122.754 -26.416 L 120.898 -26.416 C 123.73 -28.5156 125.195 -31.9824 125.195 -36.7188 L 125.195 -62.8906 C 125.195 -65.2832 125.049 -66.4551 123.682 -67.8223 L 105.029 -86.8652 C 100.684 -91.3086 97.1191 -92.9688 90.9668 -92.9688 L 46.6797 -92.9688 C 40.5273 -92.9688 37.0117 -91.3086 32.666 -86.8652 L 13.9648 -67.8223 C 12.6465 -66.4551 12.4512 -65.2832 12.4512 -62.8906 L 12.4512 -36.7188 C 12.4512 -31.9336 13.916 -28.5156 16.6992 -26.416 L 14.8926 -26.416 C 13.4277 -26.416 12.4512 -25.4883 12.4512 -23.9746 L 12.4512 1.46484 C 12.4512 9.61914 16.7969 13.9648 25 13.9648 Z M 68.8477 -48.7305 C 61.0352 -48.7305 54.9316 -54.7363 54.9316 -62.8906 L 54.9316 -63.2812 C 54.9316 -64.502 54.3457 -65.2344 53.125 -65.2344 L 16.6992 -65.2344 C 15.7227 -65.2344 15.332 -65.8691 16.2109 -66.7969 L 34.5215 -85.5469 C 38.623 -89.7461 41.8945 -90.7227 46.7773 -90.7227 L 90.918 -90.7227 C 95.752 -90.7227 99.0234 -89.7461 103.174 -85.5469 L 121.484 -66.7969 C 122.314 -65.8691 121.973 -65.2344 120.996 -65.2344 L 84.5703 -65.2344 C 83.3496 -65.2344 82.7148 -64.502 82.7148 -63.2812 L 82.7148 -62.8906 C 82.7148 -54.7363 76.6602 -48.7305 68.8477 -48.7305 Z M 25.0977 -26.5625 C 18.3594 -26.5625 14.8438 -30.0781 14.8438 -36.8164 L 14.8438 -62.9395 L 52.4414 -62.9395 C 52.4414 -53.0762 59.8145 -46.4844 68.8477 -46.4844 C 77.832 -46.4844 85.2051 -53.2227 85.2539 -62.9395 L 122.803 -62.9395 L 122.803 -36.8164 C 122.803 -30.0781 119.043 -26.5625 112.549 -26.5625 Z M 54.9316 -24.0723 L 54.9316 -24.1699 L 82.7148 -24.1699 L 82.7148 -24.0723 C 82.7148 -15.9668 76.6602 -9.96094 68.8477 -9.96094 C 61.0352 -9.96094 54.9316 -15.9668 54.9316 -24.0723 Z M 25.0977 11.5723 C 18.3594 11.5723 14.8438 8.10547 14.8438 1.31836 L 14.8438 -24.1699 L 52.4414 -24.1699 C 52.4414 -14.3066 59.8145 -7.66602 68.8477 -7.66602 C 77.832 -7.66602 85.2051 -14.4043 85.2539 -24.1699 L 122.803 -24.1699 L 122.803 1.31836 C 122.803 8.10547 119.043 11.5723 112.549 11.5723 Z"/>
  </g>
  <g id="Black-S" transform="matrix(1 0 0 1 2877.3 696)">
   <path d="M 25.0488 10.3516 L 87.1582 10.3516 C 96.6797 10.3516 102.393 4.6875 102.393 -4.88281 L 102.393 -18.1641 C 102.393 -20.0684 100.928 -23.0469 98.877 -24.7559 C 101.172 -26.7578 102.393 -29.541 102.393 -33.0078 L 102.393 -49.707 C 102.393 -56.3477 103.125 -61.6211 99.5117 -64.1602 L 85.1562 -74.2188 C 80.127 -77.7344 76.7578 -79.248 69.2383 -79.248 L 42.9688 -79.248 C 35.4492 -79.248 32.0801 -77.7344 27.0508 -74.2188 L 12.6953 -64.1602 C 9.08203 -61.6211 9.81445 -56.3477 9.81445 -49.707 L 9.81445 -33.0078 C 9.81445 -29.541 11.084 -26.7578 13.3301 -24.7559 C 11.2793 -23.0469 9.81445 -20.0684 9.81445 -18.1641 L 9.81445 -4.88281 C 9.81445 4.6875 15.4785 10.3516 25.0488 10.3516 Z M 56.1035 -49.4141 C 52.1484 -49.4141 50.0977 -52.6367 50.0977 -55.4199 L 50.0977 -55.5176 C 50.0977 -56.6895 49.3652 -57.6172 47.2168 -57.6172 L 25.3906 -57.6172 C 24.2188 -57.6172 23.7793 -58.3008 24.8047 -58.9844 L 36.6211 -67.2363 C 37.793 -68.0664 38.8184 -68.5059 40.4785 -68.5059 L 71.7285 -68.5059 C 73.3887 -68.5059 74.4141 -68.0176 75.5859 -67.2363 L 87.4512 -59.1797 C 88.5742 -58.4473 87.9883 -57.6172 86.8164 -57.6172 L 64.9902 -57.6172 C 62.8418 -57.6172 62.1094 -56.6895 62.1094 -55.5176 L 62.1094 -55.4199 C 62.1094 -52.6367 60.0586 -49.4141 56.1035 -49.4141 Z M 26.709 -30.957 C 24.4629 -30.957 23.3887 -31.8359 23.3887 -34.2773 L 23.3887 -45.8984 L 40.332 -45.8984 C 42.8711 -40.5273 48.584 -36.5234 56.1035 -36.5234 C 63.623 -36.5234 69.3359 -40.5273 71.875 -45.8984 L 88.8184 -45.8984 L 88.8184 -34.2773 C 88.8184 -31.8359 87.7441 -30.957 85.498 -30.957 Z M 56.1035 -17.8711 C 53.418 -17.8711 51.6113 -19.3848 50.7324 -21.1914 L 61.4746 -21.1914 C 60.5957 -19.3848 58.7891 -17.8711 56.1035 -17.8711 Z M 26.709 -2.83203 C 24.4629 -2.83203 23.3887 -3.71094 23.3887 -6.15234 L 23.3887 -17.7734 L 40.332 -17.7734 C 42.8711 -12.4023 48.584 -8.39844 56.1035 -8.39844 C 63.623 -8.39844 69.3359 -12.4023 71.875 -17.7734 L 88.8184 -17.7734 L 88.8184 -6.15234 C 88.8184 -3.71094 87.7441 -2.83203 85.498 -2.83203 Z"/>
  </g>
  <g id="Heavy-S" transform="matrix(1 0 0 1 2580.83 696)">
   <path d="M 24.4141 10.0586 L 87.3535 10.0586 C 96.582 10.0586 101.904 4.73633 101.904 -4.49219 L 101.904 -19.1895 C 101.904 -20.9961 100.732 -23.4863 98.9746 -25 C 100.928 -26.9531 101.904 -29.6387 101.904 -32.9102 L 101.904 -50.6836 C 101.904 -56.6406 102.441 -61.2793 99.1699 -63.7207 L 85.0586 -74.3164 C 80.1758 -77.9297 76.9043 -79.3945 69.7754 -79.3945 L 41.9434 -79.3945 C 34.8633 -79.3945 31.543 -77.9297 26.709 -74.3164 L 12.5977 -63.7207 C 9.32617 -61.2793 9.81445 -56.6406 9.81445 -50.6836 L 9.81445 -32.9102 C 9.81445 -29.6387 10.8398 -26.9531 12.7441 -25 C 10.9863 -23.4863 9.81445 -20.9961 9.81445 -19.1895 L 9.81445 -4.49219 C 9.81445 4.73633 15.1367 10.0586 24.4141 10.0586 Z M 55.8594 -48.2422 C 51.6113 -48.2422 49.2676 -51.8066 49.2676 -54.8828 L 49.2676 -54.9805 C 49.2676 -56.2988 48.4863 -57.373 46.3379 -57.373 L 24.1211 -57.373 C 22.6074 -57.373 22.1191 -58.1543 23.3398 -59.1309 L 35.3027 -68.1152 C 36.6699 -69.1895 37.793 -69.7266 39.8926 -69.7266 L 71.8262 -69.7266 C 73.9746 -69.7266 75.0488 -69.1895 76.4648 -68.1152 L 88.4277 -59.2773 C 89.7461 -58.252 89.1113 -57.373 87.6465 -57.373 L 65.4297 -57.373 C 63.2812 -57.373 62.4512 -56.2988 62.4512 -54.9805 L 62.4512 -54.8828 C 62.4512 -51.8066 60.1562 -48.2422 55.8594 -48.2422 Z M 25.6836 -30.0781 C 23.1445 -30.0781 21.8262 -31.2012 21.8262 -33.9355 L 21.8262 -46.9238 L 40.2832 -46.9238 C 42.4805 -41.1621 48.2422 -36.8652 55.8594 -36.8652 C 63.4766 -36.8652 69.2871 -41.1621 71.4844 -46.9238 L 89.8926 -46.9238 L 89.8926 -33.9355 C 89.8926 -31.2012 88.5742 -30.0781 86.0352 -30.0781 Z M 55.8594 -17.1875 C 52.832 -17.1875 50.8301 -18.9941 49.8535 -21.1426 L 61.8652 -21.1426 C 60.9375 -18.9941 58.8867 -17.1875 55.8594 -17.1875 Z M 25.6836 -1.70898 C 23.1445 -1.70898 21.8262 -2.7832 21.8262 -5.56641 L 21.8262 -18.5059 L 40.2832 -18.5059 C 42.4805 -12.7441 48.2422 -8.44727 55.8594 -8.44727 C 63.4766 -8.44727 69.2871 -12.7441 71.4844 -18.5059 L 89.8926 -18.5059 L 89.8926 -5.56641 C 89.8926 -2.7832 88.5742 -1.70898 86.0352 -1.70898 Z"/>
  </g>
  <g id="Bold-S" transform="matrix(1 0 0 1 2284.39 696)">
   <path d="M 23.6328 9.7168 L 87.5488 9.7168 C 96.4355 9.7168 101.367 4.83398 101.367 -4.05273 L 101.367 -20.3613 C 101.367 -21.9727 100.488 -24.0234 99.0234 -25.3418 C 100.586 -27.2461 101.367 -29.7363 101.367 -32.7637 L 101.367 -51.7578 C 101.367 -56.9824 101.611 -60.9375 98.7793 -63.1836 L 84.9121 -74.4141 C 80.2246 -78.1738 77.002 -79.541 70.3613 -79.541 L 40.8203 -79.541 C 34.1797 -79.541 30.957 -78.1738 26.2695 -74.4141 L 12.4023 -63.1836 C 9.57031 -60.9375 9.81445 -56.9824 9.81445 -51.7578 L 9.81445 -32.7637 C 9.81445 -29.7363 10.5957 -27.2461 12.1582 -25.3418 C 10.6934 -24.0234 9.81445 -21.9727 9.81445 -20.3613 L 9.81445 -4.05273 C 9.81445 4.83398 14.6973 9.7168 23.6328 9.7168 Z M 55.5664 -46.9238 C 50.9766 -46.9238 48.3398 -50.8789 48.3398 -54.2969 L 48.3398 -54.3945 C 48.3398 -55.8105 47.4609 -57.1289 45.3125 -57.1289 L 22.6562 -57.1289 C 20.8496 -57.1289 20.2148 -58.0078 21.7285 -59.2773 L 33.7402 -69.0918 C 35.4492 -70.459 36.5723 -71.0938 39.209 -71.0938 L 71.9727 -71.0938 C 74.6094 -71.0938 75.7324 -70.459 77.4414 -69.0918 L 89.502 -59.375 C 91.0645 -58.0566 90.332 -57.1289 88.5254 -57.1289 L 65.8691 -57.1289 C 63.7207 -57.1289 62.8418 -55.8105 62.8418 -54.3945 L 62.8418 -54.2969 C 62.8418 -50.8789 60.2051 -46.9238 55.5664 -46.9238 Z M 24.5117 -29.1504 C 21.6309 -29.1504 20.1172 -30.5176 20.1172 -33.5938 L 20.1172 -48.0957 L 40.1855 -48.0957 C 41.9922 -41.8945 47.8516 -37.207 55.5664 -37.207 C 63.3301 -37.207 69.1895 -41.8945 70.9961 -48.0957 L 91.0645 -48.0957 L 91.0645 -33.5938 C 91.0645 -30.5176 89.5508 -29.1504 86.6699 -29.1504 Z M 55.5664 -16.4551 C 52.1973 -16.4551 49.9023 -18.6035 48.9258 -21.0449 L 62.2559 -21.0449 C 61.2793 -18.6035 58.9844 -16.4551 55.5664 -16.4551 Z M 24.5117 -0.390625 C 21.6309 -0.390625 20.1172 -1.80664 20.1172 -4.88281 L 20.1172 -19.3359 L 40.1855 -19.3359 C 41.9922 -13.1348 47.8516 -8.49609 55.5664 -8.49609 C 63.3301 -8.49609 69.1895 -13.1348 70.9961 -19.3359 L 91.0645 -19.3359 L 91.0645 -4.88281 C 91.0645 -1.80664 89.5508 -0.390625 86.6699 -0.390625 Z"/>
  </g>
  <g id="Semibold-S" transform="matrix(1 0 0 1 1987.87 696)">
   <path d="M 23.1445 9.47266 L 87.6953 9.47266 C 96.3379 9.47266 101.025 4.88281 101.025 -3.75977 L 101.025 -21.1914 C 101.025 -22.7051 100.244 -24.4629 99.0723 -25.6348 C 100.342 -27.4414 101.025 -29.834 101.025 -32.666 L 101.025 -52.4902 C 101.025 -57.1777 101.074 -60.6934 98.4863 -62.8418 L 84.8145 -74.5117 C 80.2734 -78.3203 77.0996 -79.6387 70.752 -79.6387 L 40.0391 -79.6387 C 33.6914 -79.6387 30.5176 -78.3203 25.9766 -74.5117 L 12.3047 -62.8418 C 9.7168 -60.6934 9.76562 -57.1777 9.76562 -52.4902 L 9.76562 -32.666 C 9.76562 -29.834 10.4492 -27.4414 11.7676 -25.6348 C 10.5469 -24.4629 9.76562 -22.7051 9.76562 -21.1914 L 9.76562 -3.75977 C 9.76562 4.88281 14.4043 9.47266 23.1445 9.47266 Z M 55.4199 -45.9961 C 50.5371 -45.9961 47.7051 -50.2441 47.7051 -53.8574 L 47.7051 -53.9551 C 47.7051 -55.5176 46.7773 -56.9824 44.5801 -56.9824 L 21.6797 -56.9824 C 19.5801 -56.9824 18.8965 -57.9102 20.6055 -59.375 L 32.7148 -69.7266 C 34.5703 -71.3379 35.791 -72.0703 38.7695 -72.0703 L 72.0215 -72.0703 C 75.0488 -72.0703 76.2207 -71.3379 78.0762 -69.7266 L 90.2344 -59.4727 C 91.9922 -57.9102 91.1621 -56.9824 89.1602 -56.9824 L 66.2109 -56.9824 C 64.0137 -56.9824 63.0859 -55.5176 63.0859 -53.9551 L 63.0859 -53.8574 C 63.0859 -50.2441 60.2539 -45.9961 55.4199 -45.9961 Z M 23.7305 -28.4668 C 20.6055 -28.4668 18.8965 -30.0293 18.8965 -33.3496 L 18.8965 -48.877 L 40.0879 -48.877 C 41.6992 -42.3828 47.6074 -37.5 55.4199 -37.5 C 63.1836 -37.5 69.1406 -42.3828 70.7031 -48.877 L 91.8945 -48.877 L 91.8945 -33.3496 C 91.8945 -30.0293 90.1855 -28.4668 87.0605 -28.4668 Z M 55.4199 -15.9668 C 51.7578 -15.9668 49.2676 -18.3105 48.2422 -20.9961 L 62.5488 -20.9961 C 61.5234 -18.3105 59.0332 -15.9668 55.4199 -15.9668 Z M 23.7305 0.488281 C 20.6055 0.488281 18.8965 -1.12305 18.8965 -4.39453 L 18.8965 -19.9219 L 40.0879 -19.9219 C 41.6992 -13.4277 47.6074 -8.54492 55.4199 -8.54492 C 63.1836 -8.54492 69.1406 -13.4277 70.7031 -19.9219 L 91.8945 -19.9219 L 91.8945 -4.39453 C 91.8945 -1.12305 90.1855 0.488281 87.0605 0.488281 Z"/>
  </g>
  <g id="Medium-S" transform="matrix(1 0 0 1 1691.31 696)">
   <path d="M 22.7539 9.27734 L 87.793 9.27734 C 96.2891 9.27734 100.732 4.93164 100.732 -3.51562 L 100.732 -21.7773 C 100.732 -23.1934 100.098 -24.7559 99.0234 -25.8301 C 100.146 -27.6367 100.732 -29.8828 100.732 -32.6172 L 100.732 -53.0273 C 100.732 -57.373 100.684 -60.498 98.2422 -62.5977 L 84.7168 -74.5605 C 80.3223 -78.418 77.1973 -79.7363 71.0938 -79.7363 L 39.4531 -79.7363 C 33.3008 -79.7363 30.2246 -78.418 25.7812 -74.5605 L 12.2559 -62.5977 C 9.86328 -60.498 9.76562 -57.373 9.76562 -53.0273 L 9.76562 -32.6172 C 9.76562 -29.8828 10.3516 -27.6367 11.4746 -25.8301 C 10.4004 -24.8047 9.76562 -23.1934 9.76562 -21.7773 L 9.76562 -3.51562 C 9.76562 4.93164 14.209 9.27734 22.7539 9.27734 Z M 55.2734 -45.3125 C 50.2441 -45.3125 47.2168 -49.7559 47.2168 -53.5645 L 47.2168 -53.6621 C 47.2168 -55.2734 46.2402 -56.8359 44.043 -56.8359 L 20.8984 -56.8359 C 18.6523 -56.8359 17.9199 -57.8613 19.7266 -59.4727 L 31.9336 -70.2637 C 33.8867 -72.0215 35.1562 -72.7539 38.4277 -72.7539 L 72.0703 -72.7539 C 75.3418 -72.7539 76.6113 -72.0215 78.5645 -70.2637 L 90.7715 -59.5215 C 92.6758 -57.8125 91.7969 -56.8359 89.6484 -56.8359 L 66.4551 -56.8359 C 64.2578 -56.8359 63.2812 -55.2734 63.2812 -53.6621 L 63.2812 -53.5645 C 63.2812 -49.7559 60.3027 -45.3125 55.2734 -45.3125 Z M 23.0957 -27.9785 C 19.8242 -27.9785 18.0176 -29.6875 18.0176 -33.1543 L 18.0176 -49.4629 L 40.0391 -49.4629 C 41.4551 -42.7734 47.4121 -37.6953 55.2734 -37.6953 C 63.0859 -37.6953 69.0918 -42.7734 70.459 -49.4629 L 92.5293 -49.4629 L 92.5293 -33.1543 C 92.5293 -29.6875 90.6738 -27.9785 87.4023 -27.9785 Z M 55.2734 -15.5762 C 51.4648 -15.5762 48.8281 -18.0664 47.7539 -20.9473 L 62.7441 -20.9473 C 61.7188 -18.0664 59.0332 -15.5762 55.2734 -15.5762 Z M 23.0957 1.12305 C 19.8242 1.12305 18.0176 -0.585938 18.0176 -4.05273 L 18.0176 -20.3613 L 40.0391 -20.3613 C 41.4551 -13.623 47.4121 -8.54492 55.2734 -8.54492 C 63.0859 -8.54492 69.0918 -13.623 70.459 -20.3613 L 92.5293 -20.3613 L 92.5293 -4.05273 C 92.5293 -0.585938 90.6738 1.12305 87.4023 1.12305 Z"/>
  </g>
  <g id="Regular-S" transform="matrix(1 0 0 1 1394.79 696)">
   <path d="M 22.2168 9.08203 L 87.8906 9.08203 C 96.1914 9.08203 100.342 4.98047 100.342 -3.22266 L 100.342 -22.5586 C 100.342 -23.9258 99.8535 -25.2441 98.9746 -26.123 C 99.9023 -27.8809 100.342 -29.9805 100.342 -32.5195 L 100.342 -53.7598 C 100.342 -57.5684 100.146 -60.2051 97.998 -62.207 L 84.6191 -74.6094 C 80.3223 -78.6133 77.2949 -79.834 71.4844 -79.834 L 38.6719 -79.834 C 32.8613 -79.834 29.7852 -78.6133 25.4883 -74.6094 L 12.1582 -62.207 C 10.0098 -60.2051 9.76562 -57.5684 9.76562 -53.7598 L 9.76562 -32.5195 C 9.76562 -29.9805 10.2051 -27.8809 11.1328 -26.1719 C 10.2539 -25.2441 9.76562 -23.9258 9.76562 -22.5586 L 9.76562 -3.22266 C 9.76562 4.98047 13.916 9.08203 22.2168 9.08203 Z M 55.0781 -44.4336 C 49.8047 -44.4336 46.582 -49.1211 46.582 -53.125 L 46.582 -53.2227 C 46.582 -54.9805 45.5566 -56.6406 43.3594 -56.6406 L 19.9219 -56.6406 C 17.4316 -56.6406 16.6504 -57.7637 18.6035 -59.5703 L 30.9082 -70.8984 C 33.0566 -72.9004 34.3262 -73.7305 37.9883 -73.7305 L 72.168 -73.7305 C 75.7812 -73.7305 77.0996 -72.9004 79.248 -70.8984 L 91.5039 -59.5703 C 93.6035 -57.666 92.627 -56.6406 90.2344 -56.6406 L 66.748 -56.6406 C 64.5996 -56.6406 63.5254 -54.9805 63.5254 -53.2227 L 63.5254 -53.125 C 63.5254 -49.1211 60.3516 -44.4336 55.0781 -44.4336 Z M 22.3145 -27.2949 C 18.7988 -27.2949 16.7969 -29.1992 16.7969 -32.9102 L 16.7969 -50.2441 L 39.9902 -50.2441 C 41.1133 -43.2617 47.168 -37.9395 55.0781 -37.9395 C 62.9883 -37.9395 68.9941 -43.2617 70.1172 -50.2441 L 93.3105 -50.2441 L 93.3105 -32.9102 C 93.3105 -29.1992 91.3086 -27.2949 87.793 -27.2949 Z M 55.0781 -15.0391 C 51.0254 -15.0391 48.1934 -17.8223 47.1191 -20.8984 L 63.0371 -20.8984 C 61.9141 -17.8223 59.082 -15.0391 55.0781 -15.0391 Z M 22.3145 2.00195 C 18.7988 2.00195 16.7969 0.0976562 16.7969 -3.56445 L 16.7969 -20.8984 L 39.9902 -20.8984 C 41.1133 -13.916 47.168 -8.59375 55.0781 -8.59375 C 62.9883 -8.59375 68.9941 -13.916 70.1172 -20.8984 L 93.3105 -20.8984 L 93.3105 -3.56445 C 93.3105 0.0976562 91.3086 2.00195 87.793 2.00195 Z"/>
  </g>
  <g id="Light-S" transform="matrix(1 0 0 1 1098.42 696)">
   <path d="M 21.3867 7.27539 L 88.0371 7.27539 C 95.752 7.27539 99.6582 3.36914 99.6582 -4.24805 L 99.6582 -23.7793 C 99.6582 -25.0977 99.0723 -26.416 98.0469 -27.0996 C 99.1211 -28.8086 99.6582 -31.0547 99.6582 -33.7402 L 99.6582 -54.7363 C 99.6582 -57.959 99.4629 -60.0586 97.6562 -61.7676 L 83.8867 -74.9512 C 79.8828 -78.7598 76.9043 -80.0293 71.4355 -80.0293 L 37.9883 -80.0293 C 32.5195 -80.0293 29.541 -78.7598 25.5371 -74.9512 L 11.7676 -61.7676 C 9.96094 -60.0586 9.76562 -57.959 9.76562 -54.7363 L 9.76562 -33.7402 C 9.76562 -31.0547 10.3027 -28.8086 11.377 -27.0996 C 10.3516 -26.416 9.76562 -25.0977 9.76562 -23.7793 L 9.76562 -4.24805 C 9.76562 3.41797 13.6719 7.27539 21.3867 7.27539 Z M 54.7363 -44.873 C 49.1699 -44.873 45.5078 -49.5605 45.5078 -54.2969 L 45.5078 -54.4922 C 45.5078 -55.957 44.6289 -57.3242 42.8223 -57.3242 L 17.7734 -57.3242 C 15.8691 -57.3242 15.1855 -58.2031 16.7969 -59.7168 L 29.6875 -72.0703 C 32.1777 -74.4629 33.8867 -75.2441 37.5488 -75.2441 L 71.875 -75.2441 C 75.5371 -75.2441 77.2461 -74.4629 79.7363 -72.0703 L 92.6758 -59.7168 C 94.2871 -58.1543 93.5547 -57.3242 91.6504 -57.3242 L 66.6016 -57.3242 C 64.7949 -57.3242 63.9648 -55.957 63.9648 -54.4922 L 63.9648 -54.2969 C 63.9648 -49.5605 60.2539 -44.873 54.7363 -44.873 Z M 21.4844 -27.6367 C 17.4316 -27.6367 15.1855 -29.834 15.1855 -34.0332 L 15.1855 -52.3438 L 40.332 -52.3438 C 41.1133 -45.1172 47.0703 -39.8438 54.7363 -39.8438 C 62.3535 -39.8438 68.3105 -45.166 69.0918 -52.3438 L 94.2383 -52.3438 L 94.2383 -34.0332 C 94.2383 -29.834 91.9434 -27.6367 87.9395 -27.6367 Z M 54.7363 -15.1855 C 49.9512 -15.1855 46.5332 -18.6523 45.7031 -22.6562 L 63.7207 -22.6562 C 62.8906 -18.6523 59.4727 -15.1855 54.7363 -15.1855 Z M 21.4844 1.85547 C 17.4316 1.85547 15.1855 -0.341797 15.1855 -4.54102 L 15.1855 -22.6562 L 40.332 -22.6562 C 41.1133 -15.4297 47.0703 -10.1562 54.7363 -10.1562 C 62.3535 -10.1562 68.3105 -15.4785 69.0918 -22.6562 L 94.2383 -22.6562 L 94.2383 -4.54102 C 94.2383 -0.341797 91.9434 1.85547 87.9395 1.85547 Z"/>
  </g>
  <g id="Thin-S" transform="matrix(1 0 0 1 802.174 696)">
   <path d="M 20.3125 4.93164 L 88.1836 4.93164 C 95.1172 4.93164 98.7305 1.26953 98.7305 -5.56641 L 98.7305 -25.3418 C 98.7305 -26.8066 97.8516 -27.9297 96.4355 -28.0273 C 97.9492 -29.7852 98.7305 -32.2266 98.7305 -35.3027 L 98.7305 -56.0059 C 98.7305 -58.4473 98.584 -59.8633 97.2168 -61.1816 L 82.959 -75.3906 C 79.2969 -79.0039 76.416 -80.2734 71.3379 -80.2734 L 37.1582 -80.2734 C 32.0801 -80.2734 29.1992 -79.0039 25.5371 -75.3906 L 11.2793 -61.1816 C 9.96094 -59.8633 9.76562 -58.4473 9.76562 -56.0059 L 9.76562 -35.3027 C 9.76562 -32.2266 10.5469 -29.7852 12.0605 -28.0273 C 10.7422 -28.0273 9.76562 -26.8555 9.76562 -25.3418 L 9.76562 -5.56641 C 9.76562 1.31836 13.3789 4.93164 20.3125 4.93164 Z M 54.248 -45.4102 C 48.3887 -45.4102 44.043 -50.0977 44.043 -55.8594 L 44.043 -56.1035 C 44.043 -57.2754 43.4082 -58.1543 42.0898 -58.1543 L 14.9902 -58.1543 C 13.7207 -58.1543 13.3301 -58.8379 14.3555 -59.8633 L 28.125 -73.6328 C 31.0547 -76.5625 33.252 -77.2949 37.0117 -77.2949 L 71.4844 -77.2949 C 75.2441 -77.2949 77.4414 -76.5625 80.3711 -73.6328 L 94.1406 -59.8633 C 95.2148 -58.7891 94.7266 -58.1543 93.5547 -58.1543 L 66.4062 -58.1543 C 65.0879 -58.1543 64.4531 -57.2754 64.4531 -56.1035 L 64.4531 -55.8594 C 64.4531 -50.0977 60.1562 -45.4102 54.248 -45.4102 Z M 20.4102 -28.125 C 15.625 -28.125 13.0859 -30.6152 13.0859 -35.498 L 13.0859 -55.0781 L 40.7715 -55.0781 C 41.1133 -47.5586 46.9727 -42.334 54.248 -42.334 C 61.5723 -42.334 67.3828 -47.6562 67.7246 -55.0781 L 95.4102 -55.0781 L 95.4102 -35.498 C 95.4102 -30.6152 92.7246 -28.125 88.0859 -28.125 Z M 54.248 -15.332 C 48.6328 -15.332 44.4336 -19.6289 44.043 -25 L 64.4531 -25 C 64.0625 -19.6289 59.8633 -15.332 54.248 -15.332 Z M 20.4102 1.61133 C 15.625 1.61133 13.0859 -0.878906 13.0859 -5.76172 L 13.0859 -25 L 40.7715 -25 C 41.1133 -17.4805 46.9727 -12.2559 54.248 -12.2559 C 61.5723 -12.2559 67.3828 -17.5293 67.7246 -25 L 95.4102 -25 L 95.4102 -5.76172 C 95.4102 -0.878906 92.7246 1.61133 88.0859 1.61133 Z"/>
  </g>
  <g id="Ultralight-S" transform="matrix(1 0 0 1 505.707 696)">
   <path d="M 19.7754 3.71094 L 88.2812 3.71094 C 94.7754 3.71094 98.2422 0.146484 98.2422 -6.29883 L 98.2422 -26.1719 C 98.2422 -27.3926 97.4121 -28.2715 96.1914 -28.2715 L 95.166 -28.2715 C 97.2168 -29.9316 98.2422 -32.6172 98.2422 -36.1328 L 98.2422 -56.6895 C 98.2422 -58.6914 98.0957 -59.7656 96.9727 -60.8398 L 82.4219 -75.6348 C 78.9551 -79.1016 76.1719 -80.4199 71.2891 -80.4199 L 36.7188 -80.4199 C 31.8359 -80.4199 29.0527 -79.1016 25.5859 -75.6348 L 11.0352 -60.8398 C 9.91211 -59.7656 9.76562 -58.6914 9.76562 -56.6895 L 9.76562 -36.1328 C 9.76562 -32.5684 10.791 -29.9316 12.793 -28.2715 L 11.8164 -28.2715 C 10.5957 -28.2715 9.76562 -27.3926 9.76562 -26.1719 L 9.76562 -6.29883 C 9.76562 0.244141 13.2324 3.71094 19.7754 3.71094 Z M 54.0039 -45.752 C 47.9492 -45.752 43.3105 -50.4395 43.3105 -56.6406 L 43.3105 -56.9336 C 43.3105 -57.959 42.7734 -58.5938 41.748 -58.5938 L 13.5254 -58.5938 C 12.6465 -58.5938 12.3535 -59.1797 13.0859 -59.9609 L 27.2949 -74.4141 C 30.4688 -77.6367 32.9102 -78.3691 36.7188 -78.3691 L 71.2891 -78.3691 C 75.0977 -78.3691 77.5391 -77.6367 80.7129 -74.4141 L 94.9219 -59.9609 C 95.7031 -59.1309 95.3613 -58.5938 94.4824 -58.5938 L 66.3086 -58.5938 C 65.2344 -58.5938 64.7461 -57.959 64.7461 -56.9336 L 64.7461 -56.6406 C 64.7461 -50.4395 60.0586 -45.752 54.0039 -45.752 Z M 19.873 -28.3691 C 14.6484 -28.3691 11.9629 -31.0547 11.9629 -36.2305 L 11.9629 -56.4941 L 41.0156 -56.4941 C 41.1133 -48.8281 46.875 -43.6523 54.0039 -43.6523 C 61.1328 -43.6523 66.8945 -48.9258 66.9922 -56.4941 L 96.0449 -56.4941 L 96.0449 -36.2305 C 96.0449 -31.0547 93.1641 -28.3691 88.1836 -28.3691 Z M 54.0039 -15.4297 C 47.998 -15.4297 43.3594 -20.0195 43.3105 -26.1719 L 64.7461 -26.1719 C 64.7461 -20.1172 60.0586 -15.4297 54.0039 -15.4297 Z M 19.873 1.51367 C 14.6484 1.51367 11.9629 -1.2207 11.9629 -6.39648 L 11.9629 -26.1719 L 41.0156 -26.1719 C 41.1133 -18.5059 46.875 -13.3301 54.0039 -13.3301 C 61.1328 -13.3301 66.8945 -18.6035 66.9922 -26.1719 L 96.0449 -26.1719 L 96.0449 -6.39648 C 96.0449 -1.2207 93.1641 1.51367 88.1836 1.51367 Z"/>
  </g>
 </g>
</svg>
